# File units = meters
mtllib Part Studio 44 - driveway.mtl
g driveway

v -0.849348 4.517225 -0.014770
v -0.026997 -0.028784 -0.014770
v 10.720060 2.664924 -0.014770
v 10.431732 -1.522857 -0.014770
v 17.770901 2.406840 -0.014770
v 18.358433 -1.653821 -0.014770
v 20.844051 3.061925 -0.014770
v 22.483728 -0.903549 -0.014770
v 24.221045 4.569762 -0.014770
v 26.244051 0.918250 -0.014770
v 29.728251 7.582360 -0.014770
v 31.344555 3.745012 -0.014770
v 35.068321 9.345985 -0.014770
v 36.225143 5.374611 -0.014770
v 40.729969 10.541830 -0.014770
v 41.298714 6.370460 -0.014770
v 3.932308 -0.727663 -0.014770
v 4.462724 3.358795 -0.014770
v 33.810650 4.715109 -0.014770
v 32.422314 8.629291 -0.014770
v 38.731640 5.901418 -0.014770
v 37.854248 9.962140 -0.014770
v 6.815647 -1.157278 -0.014770
v 7.385817 2.958990 -0.014770
v 1.761575 -0.357476 -0.014770
v 1.755944 3.898906 -0.014770
v 14.611250 -1.695377 -0.014770
v 14.505247 2.447474 -0.014770
v 20.785969 -1.393888 -0.014770
v 19.643753 2.636666 -0.014770
v 24.208773 -0.159823 -0.014770
v 22.262705 3.627835 -0.014770
v 28.721853 2.351803 -0.014770
v 26.852053 6.058010 -0.014770
v 32.594849 4.281077 -0.014770
v 35.013550 5.071493 -0.014770
v 33.737095 9.012836 -0.014770
v 36.444447 9.660899 -0.014770
v 37.467033 5.648845 -0.014770
v 40.011391 6.139549 -0.014770
v 39.286495 10.254264 -0.014770
v 5.885887 3.142508 -0.014770
v 5.280411 -0.941286 -0.014770
v 8.534069 -1.357261 -0.014770
v 8.988534 2.801907 -0.014770
v 0.446955 4.203177 -0.014770
v 0.843404 -0.190537 -0.014770
v 2.775286 -0.534789 -0.014770
v 3.090305 3.614186 -0.014770
v 12.606417 2.541707 -0.014770
v 12.504688 -1.635688 -0.014770
v 16.609728 -1.701546 -0.014770
v 16.274195 2.397445 -0.014770
v 18.853012 2.490878 -0.014770
v 19.715675 -1.551822 -0.014770
v 21.673817 -1.178351 -0.014770
v 20.266356 2.831313 -0.014770
v 21.500067 3.315611 -0.014770
v 23.320217 -0.567815 -0.014770
v 25.174887 0.331756 -0.014770
v 23.160263 4.034064 -0.014770
v 25.473343 5.270396 -0.014770
v 27.441759 1.610987 -0.014770
v 30.038170 3.082533 -0.014770
v 28.292057 6.854650 -0.014770
v 31.095516 8.163186 -0.014770
v -0.849348 4.517225 1.069977
v -0.026997 -0.028784 1.069977
v 0.843404 -0.190537 1.069977
v 1.761575 -0.357476 1.069977
v 2.775286 -0.534789 1.069977
v 3.932308 -0.727663 1.069977
v 10.720060 2.664924 1.069977
v 8.988534 2.801907 1.069977
v 7.385817 2.958990 1.069977
v 5.885887 3.142508 1.069977
v 4.462724 3.358795 1.069977
v 10.431732 -1.522857 1.069977
v 12.504688 -1.635688 1.069977
v 14.611250 -1.695377 1.069977
v 16.609728 -1.701546 1.069977
v 18.358433 -1.653821 1.069977
v 17.770901 2.406840 1.069977
v 16.274195 2.397445 1.069977
v 14.505247 2.447474 1.069977
v 12.606417 2.541707 1.069977
v 19.715675 -1.551822 1.069977
v 20.785969 -1.393888 1.069977
v 21.673817 -1.178351 1.069977
v 22.483728 -0.903549 1.069977
v 20.844051 3.061925 1.069977
v 20.266356 2.831313 1.069977
v 19.643753 2.636666 1.069977
v 18.853012 2.490878 1.069977
v 23.320217 -0.567815 1.069977
v 24.208773 -0.159823 1.069977
v 25.174887 0.331756 1.069977
v 26.244051 0.918250 1.069977
v 24.221045 4.569762 1.069977
v 23.160263 4.034064 1.069977
v 22.262705 3.627835 1.069977
v 21.500067 3.315611 1.069977
v 27.441759 1.610987 1.069977
v 28.721853 2.351803 1.069977
v 30.038170 3.082533 1.069977
v 31.344555 3.745012 1.069977
v 29.728251 7.582360 1.069977
v 28.292057 6.854650 1.069977
v 26.852053 6.058010 1.069977
v 25.473343 5.270396 1.069977
v 32.594849 4.281077 1.069977
v 33.810650 4.715109 1.069977
v 35.013550 5.071493 1.069977
v 36.225143 5.374611 1.069977
v 35.068321 9.345985 1.069977
v 33.737095 9.012836 1.069977
v 32.422314 8.629291 1.069977
v 31.095516 8.163186 1.069977
v 37.467033 5.648845 1.069977
v 38.731640 5.901418 1.069977
v 40.011391 6.139549 1.069977
v 41.298714 6.370460 1.069977
v 40.729969 10.541830 1.069977
v 39.286495 10.254264 1.069977
v 37.854248 9.962140 1.069977
v 36.444447 9.660899 1.069977
v 5.280411 -0.941286 1.069977
v 6.815647 -1.157278 1.069977
v 8.534069 -1.357261 1.069977
v 3.090305 3.614186 1.069977
v 1.755944 3.898906 1.069977
v 0.446955 4.203177 1.069977
vt -1.660957 -4.486354
vt -0.019480 -4.914248
vt -0.163536 -5.184028
vt -1.782295 -4.904599
vt -0.378037 -5.435976
vt -1.674557 -5.398029
vt -1.525165 -4.127255
vt 0.102595 -4.623661
vt -1.404949 -3.777633
vt 0.207691 -4.302248
vt -0.832210 -1.240015
vt 0.870224 -1.415841
vt 0.779291 -1.984998
vt -0.917065 -1.722204
vt 0.675345 -2.544370
vt -1.011096 -2.201262
vt -0.767136 -0.791301
vt 0.943084 -0.872946
vt -0.729632 -0.411032
vt 0.991199 -0.392548
vt -0.706003 0.058576
vt 1.000319 0.292342
vt 1.009277 -0.012334
vt -0.705561 -0.137433
vt -0.724257 0.218586
vt 0.973105 0.546004
vt -0.754098 0.374520
vt 0.934867 0.781646
vt -0.838279 0.768489
vt 0.810376 1.284150
vt 0.881063 1.025647
vt -0.790918 0.555546
vt -0.903239 1.021477
vt 0.721411 1.563421
vt -0.995119 1.324459
vt 0.612657 1.869743
vt -1.271817 2.100601
vt 0.347895 2.566488
vt 0.483770 2.209099
vt -1.122993 1.690665
vt -1.422801 2.533676
vt 0.218203 2.927751
vt -1.557347 2.968958
vt 0.109616 3.279636
vt -1.717321 3.790823
vt -0.023394 3.928281
vt 0.031061 3.609985
vt -1.656584 3.384983
vt -1.753028 4.183225
vt -0.059362 4.242935
vt -1.774578 4.576106
vt -0.081782 4.562064
vt -1.741812 5.435347
vt -0.096959 5.245627
vt -0.094045 4.894444
vt -1.784232 4.990505
vt -1.650304 5.904239
vt -0.105056 5.635629
vt -1.346392 6.349934
vt -0.224495 6.095533
vt -1.199394 -3.043671
vt 0.439931 -3.526401
vt 0.319348 -3.938570
vt -1.298257 -3.420231
vt -1.104570 -2.639713
vt 0.563249 -3.058729
vt -0.474268 -5.195004
vt -1.554197 -5.166463
vt -0.365622 -4.990884
vt -0.268956 -4.760423
vt -0.164087 -4.505394
vt -0.069394 -4.205404
vt -0.816928 -2.687701
vt -0.722495 -2.243729
vt -0.913057 -3.098333
vt -1.013460 -3.482849
vt -1.121025 -3.848781
vt 0.489614 -1.948250
vt 0.386876 -2.497287
vt 0.579501 -1.387090
vt 0.651250 -0.853317
vt 0.698807 -0.386543
vt -0.475672 -0.809890
vt -0.440780 -0.415071
vt -0.541716 -1.269583
vt -0.627531 -1.759209
vt 0.718326 -0.024586
vt 0.713210 0.259941
vt 0.686825 0.497705
vt 0.650842 0.719331
vt -0.435385 0.267724
vt -0.470156 0.435620
vt -0.413294 0.089007
vt -0.412831 -0.125322
vt 0.600117 0.949649
vt 0.532835 1.195870
vt 0.447084 1.465240
vt 0.341262 1.764309
vt -0.623393 1.108094
vt -0.718670 1.420143
vt -0.555833 0.845977
vt -0.507554 0.624944
vt 0.213351 2.100584
vt 0.076479 2.460122
vt -0.056108 2.828743
vt -0.169331 3.193731
vt -1.146924 2.627787
vt -1.276330 3.046859
vt -0.998700 2.202027
vt -0.849939 1.792405
vt -0.252275 3.540302
vt -0.310204 3.874452
vt -0.348452 4.202739
vt -0.372377 4.532063
vt -1.460724 4.198083
vt -1.481130 4.573737
vt -1.425543 3.821629
vt -1.369102 3.438062
vt -0.387250 4.869912
vt -0.394736 5.214803
vt -0.397876 5.561732
vt -0.397086 5.882875
vt -1.273416 6.109489
vt -1.417464 5.763054
vt -1.457828 5.358517
vt -1.495044 4.956732
vt 0.039319 -3.853693
vt 0.156684 -3.449267
vt 0.276737 -2.995438
vt -1.239028 -4.203462
vt -1.365361 -4.548784
vt -1.492337 -4.881501
vt 1.318864 5.569263
vt 1.177532 5.894784
vt 1.458210 5.239975
vt 1.593587 4.903144
vt 1.723007 4.554999
vt 3.144609 3.702404
vt 3.274399 3.212485
vt 3.013963 4.143770
vt 2.887460 4.536391
vt 2.770095 4.880058
vt 1.526762 -4.115611
vt 1.546674 -3.740537
vt 1.511969 -4.498891
vt 1.500586 -4.887640
vt 1.490911 -5.279124
vt 2.610289 -5.238338
vt 2.612222 -4.890365
vt 2.616394 -4.544050
vt 2.625037 -4.201046
vt 2.640396 -3.863013
vt 1.675894 -2.645259
vt 1.765915 -2.260402
vt 1.614103 -3.014284
vt 1.573408 -3.376402
vt 2.664704 -3.531605
vt 2.703371 -3.200054
vt 2.761806 -2.861585
vt 2.845417 -2.509429
vt 2.178295 -1.039774
vt 2.304955 -0.679602
vt 2.034587 -1.437043
vt 1.891303 -1.850791
vt 2.959615 -2.136815
vt 3.091253 -1.758492
vt 3.227181 -1.389203
vt 3.354256 -1.043701
vt 2.509863 0.090769
vt 2.546502 0.274285
vt 2.462730 -0.123363
vt 2.397098 -0.377142
vt 3.459333 -0.736730
vt 3.544219 -0.461094
vt 3.610724 -0.209597
vt 3.660657 0.024965
vt 2.605567 0.822213
vt 2.578339 1.109704
vt 2.603344 0.608290
vt 2.580659 0.436221
vt 3.695827 0.249785
vt 3.711913 0.492337
vt 3.704594 0.780095
vt 3.669551 1.140529
vt 2.307899 2.457392
vt 2.189733 2.946275
vt 2.419036 1.963918
vt 2.512672 1.502483
vt 3.602461 1.601107
vt 3.509874 2.124712
vt 3.398337 2.674213
vt 1.844487 4.191775
vt 1.960871 3.806933
vt 2.075004 3.393946
vt 2.666867 5.174582
vt 2.574241 5.432248
vt 2.488685 5.665339
vt 2.406662 5.886145
vn 0.000000 0.000000 -1.000000
vn 0.000000 0.000000 -1.000000
vn 0.000000 0.000000 -1.000000
vn 0.000000 0.000000 -1.000000
vn 0.000000 0.000000 -1.000000
vn 0.000000 0.000000 -1.000000
vn 0.000000 0.000000 -1.000000
vn 0.000000 0.000000 -1.000000
vn 0.000000 0.000000 -1.000000
vn 0.000000 0.000000 -1.000000
vn 0.000000 0.000000 -1.000000
vn 0.000000 0.000000 -1.000000
vn 0.000000 0.000000 -1.000000
vn 0.000000 0.000000 -1.000000
vn 0.000000 0.000000 -1.000000
vn 0.000000 0.000000 -1.000000
vn 0.000000 0.000000 -1.000000
vn 0.000000 0.000000 -1.000000
vn 0.000000 0.000000 -1.000000
vn 0.000000 0.000000 -1.000000
vn 0.000000 0.000000 -1.000000
vn 0.000000 0.000000 -1.000000
vn 0.000000 0.000000 -1.000000
vn 0.000000 0.000000 -1.000000
vn 0.000000 0.000000 -1.000000
vn 0.000000 0.000000 -1.000000
vn 0.000000 0.000000 -1.000000
vn 0.000000 0.000000 -1.000000
vn 0.000000 0.000000 -1.000000
vn 0.000000 0.000000 -1.000000
vn 0.000000 0.000000 -1.000000
vn 0.000000 0.000000 -1.000000
vn 0.000000 0.000000 -1.000000
vn 0.000000 0.000000 -1.000000
vn 0.000000 0.000000 -1.000000
vn 0.000000 0.000000 -1.000000
vn 0.000000 0.000000 -1.000000
vn 0.000000 0.000000 -1.000000
vn 0.000000 0.000000 -1.000000
vn 0.000000 0.000000 -1.000000
vn 0.000000 0.000000 -1.000000
vn 0.000000 0.000000 -1.000000
vn 0.000000 0.000000 -1.000000
vn 0.000000 0.000000 -1.000000
vn 0.000000 0.000000 -1.000000
vn 0.000000 0.000000 -1.000000
vn 0.000000 0.000000 -1.000000
vn 0.000000 0.000000 -1.000000
vn 0.000000 0.000000 -1.000000
vn 0.000000 0.000000 -1.000000
vn 0.000000 0.000000 -1.000000
vn 0.000000 0.000000 -1.000000
vn 0.000000 0.000000 -1.000000
vn 0.000000 0.000000 -1.000000
vn 0.000000 0.000000 -1.000000
vn 0.000000 0.000000 -1.000000
vn 0.000000 0.000000 -1.000000
vn 0.000000 0.000000 -1.000000
vn 0.000000 0.000000 -1.000000
vn 0.000000 0.000000 -1.000000
vn 0.000000 0.000000 -1.000000
vn 0.000000 0.000000 -1.000000
vn 0.000000 0.000000 -1.000000
vn 0.000000 0.000000 -1.000000
vn 0.000000 0.000000 -1.000000
vn 0.000000 0.000000 -1.000000
vn -0.984029 -0.178006 0.000000
vn -0.984029 -0.178006 0.000000
vn -0.984029 -0.178006 0.000000
vn -0.984029 -0.178006 0.000000
vn -0.182708 -0.983167 0.000000
vn -0.182708 -0.983167 0.000000
vn -0.182708 -0.983167 0.000000
vn -0.182708 -0.983167 0.000000
vn -0.178884 -0.983870 0.000000
vn -0.178884 -0.983870 0.000000
vn -0.178884 -0.983870 0.000000
vn -0.178884 -0.983870 0.000000
vn -0.172299 -0.985045 0.000000
vn -0.172299 -0.985045 0.000000
vn -0.172299 -0.985045 0.000000
vn -0.172299 -0.985045 0.000000
vn -0.164430 -0.986389 0.000000
vn -0.164430 -0.986389 0.000000
vn -0.164430 -0.986389 0.000000
vn -0.164430 -0.986389 0.000000
vn 0.078865 0.996885 0.000000
vn 0.078865 0.996885 0.000000
vn 0.078865 0.996885 0.000000
vn 0.078865 0.996885 0.000000
vn 0.097543 0.995231 0.000000
vn 0.097543 0.995231 0.000000
vn 0.097543 0.995231 0.000000
vn 0.097543 0.995231 0.000000
vn 0.121445 0.992598 0.000000
vn 0.121445 0.992598 0.000000
vn 0.121445 0.992598 0.000000
vn 0.121445 0.992598 0.000000
vn 0.150251 0.988648 0.000000
vn 0.150251 0.988648 0.000000
vn 0.150251 0.988648 0.000000
vn 0.150251 0.988648 0.000000
vn -0.054349 -0.998522 0.000000
vn -0.054349 -0.998522 0.000000
vn -0.054349 -0.998522 0.000000
vn -0.054349 -0.998522 0.000000
vn -0.028323 -0.999599 0.000000
vn -0.028323 -0.999599 0.000000
vn -0.028323 -0.999599 0.000000
vn -0.028323 -0.999599 0.000000
vn -0.003087 -0.999995 0.000000
vn -0.003087 -0.999995 0.000000
vn -0.003087 -0.999995 0.000000
vn -0.003087 -0.999995 0.000000
vn 0.027282 -0.999628 0.000000
vn 0.027282 -0.999628 0.000000
vn 0.027282 -0.999628 0.000000
vn 0.027282 -0.999628 0.000000
vn -0.006277 0.999980 0.000000
vn -0.006277 0.999980 0.000000
vn -0.006277 0.999980 0.000000
vn -0.006277 0.999980 0.000000
vn 0.028270 0.999600 0.000000
vn 0.028270 0.999600 0.000000
vn 0.028270 0.999600 0.000000
vn 0.028270 0.999600 0.000000
vn 0.049566 0.998771 0.000000
vn 0.049566 0.998771 0.000000
vn 0.049566 0.998771 0.000000
vn 0.049566 0.998771 0.000000
vn 0.065182 0.997873 0.000000
vn 0.065182 0.997873 0.000000
vn 0.065182 0.997873 0.000000
vn 0.065182 0.997873 0.000000
vn 0.074940 -0.997188 0.000000
vn 0.074940 -0.997188 0.000000
vn 0.074940 -0.997188 0.000000
vn 0.074940 -0.997188 0.000000
vn 0.145982 -0.989287 0.000000
vn 0.145982 -0.989287 0.000000
vn 0.145982 -0.989287 0.000000
vn 0.145982 -0.989287 0.000000
vn 0.235911 -0.971775 0.000000
vn 0.235911 -0.971775 0.000000
vn 0.235911 -0.971775 0.000000
vn 0.235911 -0.971775 0.000000
vn 0.321308 -0.946975 0.000000
vn 0.321308 -0.946975 0.000000
vn 0.321308 -0.946975 0.000000
vn 0.321308 -0.946975 0.000000
vn -0.370745 0.928735 0.000000
vn -0.370745 0.928735 0.000000
vn -0.370745 0.928735 0.000000
vn -0.370745 0.928735 0.000000
vn -0.298391 0.954444 0.000000
vn -0.298391 0.954444 0.000000
vn -0.298391 0.954444 0.000000
vn -0.298391 0.954444 0.000000
vn -0.181314 0.983425 0.000000
vn -0.181314 0.983425 0.000000
vn -0.181314 0.983425 0.000000
vn -0.181314 0.983425 0.000000
vn -0.077428 0.996998 0.000000
vn -0.077428 0.996998 0.000000
vn -0.077428 0.996998 0.000000
vn -0.077428 0.996998 0.000000
vn 0.372479 -0.928041 0.000000
vn 0.372479 -0.928041 0.000000
vn 0.372479 -0.928041 0.000000
vn 0.372479 -0.928041 0.000000
vn 0.417278 -0.908779 0.000000
vn 0.417278 -0.908779 0.000000
vn 0.417278 -0.908779 0.000000
vn 0.417278 -0.908779 0.000000
vn 0.453492 -0.891260 0.000000
vn 0.453492 -0.891260 0.000000
vn 0.453492 -0.891260 0.000000
vn 0.453492 -0.891260 0.000000
vn 0.480945 -0.876751 0.000000
vn 0.480945 -0.876751 0.000000
vn 0.480945 -0.876751 0.000000
vn 0.480945 -0.876751 0.000000
vn -0.450783 0.892634 0.000000
vn -0.450783 0.892634 0.000000
vn -0.450783 0.892634 0.000000
vn -0.450783 0.892634 0.000000
vn -0.412329 0.911035 0.000000
vn -0.412329 0.911035 0.000000
vn -0.412329 0.911035 0.000000
vn -0.412329 0.911035 0.000000
vn -0.378878 0.925447 0.000000
vn -0.378878 0.925447 0.000000
vn -0.378878 0.925447 0.000000
vn -0.378878 0.925447 0.000000
vn -0.360678 0.932691 0.000000
vn -0.360678 0.932691 0.000000
vn -0.360678 0.932691 0.000000
vn -0.360678 0.932691 0.000000
vn 0.500673 -0.865637 0.000000
vn 0.500673 -0.865637 0.000000
vn 0.500673 -0.865637 0.000000
vn 0.500673 -0.865637 0.000000
vn 0.500888 -0.865512 0.000000
vn 0.500888 -0.865512 0.000000
vn 0.500888 -0.865512 0.000000
vn 0.500888 -0.865512 0.000000
vn 0.485360 -0.874314 0.000000
vn 0.485360 -0.874314 0.000000
vn 0.485360 -0.874314 0.000000
vn 0.485360 -0.874314 0.000000
vn 0.452278 -0.891877 0.000000
vn 0.452278 -0.891877 0.000000
vn 0.452278 -0.891877 0.000000
vn 0.452278 -0.891877 0.000000
vn -0.451984 0.892026 0.000000
vn -0.451984 0.892026 0.000000
vn -0.451984 0.892026 0.000000
vn -0.451984 0.892026 0.000000
vn -0.484081 0.875023 0.000000
vn -0.484081 0.875023 0.000000
vn -0.484081 0.875023 0.000000
vn -0.484081 0.875023 0.000000
vn -0.496035 0.868303 0.000000
vn -0.496035 0.868303 0.000000
vn -0.496035 0.868303 0.000000
vn -0.496035 0.868303 0.000000
vn -0.488257 0.872700 0.000000
vn -0.488257 0.872700 0.000000
vn -0.488257 0.872700 0.000000
vn -0.488257 0.872700 0.000000
vn 0.394059 -0.919085 0.000000
vn 0.394059 -0.919085 0.000000
vn 0.394059 -0.919085 0.000000
vn 0.394059 -0.919085 0.000000
vn 0.336211 -0.941787 0.000000
vn 0.336211 -0.941787 0.000000
vn 0.336211 -0.941787 0.000000
vn 0.336211 -0.941787 0.000000
vn 0.284066 -0.958805 0.000000
vn 0.284066 -0.958805 0.000000
vn 0.284066 -0.958805 0.000000
vn 0.284066 -0.958805 0.000000
vn 0.242701 -0.970101 0.000000
vn 0.242701 -0.970101 0.000000
vn 0.242701 -0.970101 0.000000
vn 0.242701 -0.970101 0.000000
vn -0.242770 0.970084 0.000000
vn -0.242770 0.970084 0.000000
vn -0.242770 0.970084 0.000000
vn -0.242770 0.970084 0.000000
vn -0.280045 0.959987 0.000000
vn -0.280045 0.959987 0.000000
vn -0.280045 0.959987 0.000000
vn -0.280045 0.959987 0.000000
vn -0.331443 0.943475 0.000000
vn -0.331443 0.943475 0.000000
vn -0.331443 0.943475 0.000000
vn -0.331443 0.943475 0.000000
vn -0.390991 0.920394 0.000000
vn -0.390991 0.920394 0.000000
vn -0.390991 0.920394 0.000000
vn -0.390991 0.920394 0.000000
vn 0.215626 -0.976476 0.000000
vn 0.215626 -0.976476 0.000000
vn 0.215626 -0.976476 0.000000
vn 0.215626 -0.976476 0.000000
vn 0.195856 -0.980633 0.000000
vn 0.195856 -0.980633 0.000000
vn 0.195856 -0.980633 0.000000
vn 0.195856 -0.980633 0.000000
vn 0.182936 -0.983125 0.000000
vn 0.182936 -0.983125 0.000000
vn 0.182936 -0.983125 0.000000
vn 0.182936 -0.983125 0.000000
vn 0.176555 -0.984291 0.000000
vn 0.176555 -0.984291 0.000000
vn 0.176555 -0.984291 0.000000
vn 0.176555 -0.984291 0.000000
vn 0.990833 0.135095 0.000000
vn 0.990833 0.135095 0.000000
vn 0.990833 0.135095 0.000000
vn 0.990833 0.135095 0.000000
vn -0.195378 0.980728 0.000000
vn -0.195378 0.980728 0.000000
vn -0.195378 0.980728 0.000000
vn -0.195378 0.980728 0.000000
vn -0.199848 0.979827 0.000000
vn -0.199848 0.979827 0.000000
vn -0.199848 0.979827 0.000000
vn -0.199848 0.979827 0.000000
vn -0.208959 0.977925 0.000000
vn -0.208959 0.977925 0.000000
vn -0.208959 0.977925 0.000000
vn -0.208959 0.977925 0.000000
vn -0.223075 0.974801 0.000000
vn -0.223075 0.974801 0.000000
vn -0.223075 0.974801 0.000000
vn -0.223075 0.974801 0.000000
vn -0.156509 -0.987677 0.000000
vn -0.156509 -0.987677 0.000000
vn -0.156509 -0.987677 0.000000
vn -0.156509 -0.987677 0.000000
vn -0.139318 -0.990248 0.000000
vn -0.139318 -0.990248 0.000000
vn -0.139318 -0.990248 0.000000
vn -0.139318 -0.990248 0.000000
vn -0.115596 -0.993296 0.000000
vn -0.115596 -0.993296 0.000000
vn -0.115596 -0.993296 0.000000
vn -0.115596 -0.993296 0.000000
vn -0.086933 -0.996214 0.000000
vn -0.086933 -0.996214 0.000000
vn -0.086933 -0.996214 0.000000
vn -0.086933 -0.996214 0.000000
vn 0.182948 0.983123 0.000000
vn 0.182948 0.983123 0.000000
vn 0.182948 0.983123 0.000000
vn 0.182948 0.983123 0.000000
vn 0.208678 0.977985 0.000000
vn 0.208678 0.977985 0.000000
vn 0.208678 0.977985 0.000000
vn 0.208678 0.977985 0.000000
vn 0.226411 0.974032 0.000000
vn 0.226411 0.974032 0.000000
vn 0.226411 0.974032 0.000000
vn 0.226411 0.974032 0.000000
vn 0.235453 0.971886 0.000000
vn 0.235453 0.971886 0.000000
vn 0.235453 0.971886 0.000000
vn 0.235453 0.971886 0.000000
s 1
usemtl initialShadingGroup
f 26/135/1 25/196/2 47/197/3 46/133/4
f 46/133/4 47/197/3 2/198/5 1/134/6
f 49/136/7 48/195/8 25/196/2 26/135/1
f 49/136/7 18/137/9 17/142/10 48/195/8
f 28/187/11 27/190/12 51/191/13 50/185/14
f 50/185/14 51/191/13 4/139/15 3/186/16
f 53/188/17 52/189/18 27/190/12 28/187/11
f 53/188/17 5/178/19 6/184/20 52/189/18
f 30/179/21 29/182/22 55/183/23 54/177/24
f 54/177/24 55/183/23 6/184/20 5/178/19
f 57/180/25 56/181/26 29/182/22 30/179/21
f 57/180/25 7/170/27 8/176/28 56/181/26
f 32/171/29 31/174/30 59/175/31 58/169/32
f 58/169/32 59/175/31 8/176/28 7/170/27
f 61/172/33 60/173/34 31/174/30 32/171/29
f 61/172/33 9/162/35 10/168/36 60/173/34
f 34/163/37 33/166/38 63/167/39 62/161/40
f 62/161/40 63/167/39 10/168/36 9/162/35
f 65/164/41 64/165/42 33/166/38 34/163/37
f 65/164/41 11/154/43 12/160/44 64/165/42
f 20/155/45 19/158/46 35/159/47 66/153/48
f 66/153/48 35/159/47 12/160/44 11/154/43
f 37/156/49 36/157/50 19/158/46 20/155/45
f 37/156/49 13/144/51 14/152/52 36/157/50
f 22/145/53 21/150/54 39/151/55 38/143/56
f 38/143/56 39/151/55 14/152/52 13/144/51
f 41/146/57 40/149/58 21/150/54 22/145/53
f 41/146/57 15/147/59 16/148/60 40/149/58
f 24/193/61 23/140/62 43/141/63 42/192/64
f 42/192/64 43/141/63 17/142/10 18/137/9
f 45/194/65 44/138/66 23/140/62 24/193/61
f 45/194/65 3/186/16 4/139/15 44/138/66
s off
f 2/5/67 68/67/68 67/68/69 1/6/70
f 47/3/71 69/69/72 68/67/73 2/5/74
f 25/2/75 70/70/76 69/69/77 47/3/78
f 48/8/79 71/71/80 70/70/81 25/2/82
f 17/10/83 72/72/84 71/71/85 48/8/86
f 45/65/87 74/73/88 73/74/89 3/16/90
f 24/61/91 75/75/92 74/73/93 45/65/94
f 42/64/95 76/76/96 75/75/97 24/61/98
f 18/9/99 77/77/100 76/76/101 42/64/102
f 51/13/103 79/78/104 78/79/105 4/15/106
f 27/12/107 80/80/108 79/78/109 51/13/110
f 52/18/111 81/81/112 80/80/113 27/12/114
f 6/20/115 82/82/116 81/81/117 52/18/118
f 53/17/119 84/83/120 83/84/121 5/19/122
f 28/11/123 85/85/124 84/83/125 53/17/126
f 50/14/127 86/86/128 85/85/129 28/11/130
f 3/16/131 73/74/132 86/86/133 50/14/134
f 55/23/135 87/87/136 82/82/137 6/20/138
f 29/22/139 88/88/140 87/87/141 55/23/142
f 56/26/143 89/89/144 88/88/145 29/22/146
f 8/28/147 90/90/148 89/89/149 56/26/150
f 57/25/151 92/91/152 91/92/153 7/27/154
f 30/21/155 93/93/156 92/91/157 57/25/158
f 54/24/159 94/94/160 93/93/161 30/21/162
f 5/19/163 83/84/164 94/94/165 54/24/166
f 59/31/167 95/95/168 90/90/169 8/28/170
f 31/30/171 96/96/172 95/95/173 59/31/174
f 60/34/175 97/97/176 96/96/177 31/30/178
f 10/36/179 98/98/180 97/97/181 60/34/182
f 61/33/183 100/99/184 99/100/185 9/35/186
f 32/29/187 101/101/188 100/99/189 61/33/190
f 58/32/191 102/102/192 101/101/193 32/29/194
f 7/27/195 91/92/196 102/102/197 58/32/198
f 63/39/199 103/103/200 98/98/201 10/36/202
f 33/38/203 104/104/204 103/103/205 63/39/206
f 64/42/207 105/105/208 104/104/209 33/38/210
f 12/44/211 106/106/212 105/105/213 64/42/214
f 65/41/215 108/107/216 107/108/217 11/43/218
f 34/37/219 109/109/220 108/107/221 65/41/222
f 62/40/223 110/110/224 109/109/225 34/37/226
f 9/35/227 99/100/228 110/110/229 62/40/230
f 35/47/231 111/111/232 106/106/233 12/44/234
f 19/46/235 112/112/236 111/111/237 35/47/238
f 36/50/239 113/113/240 112/112/241 19/46/242
f 14/52/243 114/114/244 113/113/245 36/50/246
f 37/49/247 116/115/248 115/116/249 13/51/250
f 20/45/251 117/117/252 116/115/253 37/49/254
f 66/48/255 118/118/256 117/117/257 20/45/258
f 11/43/259 107/108/260 118/118/261 66/48/262
f 39/55/263 119/119/264 114/114/265 14/52/266
f 21/54/267 120/120/268 119/119/269 39/55/270
f 40/58/271 121/121/272 120/120/273 21/54/274
f 16/60/275 122/122/276 121/121/277 40/58/278
f 15/59/279 123/123/280 122/122/281 16/60/282
f 41/57/283 124/124/284 123/123/285 15/59/286
f 22/53/287 125/125/288 124/124/289 41/57/290
f 38/56/291 126/126/292 125/125/293 22/53/294
f 13/51/295 115/116/296 126/126/297 38/56/298
f 43/63/299 127/127/300 72/72/301 17/10/302
f 23/62/303 128/128/304 127/127/305 43/63/306
f 44/66/307 129/129/308 128/128/309 23/62/310
f 4/15/311 78/79/312 129/129/313 44/66/314
f 49/7/315 130/130/316 77/77/317 18/9/318
f 26/1/319 131/131/320 130/130/321 49/7/322
f 46/4/323 132/132/324 131/131/325 26/1/326
f 1/6/327 67/68/328 132/132/329 46/4/330
