# This file uses centimeters as units for non-parametric coordinates.
g sidewalktile
mtllib sidewalktile.mtl
v -5.103432 0.012871 5.353174
v 5.478292 0.012871 5.353174
v -5.103432 0.012871 -5.217823
v 5.478292 0.012871 -5.217823
v -5.103432 -0.124443 5.353174
v 5.478292 -0.124443 5.353174
v -5.103432 -0.124443 -5.217823
v 5.478292 -0.124443 -5.217823
vt 2.455923 1.621453
vt 2.417787 1.580036
vt 0.174555 1.579842
vt 2.466196 -0.665656
vt 2.437994 1.579838
vt 2.437484 -0.665670
vt 2.455907 1.592734
vt 2.567975 -0.665666
vt 2.567985 1.577565
vt 2.539243 1.577566
vt 2.539233 -0.665666
vt 2.517121 -0.665666
vt 2.517121 1.579842
vt 2.488379 1.579842
vt 2.488379 -0.665666
vt 0.212675 1.593037
vt 0.212691 1.621755
vt 2.417981 -0.665472
vt 2.466706 1.579852
vt 0.174750 -0.665666
vn 0.000000 1.000000 0.000000
vn 0.000000 1.000000 0.000000
vn 0.000000 1.000000 0.000000
vn 0.000000 1.000000 0.000000
vn 0.000000 0.000000 1.000000
vn 0.000000 0.000000 1.000000
vn 0.000000 0.000000 1.000000
vn 0.000000 0.000000 1.000000
vn -1.000000 0.000000 0.000000
vn -1.000000 0.000000 0.000000
vn -1.000000 0.000000 0.000000
vn -1.000000 0.000000 0.000000
vn 1.000000 0.000000 0.000000
vn 1.000000 0.000000 0.000000
vn 1.000000 0.000000 0.000000
vn 1.000000 0.000000 0.000000
vn 0.000000 0.000000 -1.000000
vn 0.000000 0.000000 -1.000000
vn 0.000000 0.000000 -1.000000
vn 0.000000 0.000000 -1.000000
s off
usemtl initialShadingGroup
f 1/18/1 2/2/2 4/3/3 3/20/4
f 2/12/5 1/13/6 5/14/7 6/15/8
f 1/1/9 3/17/10 7/16/11 5/7/12
f 4/8/13 2/9/14 6/10/15 8/11/16
f 3/4/17 4/19/18 8/5/19 7/6/20
