# This file uses centimeters as units for non-parametric coordinates.

mtllib blankHeadstone.mtl
v -0.050800 -0.228600 0.165100
v -0.050800 -0.228600 -0.165100
v 0.050800 -0.228600 0.165100
v 0.050800 -0.228600 -0.165100
v 0.050800 0.219815 -0.089195
v -0.050800 0.219815 -0.089195
v 0.050800 0.222971 -0.071522
v -0.050800 0.222971 -0.071522
v 0.050800 0.206223 -0.141283
v -0.050800 0.206223 -0.141283
v 0.050800 0.211435 -0.124103
v -0.050800 0.211435 -0.124103
v -0.050800 0.197658 -0.165100
v 0.050800 0.197658 -0.165100
v 0.050800 0.200341 -0.158245
v -0.050800 0.200341 -0.158245
v 0.050800 0.215968 -0.106731
v -0.050800 0.215968 -0.106731
v 0.050800 0.227191 0.035871
v -0.050800 0.227191 0.035871
v 0.050800 0.225431 0.053737
v -0.050800 0.225431 0.053737
v 0.050800 0.227191 -0.035871
v -0.050800 0.227191 -0.035872
v 0.050800 0.228248 0.017949
v -0.050800 0.228248 0.017949
v 0.050800 0.228600 0.000000
v -0.050800 0.228600 0.000000
v 0.050800 0.225431 -0.053738
v -0.050800 0.225431 -0.053738
v 0.050800 0.228248 -0.017950
v -0.050800 0.228248 -0.017950
v 0.050800 0.222971 0.071521
v -0.050800 0.222971 0.071521
v 0.050800 0.219815 0.089194
v -0.050800 0.219815 0.089194
v 0.050800 0.215968 0.106730
v -0.050800 0.215968 0.106730
v 0.050800 0.211435 0.124102
v -0.050800 0.211435 0.124102
v 0.050800 0.206223 0.141282
v -0.050800 0.206223 0.141282
v 0.050800 0.200341 0.158244
v -0.050800 0.200341 0.158244
v 0.050800 0.197658 0.165100
v -0.050800 0.197658 0.165100
vt 0.938627 0.411670
vt 0.938620 0.885834
vt 0.930994 0.888819
vt 0.912125 0.895362
vt 0.893014 0.901159
vt 0.873690 0.906201
vt 0.854183 0.910480
vt 0.834523 0.913991
vt 0.814741 0.916727
vt 0.794867 0.918684
vt 0.774930 0.919860
vt 0.754964 0.920251
vt 0.734997 0.919859
vt 0.715061 0.918683
vt 0.695187 0.916725
vt 0.675404 0.913988
vt 0.655745 0.910477
vt 0.636238 0.906198
vt 0.616914 0.901155
vt 0.597803 0.895357
vt 0.578935 0.888813
vt 0.571309 0.885829
vt 0.571317 0.411664
vt 0.989722 0.091580
vt 0.636724 0.091580
vt 0.636724 0.007442
vt 0.989722 0.007442
vt 0.437816 0.416273
vt 0.437990 0.887431
vt 0.430414 0.890399
vt 0.411668 0.896908
vt 0.392680 0.902676
vt 0.373480 0.907694
vt 0.354098 0.911953
vt 0.334565 0.915448
vt 0.314909 0.918175
vt 0.295161 0.920128
vt 0.275352 0.921303
vt 0.255512 0.921700
vt 0.235672 0.921318
vt 0.215862 0.920157
vt 0.196113 0.918219
vt 0.176455 0.915507
vt 0.156919 0.912026
vt 0.137534 0.907780
vt 0.118330 0.902777
vt 0.099339 0.897023
vt 0.080587 0.890528
vt 0.073008 0.887566
vt 0.072835 0.416408
vt 0.010277 0.007442
vt 0.363275 0.007442
vt 0.363275 0.091580
vt 0.010277 0.091580
vt 0.362594 0.193940
vt 0.362594 0.109382
vt 0.637406 0.109382
vt 0.637406 0.193940
vt 0.485136 0.091580
vt 0.470294 0.091580
vt 0.470294 0.007442
vt 0.485136 0.007442
vt 0.602773 0.091580
vt 0.588387 0.091580
vt 0.588387 0.007442
vt 0.602773 0.007442
vt 0.383000 0.091580
vt 0.368953 0.091580
vt 0.368953 0.007442
vt 0.383000 0.007442
vt 0.573865 0.091580
vt 0.573865 0.007442
vt 0.544502 0.091580
vt 0.529706 0.091580
vt 0.529706 0.007442
vt 0.544502 0.007442
vt 0.617000 0.091580
vt 0.617000 0.007442
vt 0.559229 0.091580
vt 0.559229 0.007442
vt 0.411613 0.091580
vt 0.397227 0.091580
vt 0.397227 0.007442
vt 0.411613 0.007442
vt 0.500000 0.091580
vt 0.500000 0.007442
vt 0.455498 0.091580
vt 0.440771 0.091580
vt 0.440771 0.007442
vt 0.455498 0.007442
vt 0.631047 0.091580
vt 0.631047 0.007442
vt 0.514864 0.091580
vt 0.514864 0.007442
vt 0.426135 0.091580
vt 0.426135 0.007442
vn -1.000000 0.000000 0.000000
vn -1.000000 0.000000 0.000000
vn -1.000000 0.000000 0.000000
vn -1.000000 0.000000 0.000000
vn -1.000000 0.000000 0.000000
vn -1.000000 0.000000 0.000000
vn -1.000000 0.000000 0.000000
vn -1.000000 0.000000 0.000000
vn -1.000000 0.000000 0.000000
vn -1.000000 0.000000 0.000000
vn -1.000000 0.000000 0.000000
vn -1.000000 0.000000 0.000000
vn -1.000000 0.000000 0.000000
vn -1.000000 0.000000 0.000000
vn -1.000000 0.000000 0.000000
vn -1.000000 0.000000 0.000000
vn -1.000000 0.000000 0.000000
vn -1.000000 0.000000 0.000000
vn -1.000000 0.000000 0.000000
vn -1.000000 0.000000 0.000000
vn -1.000000 0.000000 0.000000
vn -1.000000 0.000000 0.000000
vn -1.000000 0.000000 0.000000
vn 0.000000 0.000000 -1.000000
vn 0.000000 0.000000 -1.000000
vn 0.000000 0.000000 -1.000000
vn 0.000000 0.000000 -1.000000
vn 1.000000 0.000000 0.000000
vn 1.000000 0.000000 0.000000
vn 1.000000 0.000000 0.000000
vn 1.000000 0.000000 0.000000
vn 1.000000 0.000000 0.000000
vn 1.000000 0.000000 0.000000
vn 1.000000 0.000000 0.000000
vn 1.000000 0.000000 0.000000
vn 1.000000 0.000000 0.000000
vn 1.000000 0.000000 0.000000
vn 1.000000 0.000000 0.000000
vn 1.000000 0.000000 0.000000
vn 1.000000 0.000000 0.000000
vn 1.000000 0.000000 0.000000
vn 1.000000 0.000000 0.000000
vn 1.000000 0.000000 0.000000
vn 1.000000 0.000000 0.000000
vn 1.000000 0.000000 0.000000
vn 1.000000 0.000000 0.000000
vn 1.000000 0.000000 0.000000
vn 1.000000 0.000000 0.000000
vn 1.000000 0.000000 0.000000
vn 1.000000 0.000000 0.000000
vn 0.000000 0.000000 1.000000
vn 0.000000 0.000000 1.000000
vn 0.000000 0.000000 1.000000
vn 0.000000 0.000000 1.000000
vn 0.000000 -1.000000 0.000000
vn 0.000000 -1.000000 0.000000
vn 0.000000 -1.000000 0.000000
vn 0.000000 -1.000000 0.000000
vn 0.000000 0.998264 0.058898
vn 0.000000 0.998264 0.058898
vn 0.000000 0.998264 0.058898
vn 0.000000 0.998264 0.058898
vn 0.000000 0.967597 -0.252499
vn 0.000000 0.967597 -0.252499
vn 0.000000 0.967597 -0.252499
vn 0.000000 0.967597 -0.252499
vn 0.000000 0.944815 0.327605
vn 0.000000 0.944815 0.327605
vn 0.000000 0.944815 0.327605
vn 0.000000 0.944815 0.327605
vn 0.000000 0.976769 -0.214293
vn 0.000000 0.976769 -0.214293
vn 0.000000 0.976769 -0.214293
vn 0.000000 0.976769 -0.214293
vn 0.000000 0.995187 -0.097999
vn 0.000000 0.995187 -0.097999
vn 0.000000 0.995187 -0.097999
vn 0.000000 0.995187 -0.097999
vn 0.000000 0.956933 -0.290310
vn 0.000000 0.956933 -0.290310
vn 0.000000 0.956933 -0.290310
vn 0.000000 0.956933 -0.290310
vn 0.000000 0.990572 -0.136996
vn 0.000000 0.990572 -0.136996
vn 0.000000 0.990572 -0.136996
vn 0.000000 0.990572 -0.136996
vn 0.000000 0.931203 0.364501
vn 0.000000 0.931203 0.364501
vn 0.000000 0.931203 0.364501
vn 0.000000 0.931203 0.364501
vn 0.000000 0.967597 0.252499
vn 0.000000 0.967597 0.252499
vn 0.000000 0.967597 0.252499
vn 0.000000 0.967597 0.252499
vn 0.000000 0.999808 0.019600
vn 0.000000 0.999808 0.019600
vn 0.000000 0.999808 0.019600
vn 0.000000 0.999808 0.019600
vn 0.000000 0.990572 0.136996
vn 0.000000 0.990572 0.136996
vn 0.000000 0.990572 0.136996
vn 0.000000 0.990572 0.136996
vn 0.000000 0.944815 -0.327605
vn 0.000000 0.944815 -0.327605
vn 0.000000 0.944815 -0.327605
vn 0.000000 0.944815 -0.327605
vn 0.000000 0.995187 0.097999
vn 0.000000 0.995187 0.097999
vn 0.000000 0.995187 0.097999
vn 0.000000 0.995187 0.097999
vn 0.000000 0.931203 -0.364501
vn 0.000000 0.931203 -0.364501
vn 0.000000 0.931203 -0.364501
vn 0.000000 0.931203 -0.364501
vn 0.000000 0.999808 -0.019600
vn 0.000000 0.999808 -0.019600
vn 0.000000 0.999808 -0.019600
vn 0.000000 0.999808 -0.019600
vn 0.000000 0.976769 0.214293
vn 0.000000 0.976769 0.214293
vn 0.000000 0.976769 0.214293
vn 0.000000 0.976769 0.214293
vn 0.000000 0.956933 0.290310
vn 0.000000 0.956933 0.290310
vn 0.000000 0.956933 0.290310
vn 0.000000 0.956933 0.290310
vn 0.000000 0.984425 0.175804
vn 0.000000 0.984425 0.175804
vn 0.000000 0.984425 0.175804
vn 0.000000 0.984425 0.175804
vn 0.000000 0.998264 -0.058898
vn 0.000000 0.998264 -0.058898
vn 0.000000 0.998264 -0.058898
vn 0.000000 0.998264 -0.058898
vn 0.000000 0.984425 -0.175804
vn 0.000000 0.984425 -0.175804
vn 0.000000 0.984425 -0.175804
vn 0.000000 0.984425 -0.175804
g Cube_Cube.001_Material.001
s off
usemtl initialShadingGroup
f 1/1/1 46/2/2 44/3/3 42/4/4 40/5/5 38/6/6 36/7/7 34/8/8 22/9/9 20/10/10 26/11/11 28/12/12 32/13/13 24/14/14 30/15/15 8/16/16 6/17/17 18/18/18 12/19/19 10/20/20 16/21/21 13/22/22 2/23/23
f 2/24/24 13/25/25 14/26/26 4/27/27
f 4/28/28 14/29/29 15/30/30 9/31/31 11/32/32 17/33/33 5/34/34 7/35/35 29/36/36 23/37/37 31/38/38 27/39/39 25/40/40 19/41/41 21/42/42 33/43/43 35/44/44 37/45/45 39/46/46 41/47/47 43/48/48 45/49/49 3/50/50
f 3/51/51 45/52/52 46/53/53 1/54/54
f 2/55/55 4/56/56 3/57/57 1/58/58
f 26/59/59 20/60/60 19/61/61 25/62/62
f 12/63/63 18/64/64 17/65/65 11/66/66
f 42/67/67 44/68/68 43/69/69 41/70/70
f 18/64/71 6/71/72 5/72/73 17/65/74
f 30/73/75 24/74/76 23/75/77 29/76/78
f 10/77/79 12/63/80 11/66/81 9/78/82
f 8/79/83 30/73/84 29/76/85 7/80/86
f 44/68/87 46/53/88 45/52/89 43/69/90
f 38/81/91 40/82/92 39/83/93 37/84/94
f 28/85/95 26/59/96 25/62/97 27/86/98
f 22/87/99 34/88/100 33/89/101 21/90/102
f 16/91/103 10/77/104 9/78/105 15/92/106
f 20/60/107 22/87/108 21/90/109 19/61/110
f 15/92/111 14/26/112 13/25/113 16/91/114
f 32/93/115 28/85/116 27/86/117 31/94/118
f 36/95/119 38/81/120 37/84/121 35/96/122
f 40/82/123 42/67/124 41/70/125 39/83/126
f 34/88/127 36/95/128 35/96/129 33/89/130
f 24/74/131 32/93/132 31/94/133 23/75/134
f 6/71/135 8/79/136 7/80/137 5/72/138
