# Blender v4.1.0 OBJ File: ''
# www.blender.org
mtllib monumentsign3_processed.mtl
o Cube.003
v -0.551809 6.250412 -1.455401
v -0.638365 6.225555 -1.455401
v -0.638365 6.225555 1.455400
v -0.551809 6.250412 1.455400
v 0.661108 2.026970 1.455401
v 0.574552 2.002112 1.455401
v -0.629796 6.195718 1.434837
v 0.565984 2.031950 1.434837
v 0.574552 2.002112 -1.455401
v 0.661108 2.026970 -1.455401
v -0.524907 6.156736 -1.357939
v -0.524907 6.156736 1.357938
v -0.574479 6.142500 1.357938
v -0.574479 6.142500 -1.357939
v 0.634205 2.120646 -1.357938
v 0.634205 2.120646 1.357938
v 0.584633 2.106410 -1.357938
v 0.584633 2.106410 1.357938
v -0.629796 6.195718 -1.434837
v 0.565984 2.031950 -1.434837
v 0.334817 2.117212 -1.338283
v -0.780494 6.000789 -1.338283
v 0.334817 2.117212 1.338282
v -0.780494 6.000789 1.338282
v -0.466062 4.677784 -0.191434
v -0.427984 4.677784 -0.195185
v -0.389905 4.677784 -0.191434
v -0.353290 4.677784 -0.180327
v -0.319545 4.677784 -0.162290
v -0.289967 4.677784 -0.138017
v -0.265693 4.677784 -0.108439
v -0.247656 4.677784 -0.074694
v -0.236549 4.677784 -0.038079
v -0.232799 4.677784 -0.000000
v -0.236549 4.677784 0.038079
v -0.247656 4.677784 0.074694
v -0.265693 4.677784 0.108439
v -0.289967 4.677784 0.138016
v -0.319545 4.677784 0.162290
v -0.353290 4.677784 0.180327
v -0.389905 4.677784 0.191434
v -0.427984 4.677784 0.195185
v -0.466062 4.677784 0.191434
v -0.502678 4.677784 0.180327
v -0.536422 4.677784 0.162290
v -0.566000 4.677784 0.138016
v -0.590274 4.677784 0.108439
v -0.608311 4.677784 0.074694
v -0.619418 4.677784 0.038079
v -0.623168 4.677784 -0.000000
v -0.619418 4.677784 -0.038079
v -0.608311 4.677784 -0.074694
v -0.590274 4.677784 -0.108439
v -0.566000 4.677784 -0.138017
v -0.536422 4.677784 -0.162290
v -0.502678 4.677784 -0.180327
v -0.466062 -0.000000 -0.191434
v -0.502678 -0.000000 -0.180327
v -0.536422 -0.000000 -0.162290
v -0.566000 -0.000000 -0.138017
v -0.590274 -0.000000 -0.108439
v -0.608311 -0.000000 -0.074694
v -0.619418 -0.000000 -0.038079
v -0.623168 0.000000 0.000000
v -0.619418 0.000000 0.038079
v -0.608311 0.000000 0.074694
v -0.590274 0.000000 0.108439
v -0.566000 0.000000 0.138016
v -0.536422 0.000000 0.162290
v -0.502678 0.000000 0.180327
v -0.466062 0.000000 0.191434
v -0.427984 0.000000 0.195185
v -0.389905 0.000000 0.191434
v -0.353290 0.000000 0.180327
v -0.319545 0.000000 0.162290
v -0.289967 0.000000 0.138016
v -0.265693 0.000000 0.108439
v -0.247656 0.000000 0.074694
v -0.236549 0.000000 0.038079
v -0.232799 0.000000 0.000000
v -0.236549 -0.000000 -0.038079
v -0.247656 -0.000000 -0.074694
v -0.265693 -0.000000 -0.108439
v -0.289967 -0.000000 -0.138017
v -0.319545 -0.000000 -0.162290
v -0.353290 -0.000000 -0.180327
v -0.389905 -0.000000 -0.191434
v -0.427984 -0.000000 -0.195185
v -0.544341 4.832220 0.074694
v -0.531587 4.819466 0.108439
v -0.493508 4.781387 -0.162290
v -0.514423 4.802302 -0.138016
v -0.514423 4.802302 0.138016
v -0.531587 4.819466 -0.108439
v -0.493508 4.781387 0.162290
v -0.544341 4.832220 -0.074694
v -0.469647 4.757526 0.180327
v -0.552195 4.840074 -0.038079
v -0.443756 4.731635 0.191434
v -0.554847 4.842726 -0.000000
v -0.416831 4.704710 -0.195185
v -0.443756 4.731635 -0.191434
v -0.416831 4.704710 0.195185
v -0.552195 4.840074 0.038079
v -0.469647 4.757526 -0.180327
v -0.389905 4.677784 0.191434
v -0.389905 4.677784 -0.191434
v -0.389905 4.790556 0.180327
v -0.389905 4.753941 0.191434
v -0.389905 4.907297 -0.038079
v -0.389905 4.911047 -0.000000
v -0.389905 4.715862 -0.195185
v -0.389905 4.753941 -0.191434
v -0.389905 4.715862 0.195185
v -0.389905 4.907297 0.038079
v -0.389905 4.790556 -0.180327
v -0.389905 4.677784 0.191434
v -0.389905 4.896190 0.074694
v -0.389905 4.824301 -0.162290
v -0.389905 4.677784 -0.191434
v -0.389905 4.878153 0.108439
v -0.389905 4.853879 -0.138016
v -0.389905 4.853879 0.138016
v -0.389905 4.878153 -0.108439
v -0.389905 4.824301 0.162290
v -0.389905 4.896190 -0.074694
v -0.567901 6.119596 1.260076
v -0.554985 6.074620 1.233060
v -0.542068 6.029644 1.260076
v -0.542068 6.029644 1.314108
v -0.554985 6.074620 1.341125
v -0.567901 6.119596 1.314108
v -0.546641 6.125702 1.260076
v -0.546641 6.125702 1.314108
v -0.533724 6.080726 1.341125
v -0.520807 6.035750 1.314108
v -0.520807 6.035750 1.260076
v -0.533724 6.080726 1.233060
v -0.567461 6.118063 -1.301983
v -0.554544 6.073087 -1.328998
v -0.541628 6.028111 -1.301983
v -0.541628 6.028111 -1.247949
v -0.554544 6.073087 -1.220932
v -0.567461 6.118063 -1.247949
v -0.546200 6.124169 -1.301983
v -0.546200 6.124169 -1.247949
v -0.533284 6.079193 -1.220932
v -0.520367 6.034216 -1.247949
v -0.520367 6.034216 -1.301983
v -0.533284 6.079193 -1.328998
v 0.542778 2.252153 1.237632
v 0.555694 2.207177 1.210616
v 0.568611 2.162201 1.237632
v 0.568611 2.162201 1.291666
v 0.555694 2.207177 1.318682
v 0.542778 2.252153 1.291666
v 0.564038 2.258259 1.237632
v 0.564038 2.258259 1.291666
v 0.576955 2.213283 1.318682
v 0.589871 2.168307 1.291666
v 0.589871 2.168307 1.237632
v 0.576955 2.213283 1.210616
v 0.544984 2.244471 -1.296606
v 0.557900 2.199495 -1.323622
v 0.570817 2.154519 -1.296606
v 0.570817 2.154519 -1.242572
v 0.557900 2.199495 -1.215556
v 0.544984 2.244471 -1.242572
v 0.566244 2.250577 -1.296606
v 0.566244 2.250577 -1.242572
v 0.579161 2.205601 -1.215556
v 0.592078 2.160625 -1.242572
v 0.592078 2.160625 -1.296606
v 0.579161 2.205601 -1.323622
vt 0.700213 0.861184
vt 0.709318 0.847584
vt 0.987773 0.847629
vt 0.999958 0.866134
vt 0.999958 0.162246
vt 0.990853 0.175846
vt 0.985490 0.842113
vt 0.988241 0.180760
vt 0.712398 0.175801
vt 0.700213 0.157297
vt 0.404024 0.930655
vt 0.088680 0.921892
vt 0.095413 0.906572
vt 0.401165 0.926415
vt 0.437012 0.015651
vt 0.447658 0.000145
vt 0.412094 0.945776
vt 0.050052 0.017863
vt 0.075324 0.942513
vt 0.039082 0.000093
vt 0.433018 0.021658
vt 0.086113 0.924342
vt 0.053309 0.021628
vt 0.053959 0.021858
vt 0.490348 0.264115
vt 0.700142 0.264115
vt 0.693083 0.280923
vt 0.497406 0.280923
vt 0.714680 0.181317
vt 0.711929 0.842670
vt 0.693083 0.746869
vt 0.497406 0.746869
vt 0.700142 0.763677
vt 0.490348 0.763677
vt 0.526811 0.989821
vt 0.524505 0.989854
vt 0.522028 0.990178
vt 0.520486 0.989506
vt 0.519431 0.989018
vt 0.518630 0.988612
vt 0.518328 0.988243
vt 0.518214 0.987959
vt 0.519271 0.987581
vt 0.520512 0.987297
vt 0.522082 0.987073
vt 0.523754 0.986944
vt 0.525654 0.986860
vt 0.527574 0.986873
vt 0.529470 0.986928
vt 0.531310 0.987081
vt 0.531369 0.987416
vt 0.534540 0.987397
vt 0.537165 0.987479
vt 0.539452 0.987618
vt 0.541067 0.987815
vt 0.542261 0.988039
vt 0.542947 0.988283
vt 0.543138 0.988535
vt 0.542715 0.988787
vt 0.541797 0.989025
vt 0.540428 0.989242
vt 0.538653 0.989428
vt 0.536528 0.989576
vt 0.534150 0.989681
vt 0.531610 0.989737
vt 0.529008 0.989744
vt 0.497359 0.009164
vt 0.501369 0.008374
vt 0.505999 0.007542
vt 0.511320 0.006678
vt 0.517606 0.005396
vt 0.523861 0.006858
vt 0.529112 0.007797
vt 0.533857 0.008675
vt 0.536975 0.009411
vt 0.539708 0.010075
vt 0.541593 0.010724
vt 0.543138 0.011294
vt 0.542872 0.011943
vt 0.542277 0.012502
vt 0.541265 0.012980
vt 0.539880 0.013379
vt 0.535961 0.013840
vt 0.531713 0.014199
vt 0.527238 0.014451
vt 0.522653 0.014592
vt 0.517717 0.014652
vt 0.512778 0.014598
vt 0.507979 0.014441
vt 0.503295 0.014171
vt 0.500276 0.013899
vt 0.497436 0.013524
vt 0.494913 0.013056
vt 0.492805 0.012498
vt 0.492320 0.011957
vt 0.492326 0.011343
vt 0.492843 0.010657
vt 0.493764 0.009887
vt 0.523627 0.994814
vt 0.524157 0.993359
vt 0.524915 0.992037
vt 0.525880 0.990847
vt 0.527031 0.989790
vt 0.523119 0.991462
vt 0.523990 0.992880
vt 0.528342 0.988866
vt 0.524616 0.994430
vt 0.529795 0.988074
vt 0.524978 0.996113
vt 0.525051 0.997928
vt 0.524813 0.999876
vt 0.524241 1.001956
vt 0.523633 0.999973
vt 0.523342 0.998121
vt 0.523348 0.996401
vt 0.555625 0.012346
vt 0.562092 0.011136
vt 0.604138 0.014486
vt 0.596381 0.015265
vt 0.625475 0.006209
vt 0.638914 0.005854
vt 0.658420 0.009014
vt 0.650320 0.009830
vt 0.550552 0.013633
vt 0.588483 0.016059
vt 0.612702 0.006719
vt 0.642443 0.010615
vt 0.547093 0.014984
vt 0.580268 0.016884
vt 0.600514 0.007343
vt 0.634688 0.011396
vt 0.544860 0.016365
vt 0.571734 0.017746
vt 0.589146 0.008104
vt 0.627015 0.012170
vt 0.543459 0.017775
vt 0.562668 0.018648
vt 0.579017 0.009012
vt 0.619285 0.012926
vt 0.666554 0.005482
vt 0.680631 0.005411
vt 0.684846 0.006358
vt 0.675607 0.007288
vt 0.543138 0.019192
vt 0.553103 0.019610
vt 0.569916 0.010020
vt 0.611750 0.013704
vt 0.652652 0.005618
vt 0.666818 0.008169
vt 0.543138 0.020611
vt 0.543152 0.020611
vt 0.694597 0.005396
vt 0.694597 0.005398
vt 0.586330 0.020383
vt 0.571984 0.020518
vt 0.669286 0.015797
vt 0.660442 0.016837
vt 0.694476 0.006772
vt 0.694070 0.008143
vt 0.557577 0.020581
vt 0.650181 0.017744
vt 0.692940 0.009507
vt 0.543152 0.020612
vt 0.638906 0.018520
vt 0.690807 0.010855
vt 0.694606 0.005399
vt 0.626865 0.019184
vt 0.687474 0.012173
vt 0.613982 0.019716
vt 0.682816 0.013446
vt 0.600414 0.020114
vt 0.676758 0.014660
vt 0.098193 0.915834
vt 0.099570 0.907994
vt 0.095698 0.902450
vt 0.090450 0.904746
vt 0.089073 0.912585
vt 0.092945 0.918130
vt 0.098362 0.916742
vt 0.093114 0.919038
vt 0.089243 0.913494
vt 0.090619 0.905654
vt 0.095868 0.903359
vt 0.099739 0.908902
vt 0.394837 0.919908
vt 0.397348 0.913505
vt 0.394837 0.907102
vt 0.389816 0.907102
vt 0.387305 0.913505
vt 0.389816 0.919908
vt 0.394837 0.920777
vt 0.389816 0.920777
vt 0.387305 0.914374
vt 0.389816 0.907972
vt 0.394837 0.907972
vt 0.397348 0.914374
vt 0.069899 0.050798
vt 0.072183 0.042056
vt 0.068218 0.034860
vt 0.061968 0.036406
vt 0.059683 0.045149
vt 0.063649 0.052345
vt 0.070013 0.051880
vt 0.063763 0.053427
vt 0.059797 0.046231
vt 0.062082 0.037488
vt 0.068332 0.035942
vt 0.072297 0.043138
vt 0.427332 0.047001
vt 0.427439 0.037154
vt 0.421814 0.032383
vt 0.416083 0.037461
vt 0.415975 0.047308
vt 0.421600 0.052078
vt 0.427707 0.047993
vt 0.421975 0.053071
vt 0.416350 0.048300
vt 0.416457 0.038453
vt 0.422189 0.033376
vt 0.427814 0.038146
vn 0.3956 0.7143 -0.5773
vn -0.7143 0.3956 -0.5773
vn -0.7143 0.3956 0.5773
vn 0.3956 0.7143 0.5773
vn 0.7143 -0.3955 0.5773
vn -0.3956 -0.7143 0.5773
vn -0.9823 -0.1147 0.1481
vn -0.8935 -0.4240 0.1481
vn -0.3956 -0.7143 -0.5773
vn 0.7143 -0.3955 -0.5773
vn 0.9526 -0.0401 0.3015
vn 0.9526 -0.0401 -0.3015
vn 0.7143 -0.3956 -0.5773
vn 0.7143 -0.3956 0.5773
vn 0.7862 0.5395 0.3015
vn 0.7862 0.5395 -0.3015
vn 0.3956 0.7143 0.5774
vn 0.3956 0.7143 -0.5774
vn -0.9823 -0.1147 -0.1481
vn -0.8935 -0.4240 -0.1481
vn -0.6970 -0.5683 -0.4373
vn -0.8923 0.1119 -0.4373
vn -0.6970 -0.5683 0.4373
vn -0.8923 0.1119 0.4373
vn 0.0000 -1.0000 -0.0000
vn -0.1420 -0.6857 0.7139
vn -0.2785 -0.6857 0.6725
vn -0.4044 -0.6857 0.6052
vn -0.5147 -0.6857 0.5147
vn -0.6052 -0.6857 0.4044
vn -0.6725 -0.6857 0.2785
vn -0.7139 -0.6857 0.1420
vn -0.7279 -0.6857 -0.0000
vn -0.7139 -0.6857 -0.1420
vn -0.6725 -0.6857 -0.2785
vn -0.6052 -0.6857 -0.4044
vn -0.5147 -0.6857 -0.5147
vn -0.4044 -0.6857 -0.6052
vn -0.2785 -0.6857 -0.6725
vn -0.1420 -0.6857 -0.7139
vn 0.1420 0.6857 0.7139
vn 0.2785 0.6857 0.6725
vn 0.4044 0.6857 0.6052
vn 0.5147 0.6857 0.5147
vn 0.6052 0.6857 0.4044
vn 0.6725 0.6857 0.2785
vn 0.7139 0.6857 0.1420
vn 0.7279 0.6857 -0.0000
vn 0.7139 0.6857 -0.1420
vn 0.6725 0.6857 -0.2785
vn 0.6052 0.6857 -0.4044
vn 0.5147 0.6857 -0.5147
vn 0.4044 0.6857 -0.6052
vn 0.2785 0.6857 -0.6725
vn 0.1420 0.6857 -0.7139
vn 0.0000 0.6857 -0.7279
vn -0.1420 0.6857 -0.7139
vn -0.2785 0.6857 -0.6725
vn -0.4044 0.6857 -0.6052
vn -0.5147 0.6857 -0.5147
vn -0.6052 0.6857 -0.4044
vn -0.6725 0.6857 -0.2785
vn -0.7139 0.6857 -0.1420
vn -0.7279 0.6857 -0.0000
vn -0.7139 0.6857 0.1420
vn -0.6725 0.6857 0.2785
vn -0.6052 0.6857 0.4044
vn -0.5147 0.6857 0.5147
vn -0.4044 0.6857 0.6052
vn -0.2785 0.6857 0.6725
vn -0.1420 0.6857 0.7139
vn 0.0000 0.6857 0.7279
vn 0.9239 -0.0000 -0.3827
vn 0.8315 -0.0000 -0.5556
vn 0.7071 -0.0000 -0.7071
vn 0.5556 -0.0000 -0.8315
vn 0.3827 -0.0000 -0.9239
vn 0.0000 0.0000 1.0000
vn 0.1951 0.0000 0.9808
vn 0.1951 -0.0000 -0.9808
vn 0.3827 0.0000 0.9239
vn 0.0000 -0.0000 -1.0000
vn 0.5556 0.0000 0.8315
vn 0.7071 0.0000 0.7071
vn 0.8315 0.0000 0.5556
vn 0.9239 0.0000 0.3827
vn 0.9808 0.0000 0.1951
vn 1.0000 0.0000 0.0000
vn 0.9808 -0.0000 -0.1951
vn 0.7922 -0.3281 -0.5146
vn 0.8656 -0.3585 -0.3496
vn 0.6557 -0.6557 -0.3745
vn 0.5930 -0.5930 -0.5447
vn 0.6889 -0.2854 0.6663
vn 0.5565 -0.2305 0.7982
vn 0.4044 -0.4044 0.8203
vn 0.5083 -0.5083 0.6952
vn 0.6889 -0.2854 -0.6663
vn 0.5083 -0.5083 -0.6952
vn 0.7922 -0.3281 0.5146
vn 0.5930 -0.5930 0.5447
vn 0.5565 -0.2305 -0.7982
vn 0.4044 -0.4044 -0.8203
vn 0.8656 -0.3585 0.3496
vn 0.6557 -0.6557 0.3745
vn 0.3976 -0.1647 -0.9026
vn 0.2851 -0.2851 -0.9151
vn 0.9094 -0.3767 0.1766
vn 0.6941 -0.6941 0.1907
vn 0.2175 -0.0901 -0.9719
vn 0.1544 -0.1544 -0.9759
vn 0.9239 -0.3827 0.0000
vn 0.7071 -0.7071 -0.0000
vn 0.2175 -0.0901 0.9719
vn 0.0245 -0.0101 0.9996
vn 0.0173 -0.0173 0.9997
vn 0.1544 -0.1544 0.9759
vn 0.0245 -0.0101 -0.9996
vn 0.0173 -0.0173 -0.9997
vn 0.9094 -0.3767 -0.1766
vn 0.6941 -0.6941 -0.1907
vn 0.3976 -0.1647 0.9026
vn 0.2851 -0.2851 0.9151
vn -0.0980 0.0406 -0.9944
vn -0.0693 0.0693 -0.9952
vn -0.0980 0.0406 0.9944
vn -0.0693 0.0693 0.9952
vn 0.1647 -0.3976 -0.9026
vn 0.0901 -0.2175 -0.9719
vn 0.3767 -0.9094 0.1766
vn 0.3827 -0.9239 -0.0000
vn 0.0101 -0.0245 0.9996
vn 0.0901 -0.2175 0.9719
vn 0.0101 -0.0245 -0.9996
vn 0.3767 -0.9094 -0.1766
vn 0.1647 -0.3976 0.9026
vn -0.0406 0.0980 -0.9944
vn 0.3585 -0.8656 -0.3496
vn 0.2305 -0.5565 0.7982
vn -0.0406 0.0980 0.9944
vn 0.3281 -0.7922 -0.5146
vn 0.2854 -0.6889 0.6663
vn 0.2854 -0.6889 -0.6663
vn 0.3281 -0.7922 0.5146
vn 0.2305 -0.5565 -0.7982
vn 0.3585 -0.8656 0.3496
vn -0.7757 0.4912 -0.3962
vn -0.5863 -0.1684 -0.7924
vn -0.3969 -0.8280 -0.3962
vn -0.3969 -0.8280 0.3962
vn -0.5863 -0.1684 0.7924
vn -0.7757 0.4912 0.3962
vn 0.3969 0.8280 -0.3962
vn 0.3969 0.8280 0.3962
vn 0.5863 0.1684 0.7924
vn 0.7757 -0.4912 0.3962
vn 0.7757 -0.4912 -0.3962
vn 0.5863 0.1684 -0.7924
vn -0.3969 -0.8279 -0.3962
vn -0.3969 -0.8279 0.3962
usemtl Material.002
s 1
f 1/1/1 2/2/2 3/3/3 4/4/4
f 5/5/5 4/4/4 3/3/3 6/6/6
f 6/6/6 3/3/3 7/7/7 8/8/8
f 9/9/9 10/10/10 5/5/5 6/6/6
f 11/11/11 12/12/12 13/13/13 14/14/14
f 9/9/9 2/2/2 1/1/1 10/10/10
f 11/11/11 15/15/15 10/16/10 1/17/1
f 16/18/16 12/12/12 4/19/4 5/20/5
f 12/12/12 11/11/11 1/17/1 4/19/4
f 15/15/15 16/18/16 5/20/5 10/16/10
f 17/21/17 14/14/14 13/22/13 18/23/18
f 15/15/15 11/11/11 14/14/14 17/21/17
f 16/18/16 15/15/15 17/21/17 18/24/18
f 12/12/12 16/18/16 18/24/18 13/13/13
f 19/25/19 20/26/20 21/27/21 22/28/22
f 9/9/9 6/6/6 8/8/8 20/29/20
f 3/3/3 2/2/2 19/30/19 7/7/7
f 2/2/2 9/9/9 20/29/20 19/30/19
f 23/31/23 24/32/24 22/28/22 21/27/21
f 20/26/20 8/33/8 23/31/23 21/27/21
f 7/34/7 19/25/19 22/28/22 24/32/24
f 8/33/8 7/34/7 24/32/24 23/31/23
f 25/35/25 26/36/25 27/37/26 28/38/27 29/39/28 30/40/29 31/41/30 32/42/31 33/43/32 34/44/33 35/45/34 36/46/35 37/47/36 38/48/37 39/49/38 40/50/39 41/51/40 42/52/25 43/53/25 44/54/25 45/55/25 46/56/25 47/57/25 48/58/25 49/59/25 50/60/25 51/61/25 52/62/25 53/63/25 54/64/25 55/65/25 56/66/25
f 57/67/41 58/68/42 59/69/43 60/70/44 61/71/45 62/72/46 63/73/47 64/74/48 65/75/49 66/76/50 67/77/51 68/78/52 69/79/53 70/80/54 71/81/55 72/82/56 73/83/57 74/84/58 75/85/59 76/86/60 77/87/61 78/88/62 79/89/63 80/90/64 81/91/65 82/92/66 83/93/67 84/94/68 85/95/69 86/96/70 87/97/71 88/98/72
f 35/45/34 34/44/33 80/90/64 79/89/63
f 48/99/73 47/100/74 67/77/51 66/76/50
f 34/44/33 33/43/32 81/91/65 80/90/64
f 47/100/74 46/101/75 68/78/52 67/77/51
f 33/43/32 32/42/31 82/92/66 81/91/65
f 46/101/75 45/102/76 69/79/53 68/78/52
f 32/42/31 31/41/30 83/93/67 82/92/66
f 45/102/76 44/103/77 70/80/54 69/79/53
f 26/104/78 25/105/79 57/67/41 88/98/72
f 31/41/30 30/40/29 84/94/68 83/93/67
f 44/103/77 43/106/80 71/81/55 70/80/54
f 25/105/79 56/107/81 58/68/42 57/67/41
f 30/40/29 29/39/28 85/95/69 84/94/68
f 43/106/80 42/108/82 72/82/56 71/81/55
f 56/107/81 55/109/83 59/69/43 58/68/42
f 29/39/28 28/38/27 86/96/70 85/95/69
f 42/108/82 41/51/40 73/83/57 72/82/56
f 55/109/83 54/110/84 60/70/44 59/69/43
f 28/38/27 27/37/26 87/97/71 86/96/70
f 41/51/40 40/50/39 74/84/58 73/83/57
f 54/110/84 53/111/85 61/71/45 60/70/44
f 27/37/26 26/104/78 88/98/72 87/97/71
f 40/50/39 39/49/38 75/85/59 74/84/58
f 53/111/85 52/112/86 62/72/46 61/71/45
f 39/49/38 38/48/37 76/86/60 75/85/59
f 52/112/86 51/113/87 63/73/47 62/72/46
f 38/48/37 37/47/36 77/87/61 76/86/60
f 51/113/87 50/114/88 64/74/48 63/73/47
f 37/47/36 36/46/35 78/88/62 77/87/61
f 50/114/88 49/115/89 65/75/49 64/74/48
f 36/46/35 35/45/34 79/89/63 78/88/62
f 49/115/89 48/99/73 66/76/50 65/75/49
f 47/116/90 48/117/91 89/118/92 90/119/93
f 54/120/94 55/121/95 91/122/96 92/123/97
f 46/124/98 47/116/90 90/119/93 93/125/99
f 53/126/100 54/120/94 92/123/97 94/127/101
f 45/128/102 46/124/98 93/125/99 95/129/103
f 52/130/104 53/126/100 94/127/101 96/131/105
f 44/132/106 45/128/102 95/129/103 97/133/107
f 51/134/108 52/130/104 96/131/105 98/135/109
f 43/136/110 44/132/106 97/133/107 99/137/111
f 50/138/112 51/134/108 98/135/109 100/139/113
f 25/140/114 26/141/115 101/142/116 102/143/117
f 42/144/118 43/136/110 99/137/111 103/145/119
f 49/146/120 50/138/112 100/139/113 104/147/121
f 56/148/122 25/140/114 102/143/117 105/149/123
f 41/150/124 42/144/118 103/145/119 106/151/125
f 26/141/115 27/152/126 107/153/127 101/142/116
f 48/117/91 49/146/120 104/147/121 89/118/92
f 55/121/95 56/148/122 105/149/123 91/122/96
f 99/137/111 97/133/107 108/154/128 109/155/129
f 100/139/113 98/135/109 110/156/130 111/157/131
f 102/143/117 101/142/116 112/158/132 113/159/133
f 103/145/119 99/137/111 109/155/129 114/160/134
f 104/147/121 100/139/113 111/157/131 115/161/135
f 105/149/123 102/143/117 113/159/133 116/162/136
f 106/151/125 103/145/119 114/160/134 117/163/137
f 89/118/92 104/147/121 115/161/135 118/164/138
f 91/122/96 105/149/123 116/162/136 119/165/139
f 101/142/116 107/153/127 120/166/140 112/158/132
f 90/119/93 89/118/92 118/164/138 121/167/141
f 92/123/97 91/122/96 119/165/139 122/168/142
f 93/125/99 90/119/93 121/167/141 123/169/143
f 94/127/101 92/123/97 122/168/142 124/170/144
f 95/129/103 93/125/99 123/169/143 125/171/145
f 96/131/105 94/127/101 124/170/144 126/172/146
f 97/133/107 95/129/103 125/171/145 108/154/128
f 98/135/109 96/131/105 126/172/146 110/156/130
f 127/173/147 128/174/148 129/175/149 130/176/150 131/177/151 132/178/152
f 133/179/153 134/180/154 135/181/155 136/182/156 137/183/157 138/184/158
f 129/175/149 128/174/148 138/184/158 137/183/157
f 131/177/151 130/176/150 136/182/156 135/181/155
f 127/173/147 132/178/152 134/180/154 133/179/153
f 130/176/150 129/175/149 137/183/157 136/182/156
f 132/178/152 131/177/151 135/181/155 134/180/154
f 128/174/148 127/173/147 133/179/153 138/184/158
f 139/185/147 140/186/148 141/187/159 142/188/160 143/189/151 144/190/152
f 145/191/153 146/192/154 147/193/155 148/194/156 149/195/157 150/196/158
f 141/187/159 140/186/148 150/196/158 149/195/157
f 143/189/151 142/188/160 148/194/156 147/193/155
f 139/185/147 144/190/152 146/192/154 145/191/153
f 142/188/160 141/187/159 149/195/157 148/194/156
f 144/190/152 143/189/151 147/193/155 146/192/154
f 140/186/148 139/185/147 145/191/153 150/196/158
f 151/197/147 152/198/148 153/199/149 154/200/150 155/201/151 156/202/152
f 157/203/153 158/204/154 159/205/155 160/206/156 161/207/157 162/208/158
f 153/199/149 152/198/148 162/208/158 161/207/157
f 155/201/151 154/200/150 160/206/156 159/205/155
f 151/197/147 156/202/152 158/204/154 157/203/153
f 154/200/150 153/199/149 161/207/157 160/206/156
f 156/202/152 155/201/151 159/205/155 158/204/154
f 152/198/148 151/197/147 157/203/153 162/208/158
f 163/209/147 164/210/148 165/211/149 166/212/150 167/213/151 168/214/152
f 169/215/153 170/216/154 171/217/155 172/218/156 173/219/157 174/220/158
f 165/211/149 164/210/148 174/220/158 173/219/157
f 167/213/151 166/212/150 172/218/156 171/217/155
f 163/209/147 168/214/152 170/216/154 169/215/153
f 166/212/150 165/211/149 173/219/157 172/218/156
f 168/214/152 167/213/151 171/217/155 170/216/154
f 164/210/148 163/209/147 169/215/153 174/220/158
