# This file uses centimeters as units for non-parametric coordinates.
mtllib Part Studio 1 - Part 1.mtl
g Part 1
usemtl 0.615686_0.811765_0.929412_0.000000_0.000000
v 1.524000 -1.524000 0.279400
v 1.524000 -1.524000 0.000000
v 1.524000 1.524000 0.000000
v 1.524000 1.524000 0.279400
v -1.524000 1.524000 0.000000
v 1.524000 1.524000 0.000000
v 1.524000 -1.524000 0.000000
v -1.524000 -1.524000 0.000000
v 1.524000 1.524000 0.279400
v 1.524000 1.524000 0.000000
v -1.524000 1.524000 0.000000
v -1.524000 1.524000 0.279400
v -1.524000 1.524000 0.279400
v -1.524000 1.524000 0.000000
v -1.524000 -1.524000 0.000000
v -1.524000 -1.524000 0.279400
v -1.524000 -1.524000 0.279400
v -1.524000 -1.524000 0.000000
v 1.524000 -1.524000 0.000000
v 1.524000 -1.524000 0.279400
v 1.524000 -1.524000 0.279400
v 1.524000 1.524000 0.279400
v 0.000151 0.000151 1.558060
v 0.000151 -0.000151 1.558060
v 1.524000 1.524000 0.279400
v -1.524000 1.524000 0.279400
v -0.000151 0.000151 1.558060
v 0.000151 0.000151 1.558060
v -1.524000 1.524000 0.279400
v -1.524000 -1.524000 0.279400
v -0.000151 -0.000151 1.558060
v -0.000151 0.000151 1.558060
v -1.524000 -1.524000 0.279400
v 1.524000 -1.524000 0.279400
v 0.000151 -0.000151 1.558060
v -0.000151 -0.000151 1.558060
v -0.000151 -0.000151 1.558060
v 0.000151 -0.000151 1.558060
v 0.000151 0.000151 1.558060
v -0.000151 0.000151 1.558060
vt 0.908988 0.848288
vt 0.816989 0.848295
vt 0.816905 -0.155326
vt 0.908904 -0.155334
vt 0.705582 0.854943
vt 0.705574 0.946942
vt -0.298047 0.946856
vt -0.298040 0.854858
vt 0.920622 -0.155334
vt 1.012620 -0.155334
vt 1.012620 0.848288
vt 0.920622 0.848288
vt -0.161045 1.106519
vt 1.111355 1.087791
vt 0.487441 1.927571
vt 0.487315 1.927573
vt -0.160298 1.102906
vt 1.112171 1.089783
vt 0.484564 1.926808
vt 0.484437 1.926808
vt -0.167911 1.114370
vt 1.103278 1.055814
vt 0.505963 1.914717
vt 0.505838 1.914723
vt 0.475069 1.507657
vt 0.475179 1.507596
vt 0.475240 1.507706
vt 0.475130 1.507767
vt 0.805187 0.848299
vt 0.713188 0.848287
vt 0.713316 -0.155334
vt 0.805315 -0.155322
vt -0.160600 1.101222
vt 1.110909 1.050096
vt 0.508584 1.905493
vt 0.508459 1.905498
vt -0.298047 0.848288
vt -0.297875 -0.155334
vt 0.705746 -0.155161
vt 0.705574 0.848460
vn 1.000000 0.000000 0.000000
vn 1.000000 0.000000 0.000000
vn 1.000000 0.000000 0.000000
vn 1.000000 0.000000 0.000000
vn 1.000000 0.000000 0.000000
vn 1.000000 0.000000 0.000000
vn 0.000000 0.000000 -1.000000
vn 0.000000 0.000000 -1.000000
vn 0.000000 0.000000 -1.000000
vn 0.000000 0.000000 -1.000000
vn 0.000000 0.000000 -1.000000
vn 0.000000 0.000000 -1.000000
vn 0.000000 1.000000 0.000000
vn 0.000000 1.000000 0.000000
vn 0.000000 1.000000 0.000000
vn 0.000000 1.000000 0.000000
vn 0.000000 1.000000 0.000000
vn 0.000000 1.000000 0.000000
vn -1.000000 0.000000 0.000000
vn -1.000000 0.000000 0.000000
vn -1.000000 0.000000 0.000000
vn -1.000000 0.000000 0.000000
vn -1.000000 0.000000 0.000000
vn -1.000000 0.000000 0.000000
vn 0.000000 -1.000000 0.000000
vn 0.000000 -1.000000 0.000000
vn 0.000000 -1.000000 0.000000
vn 0.000000 -1.000000 0.000000
vn 0.000000 -1.000000 0.000000
vn 0.000000 -1.000000 0.000000
vn 0.642788 0.000000 0.766044
vn 0.642788 0.000000 0.766044
vn 0.642788 0.000000 0.766044
vn 0.642788 0.000000 0.766044
vn 0.642788 0.000000 0.766044
vn 0.642788 0.000000 0.766044
vn 0.000000 0.642788 0.766044
vn 0.000000 0.642788 0.766044
vn 0.000000 0.642788 0.766044
vn 0.000000 0.642788 0.766044
vn 0.000000 0.642788 0.766044
vn 0.000000 0.642788 0.766044
vn -0.642788 0.000000 0.766044
vn -0.642788 0.000000 0.766044
vn -0.642788 0.000000 0.766044
vn -0.642788 0.000000 0.766044
vn -0.642788 0.000000 0.766044
vn -0.642788 0.000000 0.766044
vn 0.000000 -0.642788 0.766044
vn 0.000000 -0.642788 0.766044
vn 0.000000 -0.642788 0.766044
vn 0.000000 -0.642788 0.766044
vn 0.000000 -0.642788 0.766044
vn 0.000000 -0.642788 0.766044
vn 0.000000 0.000000 1.000000
vn 0.000000 0.000000 1.000000
vn 0.000000 0.000000 1.000000
vn 0.000000 0.000000 1.000000
vn 0.000000 0.000000 1.000000
vn 0.000000 0.000000 1.000000
s off
usemtl initialShadingGroup
f 1/9/1 2/10/2 3/11/3
f 3/11/4 4/12/5 1/9/6
f 5/37/7 6/38/8 7/39/9
f 7/39/10 8/40/11 5/37/12
f 9/5/13 10/6/14 11/7/15
f 11/7/16 12/8/17 9/5/18
f 13/29/19 14/30/20 15/31/21
f 15/31/22 16/32/23 13/29/24
f 17/1/25 18/2/26 19/3/27
f 19/3/28 20/4/29 17/1/30
f 21/33/31 22/34/32 23/35/33
f 23/35/34 24/36/35 21/33/36
f 25/13/37 26/14/38 27/15/39
f 27/15/40 28/16/41 25/13/42
f 29/17/43 30/18/44 31/19/45
f 31/19/46 32/20/47 29/17/48
f 33/21/49 34/22/50 35/23/51
f 35/23/52 36/24/53 33/21/54
f 37/25/55 38/26/56 39/27/57
f 39/27/58 40/28/59 37/25/60
