# Blender 4.1.0
# www.blender.org
mtllib hedge.mtl
o little_hegde_in_Cube.002
v -0.498964 0.701967 -0.178109
v -0.498964 0.701967 0.524158
v 1.817005 0.701967 0.173024
v -0.498965 0.022351 0.173024
v -2.814934 0.701967 0.173024
v -0.498964 1.381584 0.173024
v -0.498965 0.055021 -0.145871
v -0.498964 1.348914 -0.145872
v -0.498965 0.055021 0.491920
v 1.807595 0.701967 -0.145872
v -2.805524 0.701968 0.491920
v 1.807595 0.055021 0.173024
v -2.805524 0.055021 0.173024
v 1.807595 0.701967 0.491920
v -2.805524 0.701967 -0.145872
v -0.498964 1.348914 0.491920
v 1.807595 1.348914 0.173024
v -2.805524 1.348914 0.173024
v 1.804458 1.338024 -0.135126
v 1.804458 1.338024 0.481174
v 1.804458 0.065911 0.481174
v -2.802387 1.338024 0.481174
v -2.802387 0.065911 -0.135126
v -2.802387 1.338024 -0.135126
v 1.804458 0.065911 -0.135126
v -2.802387 0.065911 0.481174
v -0.498964 1.170842 -0.170050
v 1.226250 0.701967 -0.170050
v -0.498965 0.233092 -0.170050
v -2.224179 0.701967 -0.170050
v 1.226250 0.701967 0.516099
v -0.498964 1.170842 0.516099
v -2.224179 0.701968 0.516099
v -0.498965 0.233092 0.516099
v 1.814653 0.701967 -0.050029
v 1.814653 1.170842 0.173024
v 1.814653 0.701967 0.396077
v 1.814653 0.233092 0.173024
v -0.498965 0.030518 -0.050029
v 1.226250 0.030518 0.173024
v -0.498965 0.030518 0.396077
v -2.224179 0.030518 0.173024
v -2.812582 0.701967 -0.050029
v -2.812582 0.233093 0.173024
v -2.812582 0.701968 0.396077
v -2.812582 1.170842 0.173024
v -0.498964 1.373417 0.396077
v 1.226250 1.373417 0.173024
v -0.498964 1.373417 -0.050029
v -2.224179 1.373417 0.173024
v 1.225466 0.057743 -0.143185
v -2.223395 0.057743 -0.143185
v 1.225466 1.346192 -0.143185
v -2.223395 1.346192 -0.143185
v 1.225466 0.057743 0.489234
v -2.223395 0.057743 0.489234
v 1.806811 1.168120 -0.143185
v 1.806811 0.235815 -0.143185
v -2.804740 0.235815 0.489234
v -2.804740 1.168120 0.489234
v 1.806811 0.057743 -0.047342
v 1.806811 0.057743 0.393391
v -2.804740 0.057743 -0.047342
v -2.804740 0.057743 0.393391
v 1.806811 1.168120 0.489234
v 1.806811 0.235815 0.489234
v -2.804740 0.235815 -0.143185
v -2.804739 1.168120 -0.143185
v 1.225466 1.346191 0.489234
v -2.223395 1.346192 0.489234
v 1.806811 1.346191 -0.047342
v 1.806811 1.346191 0.393391
v -2.804739 1.346192 -0.047342
v -2.804740 1.346192 0.393391
v 1.226054 1.170162 -0.163334
v 1.226054 0.233773 -0.163334
v -2.223983 0.233773 -0.163334
v -2.223983 1.170162 -0.163334
v 1.226054 1.170162 0.509382
v -2.223983 1.170162 0.509382
v -2.223983 0.233773 0.509382
v 1.226054 0.233773 0.509382
v 1.812692 1.170162 -0.049357
v 1.812692 1.170162 0.395406
v 1.812692 0.233773 0.395406
v 1.812692 0.233773 -0.049357
v 1.226054 0.037324 -0.049357
v 1.226054 0.037324 0.395406
v -2.223983 0.037325 0.395406
v -2.223983 0.037324 -0.049357
v -2.810621 0.233773 -0.049357
v -2.810621 0.233773 0.395406
v -2.810621 1.170162 0.395406
v -2.810621 1.170162 -0.049357
v 1.226054 1.366610 0.395406
v 1.226054 1.366610 -0.049357
v -2.223983 1.366610 -0.049357
v -2.223983 1.366610 0.395406
vn -0.0000 -0.0000 -1.0000
vn -0.0000 -0.0000 1.0000
vn 1.0000 -0.0000 -0.0000
vn -0.0000 -1.0000 -0.0000
vn -1.0000 -0.0000 -0.0000
vn -0.0000 1.0000 -0.0000
vn -0.0000 -0.6679 -0.7442
vn -0.0000 0.6679 -0.7442
vn -0.0000 -0.6679 0.7442
vn 0.6956 -0.0000 -0.7185
vn -0.6956 -0.0000 0.7185
vn 0.7060 -0.7082 -0.0000
vn -0.7060 -0.7082 -0.0000
vn 0.6956 -0.0000 0.7185
vn -0.6956 -0.0000 -0.7185
vn -0.0000 0.6679 0.7442
vn 0.7060 0.7082 -0.0000
vn -0.7060 0.7082 -0.0000
vn 0.5656 0.5573 -0.6079
vn 0.5656 0.5573 0.6079
vn 0.5656 -0.5573 0.6079
vn -0.5656 0.5573 0.6079
vn -0.5656 -0.5573 -0.6079
vn -0.5656 0.5573 -0.6079
vn 0.5656 -0.5573 -0.6079
vn -0.5656 -0.5573 0.6079
vn -0.0000 0.0701 -0.9975
vn 0.0212 -0.0000 -0.9998
vn -0.0000 -0.0701 -0.9975
vn -0.0212 -0.0000 -0.9998
vn 0.0212 -0.0000 0.9998
vn -0.0000 0.0701 0.9975
vn -0.0212 -0.0000 0.9998
vn -0.0000 -0.0701 0.9975
vn 0.9992 -0.0000 -0.0389
vn 0.9998 0.0206 -0.0000
vn 0.9992 -0.0000 0.0389
vn 0.9998 -0.0206 -0.0000
vn -0.0000 -0.9912 -0.1327
vn 0.0215 -0.9998 -0.0000
vn -0.0000 -0.9912 0.1327
vn -0.0215 -0.9998 -0.0000
vn -0.9992 -0.0000 -0.0389
vn -0.9998 -0.0206 -0.0000
vn -0.9992 -0.0000 0.0389
vn -0.9998 0.0206 -0.0000
vn -0.0000 0.9912 0.1327
vn 0.0215 0.9998 -0.0000
vn -0.0000 0.9912 -0.1327
vn -0.0215 0.9998 -0.0000
vn 0.0174 -0.6739 -0.7386
vn -0.0174 -0.6739 -0.7386
vn 0.0174 0.6739 -0.7386
vn -0.0174 0.6739 -0.7386
vn 0.0174 -0.6739 0.7386
vn -0.0174 -0.6739 0.7386
vn 0.6946 0.0403 -0.7183
vn 0.6946 -0.0403 -0.7183
vn -0.6946 -0.0403 0.7183
vn -0.6946 0.0403 0.7183
vn 0.7009 -0.7089 -0.0784
vn 0.7009 -0.7089 0.0784
vn -0.7009 -0.7089 -0.0784
vn -0.7009 -0.7089 0.0784
vn 0.6946 0.0403 0.7183
vn 0.6946 -0.0403 0.7183
vn -0.6946 -0.0403 -0.7183
vn -0.6946 0.0403 -0.7183
vn 0.0174 0.6739 0.7386
vn -0.0174 0.6739 0.7386
vn 0.7009 0.7089 -0.0784
vn 0.7009 0.7089 0.0784
vn -0.7009 0.7089 -0.0784
vn -0.7009 0.7089 0.0784
vn 0.0176 0.0580 -0.9982
vn 0.0176 -0.0580 -0.9982
vn -0.0176 -0.0580 -0.9982
vn -0.0176 0.0580 -0.9982
vn 0.0176 0.0580 0.9982
vn -0.0176 0.0580 0.9982
vn -0.0176 -0.0580 0.9982
vn 0.0176 -0.0580 0.9982
vn 0.9993 0.0174 -0.0327
vn 0.9993 0.0174 0.0327
vn 0.9993 -0.0174 0.0327
vn 0.9993 -0.0174 -0.0327
vn 0.0180 -0.9937 -0.1108
vn 0.0180 -0.9937 0.1108
vn -0.0180 -0.9937 0.1108
vn -0.0180 -0.9937 -0.1108
vn -0.9993 -0.0174 -0.0327
vn -0.9993 -0.0174 0.0327
vn -0.9993 0.0174 0.0327
vn -0.9993 0.0174 -0.0327
vn 0.0180 0.9937 0.1108
vn 0.0180 0.9937 -0.1108
vn -0.0180 0.9937 -0.1108
vn -0.0180 0.9937 0.1108
vt 0.502370 0.403774
vt 0.623734 0.403877
vt 0.623081 0.629951
vt 0.501893 0.629874
vt 0.380705 0.629745
vt 0.381005 0.403671
vt 0.381659 0.177597
vt 0.502847 0.177674
vt 0.624035 0.177803
vt 0.167457 0.403774
vt 0.167934 0.177674
vt 0.289122 0.177803
vt 0.288821 0.403877
vt 0.288168 0.629952
vt 0.166980 0.629874
vt 0.045791 0.629745
vt 0.046092 0.403671
vt 0.046745 0.177597
vt 0.082541 0.790847
vt 0.024808 0.791112
vt 0.024283 0.729753
vt 0.081842 0.729400
vt 0.139403 0.729225
vt 0.140275 0.790582
vt 0.140800 0.851941
vt 0.083241 0.852295
vt 0.025680 0.852470
vt 0.917457 0.403774
vt 0.975192 0.403845
vt 0.974323 0.629919
vt 0.916761 0.629874
vt 0.859200 0.629776
vt 0.859722 0.403702
vt 0.860591 0.177628
vt 0.918152 0.177674
vt 0.975714 0.177771
vt 0.247624 0.790847
vt 0.189890 0.791112
vt 0.189366 0.729753
vt 0.246925 0.729400
vt 0.304486 0.729225
vt 0.305358 0.790582
vt 0.305883 0.851941
vt 0.248324 0.852294
vt 0.190763 0.852470
vt 0.752370 0.403774
vt 0.694635 0.403702
vt 0.695504 0.177628
vt 0.753065 0.177674
vt 0.810627 0.177771
vt 0.810105 0.403845
vt 0.809236 0.629919
vt 0.751674 0.629873
vt 0.694113 0.629776
vt 0.334913 0.403631
vt 0.335141 0.629629
vt 1.000000 0.403876
vt 0.998610 0.629872
vt 1.000000 0.177878
vt 0.336095 0.177635
vt 0.669827 0.403917
vt 0.668645 0.629913
vt 0.669599 0.177919
vt 0.834913 0.403876
vt 0.833523 0.629872
vt 0.834913 0.177878
vt -0.000000 0.403631
vt 0.001181 0.177635
vt 0.000228 0.629629
vt 0.834913 0.403671
vt 0.836304 0.177675
vt 0.834913 0.629669
vt 0.501732 0.706063
vt 0.622392 0.706063
vt -0.000000 0.791226
vt 0.000000 0.730132
vt 0.001391 0.852314
vt 0.381073 0.705857
vt 0.166819 0.706063
vt 0.046159 0.705857
vt 0.287479 0.706063
vt 0.330166 0.790468
vt 0.330166 0.851562
vt 0.328775 0.729381
vt 0.083506 0.875631
vt 0.026464 0.875537
vt 0.140541 0.875013
vt 0.916527 0.706062
vt 0.859487 0.705889
vt 0.973567 0.706030
vt 0.918387 0.101485
vt 0.975426 0.101659
vt 0.861346 0.101517
vt 0.246659 0.706063
vt 0.303702 0.706158
vt 0.189625 0.706682
vt 0.168094 0.101485
vt 0.288754 0.101691
vt 0.047435 0.101485
vt 0.165083 0.790468
vt 0.165083 0.851562
vt 0.163692 0.729381
vt 0.503008 0.101485
vt 0.382348 0.101485
vt 0.165083 0.791226
vt 0.165083 0.730132
vt 0.166474 0.852314
vt 0.623667 0.101691
vt 0.334913 0.403917
vt 0.334685 0.177919
vt 0.669826 0.403671
vt 0.671217 0.177675
vt 0.669826 0.629669
vt 0.333732 0.629913
vt 0.081577 0.706063
vt 0.024542 0.706682
vt 0.753300 0.101485
vt 0.810339 0.101659
vt 0.696259 0.101517
vt 0.138619 0.706158
vt 0.248589 0.875631
vt 0.191547 0.875537
vt 0.305624 0.875013
vt 0.751440 0.706062
vt 0.694400 0.705889
vt 0.808480 0.706030
vt 0.666371 0.705792
vt 0.833061 0.101995
vt 0.001833 0.707856
vt 0.673537 0.101797
vt 0.332731 0.102036
vt 0.161353 0.707124
vt 0.836766 0.705552
vt 0.163250 0.873838
vt 0.003456 0.101756
vt 0.671679 0.705552
vt 0.328333 0.873838
vt 0.331457 0.705792
vt 0.338369 0.101756
vt 0.998147 0.101995
vt 0.166916 0.707856
vt 0.168813 0.874570
vt 0.831203 0.705750
vt 0.667645 0.102037
vt 0.337095 0.705512
vt 0.003730 0.874570
vt 0.996290 0.705750
vt 0.838624 0.101797
vt 0.002182 0.705512
vt 0.326436 0.707124
s 1
usemtl hedge_IN
f 1/1/1 27/2/27 75/3/75 28/4/28
f 1/1/1 28/4/28 76/5/76 29/6/29
f 1/1/1 29/6/29 77/7/77 30/8/30
f 1/1/1 30/8/30 78/9/78 27/2/27
f 2/10/2 31/11/31 79/12/79 32/13/32
f 2/10/2 32/13/32 80/14/80 33/15/33
f 2/10/2 33/15/33 81/16/81 34/17/34
f 2/10/2 34/17/34 82/18/82 31/11/31
f 3/19/3 35/20/35 83/21/83 36/22/36
f 3/19/3 36/22/36 84/23/84 37/24/37
f 3/19/3 37/24/37 85/25/85 38/26/38
f 3/19/3 38/26/38 86/27/86 35/20/35
f 4/28/4 39/29/39 87/30/87 40/31/40
f 4/28/4 40/31/40 88/32/88 41/33/41
f 4/28/4 41/33/41 89/34/89 42/35/42
f 4/28/4 42/35/42 90/36/90 39/29/39
f 5/37/5 43/38/43 91/39/91 44/40/44
f 5/37/5 44/40/44 92/41/92 45/42/45
f 5/37/5 45/42/45 93/43/93 46/44/46
f 5/37/5 46/44/46 94/45/94 43/38/43
f 6/46/6 47/47/47 95/48/95 48/49/48
f 6/46/6 48/49/48 96/50/96 49/51/49
f 6/46/6 49/51/49 97/52/97 50/53/50
f 6/46/6 50/53/50 98/54/98 47/47/47
f 7/55/7 29/6/29 76/5/76 51/56/51
f 7/57/7 51/58/51 87/30/87 39/29/39
f 7/57/7 39/29/39 90/36/90 52/59/52
f 7/55/7 52/60/52 77/7/77 29/6/29
f 8/61/8 53/62/53 75/3/75 27/2/27
f 8/61/8 27/2/27 78/9/78 54/63/54
f 8/64/8 54/65/54 97/52/97 49/51/49
f 8/64/8 49/51/49 96/50/96 53/66/53
f 9/67/9 55/68/55 82/18/82 34/17/34
f 9/67/9 34/17/34 81/16/81 56/69/56
f 9/70/9 56/71/56 89/34/89 41/33/41
f 9/70/9 41/33/41 88/32/88 55/72/55
f 10/73/10 28/4/28 75/3/75 57/74/57
f 10/75/10 57/76/57 83/21/83 35/20/35
f 10/75/10 35/20/35 86/27/86 58/77/58
f 10/73/10 58/78/58 76/5/76 28/4/28
f 11/79/11 59/80/59 81/16/81 33/15/33
f 11/79/11 33/15/33 80/14/80 60/81/60
f 11/82/11 60/83/60 93/43/93 45/42/45
f 11/82/11 45/42/45 92/41/92 59/84/59
f 12/85/12 61/86/61 86/27/86 38/26/38
f 12/85/12 38/26/38 85/25/85 62/87/62
f 12/88/12 62/89/62 88/32/88 40/31/40
f 12/88/12 40/31/40 87/30/87 61/90/61
f 13/91/13 63/92/63 90/36/90 42/35/42
f 13/91/13 42/35/42 89/34/89 64/93/64
f 13/94/13 64/95/64 92/41/92 44/40/44
f 13/94/13 44/40/44 91/39/91 63/96/63
f 14/97/14 65/98/65 79/12/79 31/11/31
f 14/97/14 31/11/31 82/18/82 66/99/66
f 14/100/14 66/101/66 85/25/85 37/24/37
f 14/100/14 37/24/37 84/23/84 65/102/65
f 15/103/15 30/8/30 77/7/77 67/104/67
f 15/105/15 67/106/67 91/39/91 43/38/43
f 15/105/15 43/38/43 94/45/94 68/107/68
f 15/103/15 68/108/68 78/9/78 30/8/30
f 16/109/16 32/13/32 79/12/79 69/110/69
f 16/111/16 69/112/69 95/48/95 47/47/47
f 16/111/16 47/47/47 98/54/98 70/113/70
f 16/109/16 70/114/70 80/14/80 32/13/32
f 17/115/17 36/22/36 83/21/83 71/116/71
f 17/117/17 71/118/71 96/50/96 48/49/48
f 17/117/17 48/49/48 95/48/95 72/119/72
f 17/115/17 72/120/72 84/23/84 36/22/36
f 18/121/18 73/122/73 94/45/94 46/44/46
f 18/121/18 46/44/46 93/43/93 74/123/74
f 18/124/18 74/125/74 98/54/98 50/53/50
f 18/124/18 50/53/50 97/52/97 73/126/73
f 19/127/19 57/74/57 75/3/75 53/62/53
f 19/128/19 53/66/53 96/50/96 71/118/71
f 19/129/19 71/116/71 83/21/83 57/76/57
f 20/130/20 72/119/72 95/48/95 69/112/69
f 20/131/20 69/110/69 79/12/79 65/98/65
f 20/132/20 65/102/65 84/23/84 72/120/72
f 21/133/21 55/72/55 88/32/88 62/89/62
f 21/134/21 62/87/62 85/25/85 66/101/66
f 21/135/21 66/99/66 82/18/82 55/68/55
f 22/136/22 70/113/70 98/54/98 74/125/74
f 22/137/22 74/123/74 93/43/93 60/83/60
f 22/138/22 60/81/60 80/14/80 70/114/70
f 23/139/23 67/104/67 77/7/77 52/60/52
f 23/140/23 52/59/52 90/36/90 63/92/63
f 23/141/23 63/96/63 91/39/91 67/106/67
f 24/142/24 68/107/68 94/45/94 73/122/73
f 24/143/24 73/126/73 97/52/97 54/65/54
f 24/144/24 54/63/54 78/9/78 68/108/68
f 25/145/25 51/56/51 76/5/76 58/78/58
f 25/146/25 58/77/58 86/27/86 61/86/61
f 25/147/25 61/90/61 87/30/87 51/58/51
f 26/148/26 64/93/64 89/34/89 56/71/56
f 26/149/26 56/69/56 81/16/81 59/80/59
f 26/150/26 59/84/59 92/41/92 64/95/64
