# Blender v4.1.0 OBJ File: ''
# www.blender.org
mtllib wallPostPlaion_processed.mtl
o mesh0.001
v 0.152400 0.152400 1.397000
v 0.152400 0.152400 -0.000000
v -0.152400 0.152400 -0.000000
v -0.152400 0.152400 1.397000
v -0.152400 -0.152400 0.000000
v -0.152400 0.152400 -0.000000
v 0.152400 0.152400 -0.000000
v 0.152400 -0.152400 0.000000
v -0.152400 0.152400 1.397000
v -0.152400 0.152400 -0.000000
v -0.152400 -0.152400 0.000000
v -0.152400 -0.152400 1.397000
v -0.152400 -0.152400 1.397000
v -0.152400 -0.152400 0.000000
v 0.152400 -0.152400 0.000000
v 0.152400 -0.152400 1.397000
v 0.152400 -0.152400 1.397000
v 0.152400 -0.152400 0.000000
v 0.152400 0.152400 -0.000000
v 0.152400 0.152400 1.397000
v 0.152400 0.152400 1.397000
v -0.152400 0.152400 1.397000
v -0.088461 0.088461 1.473200
v 0.088461 0.088461 1.473200
v -0.152400 0.152400 1.397000
v -0.152400 -0.152400 1.397000
v -0.088461 -0.088460 1.473200
v -0.088461 0.088461 1.473200
v -0.152400 -0.152400 1.397000
v 0.152400 -0.152400 1.397000
v 0.088461 -0.088460 1.473200
v -0.088461 -0.088460 1.473200
v 0.152400 -0.152400 1.397000
v 0.152400 0.152400 1.397000
v 0.088461 0.088461 1.473200
v 0.088461 -0.088460 1.473200
v 0.088461 -0.088460 1.473200
v 0.088461 0.088461 1.473200
v -0.088461 0.088461 1.473200
v -0.088461 -0.088460 1.473200
vn 0.0000 1.0000 -0.0000
vn 0.0000 -0.0000 -1.0000
vn -1.0000 0.0000 0.0000
vn 0.0000 -1.0000 0.0000
vn 1.0000 0.0000 0.0000
vn 0.0000 0.7660 0.6428
vn -0.7660 0.0000 0.6428
vn 0.0000 -0.7660 0.6428
vn 0.7660 0.0000 0.6428
vn 0.0000 0.0000 1.0000
usemtl 0.615686_0.811765_0.929412_0.000000_0.001
s 1
f 1//1 2//1 3//1
f 3//1 4//1 1//1
f 5//2 6//2 7//2
f 7//2 8//2 5//2
f 9//3 10//3 11//3
f 11//3 12//3 9//3
f 13//4 14//4 15//4
f 15//4 16//4 13//4
f 17//5 18//5 19//5
f 19//5 20//5 17//5
f 21//6 22//6 23//6
f 23//6 24//6 21//6
f 25//7 26//7 27//7
f 27//7 28//7 25//7
f 29//8 30//8 31//8
f 31//8 32//8 29//8
f 33//9 34//9 35//9
f 35//9 36//9 33//9
f 37//10 38//10 39//10
f 39//10 40//10 37//10
