# Blender v4.1.0 OBJ File: ''
# www.blender.org
mtllib wallSegment_processed.mtl
o mesh0.002
v 1.574800 0.114300 1.257300
v 1.574800 -0.110405 1.286880
v 1.574800 -0.111591 1.282040
v 1.574800 -0.098987 1.314450
v 1.574800 -0.101385 1.310080
v 1.574800 0.098987 1.314450
v 1.574800 0.096400 1.318710
v 1.574800 0.113865 1.267260
v 1.574800 0.110405 1.286880
v 1.574800 0.109010 1.291670
v 1.574800 0.112564 1.277150
v 1.574800 0.111591 1.282040
v 1.574800 -0.112564 1.277150
v 1.574800 -0.113322 1.272220
v 1.574800 -0.109010 1.291670
v 1.574800 -0.105599 1.301040
v 1.574800 -0.107407 1.296390
v 1.574800 -0.103591 1.305610
v 1.574800 -0.093629 1.322860
v 1.574800 -0.096400 1.318710
v 1.574800 0.019848 1.369860
v 1.574800 0.014919 1.370620
v 1.574800 0.048305 1.360890
v 1.574800 0.043741 1.362900
v 1.574800 0.057150 1.356290
v 1.574800 0.052778 1.358690
v 1.574800 0.101385 1.310080
v 1.574800 0.105599 1.301040
v 1.574800 0.103591 1.305610
v 1.574800 0.107407 1.296390
v 1.574800 0.113322 1.272220
v 1.574800 -0.113865 1.267260
v 1.574800 -0.087559 1.330770
v 1.574800 -0.090680 1.326880
v 1.574800 -0.080822 1.338120
v 1.574800 -0.084271 1.334520
v 1.574800 -0.073470 1.344860
v 1.574800 -0.077220 1.341570
v 1.574800 -0.061413 1.353700
v 1.574800 -0.065560 1.350930
v 1.574800 -0.052778 1.358690
v 1.574800 -0.057150 1.356290
v 1.574800 0.024739 1.368890
v 1.574800 0.039093 1.364710
v 1.574800 0.061413 1.353700
v 1.574800 0.093629 1.322860
v 1.574800 0.090680 1.326880
v 1.574800 0.114191 1.262290
v 1.574800 -0.114191 1.262290
v 1.574800 -0.069581 1.347980
v 1.574800 -0.009962 1.371170
v 1.574800 -0.014919 1.370620
v 1.574800 0.029583 1.367710
v 1.574800 0.034371 1.366310
v 1.574800 0.065560 1.350930
v 1.574800 0.073471 1.344860
v 1.574800 0.069582 1.347980
v 1.574800 0.080822 1.338120
v 1.574800 0.077220 1.341570
v 1.574800 0.087559 1.330770
v 1.574800 0.084271 1.334520
v 1.574800 -0.048305 1.360890
v 1.574800 -0.039093 1.364710
v 1.574800 -0.043741 1.362900
v 1.574800 -0.019848 1.369860
v 1.574800 -0.029583 1.367710
v 1.574800 -0.034371 1.366310
v 1.574800 -0.024739 1.368890
v 1.574800 0.000000 1.371600
v 1.574800 -0.004986 1.371490
v 1.574800 0.009962 1.371170
v 1.574800 0.004986 1.371490
v 1.574800 0.114300 -0.000000
v 1.574800 -0.114300 1.257300
v 1.574800 -0.114300 0.000000
v -1.574800 0.114300 -0.000000
v -1.574800 0.114300 1.257300
v 1.574800 0.114300 1.257300
v 1.574800 0.114300 -0.000000
v -1.574800 0.113865 1.267260
v -1.574800 0.110405 1.286880
v -1.574800 0.111591 1.282040
v -1.574800 0.107407 1.296390
v -1.574800 0.109010 1.291670
v -1.574800 0.114300 1.257300
v -1.574800 0.093629 1.322860
v -1.574800 0.096400 1.318710
v -1.574800 -0.103591 1.305610
v -1.574800 -0.101385 1.310080
v -1.574800 -0.112564 1.277150
v -1.574800 -0.111591 1.282040
v -1.574800 0.112564 1.277150
v -1.574800 0.105599 1.301040
v -1.574800 0.101385 1.310080
v -1.574800 0.103591 1.305610
v -1.574800 0.098987 1.314450
v -1.574800 0.048305 1.360890
v -1.574800 0.052778 1.358690
v -1.574800 0.039093 1.364710
v -1.574800 0.043741 1.362900
v -1.574800 0.009962 1.371170
v -1.574800 0.014919 1.370620
v -1.574800 -0.098987 1.314450
v -1.574800 -0.096400 1.318710
v -1.574800 -0.105599 1.301040
v -1.574800 -0.109010 1.291670
v -1.574800 -0.107407 1.296390
v -1.574800 -0.110405 1.286880
v -1.574800 -0.113865 1.267260
v -1.574800 -0.113322 1.272220
v -1.574800 0.114191 1.262290
v -1.574800 0.087559 1.330770
v -1.574800 0.090680 1.326880
v -1.574800 0.057150 1.356290
v -1.574800 0.034371 1.366310
v -1.574800 0.019848 1.369860
v -1.574800 -0.061413 1.353700
v -1.574800 -0.057150 1.356290
v -1.574800 -0.069581 1.347980
v -1.574800 -0.065560 1.350930
v -1.574800 -0.080822 1.338120
v -1.574800 -0.077220 1.341570
v -1.574800 -0.087559 1.330770
v -1.574800 -0.084271 1.334520
v -1.574800 -0.093629 1.322860
v -1.574800 -0.090680 1.326880
v -1.574800 -0.114191 1.262290
v -1.574800 0.113322 1.272220
v -1.574800 0.080822 1.338120
v -1.574800 0.084271 1.334520
v -1.574800 0.073471 1.344860
v -1.574800 0.077220 1.341570
v -1.574800 0.065560 1.350930
v -1.574800 0.069582 1.347980
v -1.574800 0.061413 1.353700
v -1.574800 0.029583 1.367710
v -1.574800 0.024739 1.368890
v -1.574800 -0.019848 1.369860
v -1.574800 -0.014919 1.370620
v -1.574800 -0.073470 1.344860
v -1.574800 -0.114300 1.257300
v -1.574800 -0.024739 1.368890
v -1.574800 -0.048305 1.360890
v -1.574800 -0.043741 1.362900
v -1.574800 -0.052778 1.358690
v -1.574800 0.000000 1.371600
v -1.574800 0.004986 1.371490
v -1.574800 -0.009962 1.371170
v -1.574800 -0.004986 1.371490
v -1.574800 -0.029583 1.367710
v -1.574800 -0.039093 1.364710
v -1.574800 -0.034371 1.366310
v -1.574800 -0.114300 0.000000
v -1.574800 0.114300 -0.000000
v -1.574800 -0.114300 0.000000
v 1.574800 -0.114300 0.000000
v 1.574800 -0.114300 1.257300
v -1.574800 -0.114300 1.257300
v -1.574800 -0.114300 0.000000
v -1.574800 0.114300 -0.000000
v 1.574800 0.114300 -0.000000
v 1.574800 -0.114300 0.000000
v -1.574800 -0.114300 1.257300
v 1.574800 -0.114300 1.257300
v 1.574800 -0.114191 1.262290
v -1.574800 -0.114191 1.262290
v 1.574800 -0.113865 1.267260
v -1.574800 -0.113865 1.267260
v 1.574800 -0.113322 1.272220
v -1.574800 -0.113322 1.272220
v 1.574800 -0.112564 1.277150
v -1.574800 -0.112564 1.277150
v 1.574800 -0.111591 1.282040
v -1.574800 -0.111591 1.282040
v 1.574800 -0.110405 1.286880
v -1.574800 -0.110405 1.286880
v 1.574800 -0.109010 1.291670
v -1.574800 -0.109010 1.291670
v 1.574800 -0.107407 1.296390
v -1.574800 -0.107407 1.296390
v 1.574800 -0.105599 1.301040
v -1.574800 -0.105599 1.301040
v 1.574800 -0.103591 1.305610
v -1.574800 -0.103591 1.305610
v 1.574800 -0.101385 1.310080
v -1.574800 -0.101385 1.310080
v 1.574800 -0.098987 1.314450
v -1.574800 -0.098987 1.314450
v 1.574800 -0.096400 1.318710
v -1.574800 -0.096400 1.318710
v 1.574800 -0.093629 1.322860
v -1.574800 -0.093629 1.322860
v 1.574800 -0.090680 1.326880
v -1.574800 -0.090680 1.326880
v 1.574800 -0.087559 1.330770
v -1.574800 -0.087559 1.330770
v 1.574800 -0.084271 1.334520
v -1.574800 -0.084271 1.334520
v 1.574800 -0.080822 1.338120
v -1.574800 -0.080822 1.338120
v 1.574800 -0.077220 1.341570
v -1.574800 -0.077220 1.341570
v 1.574800 -0.073470 1.344860
v -1.574800 -0.073470 1.344860
v 1.574800 -0.069581 1.347980
v -1.574800 -0.069581 1.347980
v 1.574800 -0.065560 1.350930
v -1.574800 -0.065560 1.350930
v 1.574800 -0.061413 1.353700
v -1.574800 -0.061413 1.353700
v 1.574800 -0.057150 1.356290
v -1.574800 -0.057150 1.356290
v 1.574800 -0.052778 1.358690
v -1.574800 -0.052778 1.358690
v 1.574800 -0.048305 1.360890
v -1.574800 -0.048305 1.360890
v 1.574800 -0.043741 1.362900
v -1.574800 -0.043741 1.362900
v 1.574800 -0.039093 1.364710
v -1.574800 -0.039093 1.364710
v 1.574800 -0.034371 1.366310
v -1.574800 -0.034371 1.366310
v 1.574800 -0.029583 1.367710
v -1.574800 -0.029583 1.367710
v 1.574800 -0.024739 1.368890
v -1.574800 -0.024739 1.368890
v 1.574800 -0.019848 1.369860
v -1.574800 -0.019848 1.369860
v 1.574800 -0.014919 1.370620
v -1.574800 -0.014919 1.370620
v 1.574800 -0.009962 1.371170
v -1.574800 -0.009962 1.371170
v 1.574800 -0.004986 1.371490
v -1.574800 -0.004986 1.371490
v 1.574800 0.000000 1.371600
v -1.574800 0.000000 1.371600
v 1.574800 0.004986 1.371490
v -1.574800 0.004986 1.371490
v 1.574800 0.009962 1.371170
v -1.574800 0.009962 1.371170
v 1.574800 0.014919 1.370620
v -1.574800 0.014919 1.370620
v 1.574800 0.019848 1.369860
v -1.574800 0.019848 1.369860
v 1.574800 0.024739 1.368890
v -1.574800 0.024739 1.368890
v 1.574800 0.029583 1.367710
v -1.574800 0.029583 1.367710
v 1.574800 0.034371 1.366310
v -1.574800 0.034371 1.366310
v 1.574800 0.039093 1.364710
v -1.574800 0.039093 1.364710
v 1.574800 0.043741 1.362900
v -1.574800 0.043741 1.362900
v 1.574800 0.048305 1.360890
v -1.574800 0.048305 1.360890
v 1.574800 0.052778 1.358690
v -1.574800 0.052778 1.358690
v 1.574800 0.057150 1.356290
v -1.574800 0.057150 1.356290
v 1.574800 0.061413 1.353700
v -1.574800 0.061413 1.353700
v 1.574800 0.065560 1.350930
v -1.574800 0.065560 1.350930
v 1.574800 0.069582 1.347980
v -1.574800 0.069582 1.347980
v 1.574800 0.073471 1.344860
v -1.574800 0.073471 1.344860
v 1.574800 0.077220 1.341570
v -1.574800 0.077220 1.341570
v 1.574800 0.080822 1.338120
v -1.574800 0.080822 1.338120
v 1.574800 0.084271 1.334520
v -1.574800 0.084271 1.334520
v 1.574800 0.087559 1.330770
v -1.574800 0.087559 1.330770
v 1.574800 0.090680 1.326880
v -1.574800 0.090680 1.326880
v 1.574800 0.093629 1.322860
v -1.574800 0.093629 1.322860
v 1.574800 0.096400 1.318710
v -1.574800 0.096400 1.318710
v 1.574800 0.098987 1.314450
v -1.574800 0.098987 1.314450
v 1.574800 0.101385 1.310080
v -1.574800 0.101385 1.310080
v 1.574800 0.103591 1.305610
v -1.574800 0.103591 1.305610
v 1.574800 0.105599 1.301040
v -1.574800 0.105599 1.301040
v 1.574800 0.107407 1.296390
v -1.574800 0.107407 1.296390
v 1.574800 0.109010 1.291670
v -1.574800 0.109010 1.291670
v 1.574800 0.110405 1.286880
v -1.574800 0.110405 1.286880
v 1.574800 0.111591 1.282040
v -1.574800 0.111591 1.282040
v 1.574800 0.112564 1.277150
v -1.574800 0.112564 1.277150
v 1.574800 0.113322 1.272220
v -1.574800 0.113322 1.272220
v 1.574800 0.113865 1.267260
v -1.574800 0.113865 1.267260
v 1.574800 0.114191 1.262290
v -1.574800 0.114191 1.262290
v 1.574800 0.114300 1.257300
v -1.574800 0.114300 1.257300
vn 1.0000 0.0000 0.0000
vn 1.0000 -0.0001 0.0000
vn 1.0000 0.0001 0.0000
vn 1.0000 0.0002 0.0000
vn 1.0000 0.0004 0.0000
vn 1.0000 -0.0003 -0.0000
vn 1.0000 -0.0002 0.0000
vn 1.0000 0.0009 0.0000
vn 0.0000 1.0000 -0.0000
vn -1.0000 -0.0001 0.0000
vn -1.0000 -0.0000 0.0000
vn -1.0000 -0.0005 -0.0000
vn -1.0000 0.0002 0.0000
vn -1.0000 0.0001 0.0000
vn -1.0000 0.0004 0.0000
vn -1.0000 0.0009 0.0000
vn 0.0000 -1.0000 0.0000
vn 0.0000 -0.0000 -1.0000
vn 0.0000 -0.9998 0.0218
vn 0.0000 -0.9979 0.0655
vn 0.0000 -0.9941 0.1088
vn 0.0000 -0.9884 0.1520
vn 0.0000 -0.9808 0.1952
vn 0.0000 -0.9713 0.2380
vn 0.0000 -0.9601 0.2796
vn 0.0000 -0.9469 0.3216
vn 0.0000 -0.9320 0.3624
vn 0.0000 -0.9155 0.4023
vn 0.0000 -0.8967 0.4425
vn 0.0000 -0.8767 0.4811
vn 0.0000 -0.8547 0.5191
vn 0.0000 -0.8317 0.5552
vn 0.0000 -0.8063 0.5915
vn 0.0000 -0.7800 0.6258
vn 0.0000 -0.7519 0.6593
vn 0.0000 -0.7221 0.6917
vn 0.0000 -0.6917 0.7222
vn 0.0000 -0.6596 0.7517
vn 0.0000 -0.6258 0.7800
vn 0.0000 -0.5915 0.8063
vn 0.0000 -0.5555 0.8315
vn 0.0000 -0.5192 0.8547
vn 0.0000 -0.4812 0.8766
vn 0.0000 -0.4414 0.8973
vn 0.0000 -0.4030 0.9152
vn 0.0000 -0.3629 0.9318
vn 0.0000 -0.3209 0.9471
vn 0.0000 -0.2807 0.9598
vn 0.0000 -0.2367 0.9716
vn 0.0000 -0.1945 0.9809
vn 0.0000 -0.1524 0.9883
vn 0.0000 -0.1103 0.9939
vn 0.0000 -0.0642 0.9979
vn 0.0000 -0.0221 0.9998
vn 0.0000 0.0221 0.9998
vn 0.0000 0.0642 0.9979
vn 0.0000 0.1103 0.9939
vn 0.0000 0.1524 0.9883
vn 0.0000 0.1945 0.9809
vn 0.0000 0.2367 0.9716
vn 0.0000 0.2807 0.9598
vn 0.0000 0.3209 0.9471
vn 0.0000 0.3629 0.9318
vn 0.0000 0.4030 0.9152
vn 0.0000 0.4414 0.8973
vn 0.0000 0.4812 0.8766
vn 0.0000 0.5192 0.8547
vn 0.0000 0.5555 0.8315
vn 0.0000 0.5915 0.8063
vn 0.0000 0.6258 0.7800
vn 0.0000 0.6596 0.7517
vn 0.0000 0.6917 0.7222
vn 0.0000 0.7221 0.6917
vn 0.0000 0.7519 0.6593
vn 0.0000 0.7800 0.6258
vn 0.0000 0.8063 0.5915
vn 0.0000 0.8317 0.5552
vn 0.0000 0.8547 0.5191
vn 0.0000 0.8767 0.4811
vn 0.0000 0.8967 0.4425
vn 0.0000 0.9155 0.4023
vn 0.0000 0.9320 0.3624
vn 0.0000 0.9469 0.3216
vn 0.0000 0.9601 0.2796
vn 0.0000 0.9713 0.2380
vn 0.0000 0.9808 0.1952
vn 0.0000 0.9884 0.1520
vn 0.0000 0.9941 0.1088
vn 0.0000 0.9979 0.0655
vn 0.0000 0.9998 0.0218
usemtl 0.615686_0.811765_0.929412_0.000000_0.002
s 1
f 1//1 2//1 3//1
f 1//1 4//1 5//1
f 1//1 6//2 7//3
f 8//1 9//4 10//1
f 8//1 11//5 12//6
f 1//1 13//1 14//1
f 1//1 15//1 2//1
f 1//1 16//1 17//1
f 5//1 18//1 1//1
f 1//1 19//1 20//1
f 1//1 21//1 22//1
f 1//1 23//1 24//2
f 1//1 25//1 26//1
f 1//1 27//3 6//2
f 1//1 28//2 29//7
f 10//1 30//1 8//1
f 8//1 31//8 11//5
f 14//1 32//1 1//1
f 17//1 15//1 1//1
f 20//1 4//1 1//1
f 1//1 33//1 34//1
f 1//1 35//1 36//1
f 1//1 37//1 38//1
f 1//1 39//1 40//1
f 1//1 41//1 42//1
f 1//1 43//1 21//1
f 24//2 44//1 1//1
f 1//1 45//1 25//1
f 1//1 46//1 47//1
f 29//7 27//3 1//1
f 12//6 9//4 8//1
f 28//2 1//1 48//6
f 32//1 49//1 1//1
f 18//1 16//1 1//1
f 36//1 33//1 1//1
f 1//1 50//1 37//1
f 42//1 39//1 1//1
f 1//1 51//1 52//1
f 1//1 53//1 43//1
f 44//1 54//1 1//1
f 1//1 55//1 45//1
f 1//1 56//1 57//1
f 1//1 58//1 59//2
f 1//1 60//1 61//1
f 7//3 46//1 1//1
f 48//6 8//1 28//2
f 3//1 13//1 1//1
f 38//1 35//1 1//1
f 1//1 62//1 41//1
f 1//1 63//1 64//1
f 52//1 65//1 1//1
f 54//1 53//1 1//1
f 57//1 55//1 1//1
f 61//1 58//1 1//1
f 30//1 28//2 8//1
f 34//1 19//1 1//1
f 64//1 62//1 1//1
f 1//1 66//1 67//1
f 65//1 68//1 1//1
f 1//1 69//1 70//1
f 1//1 71//1 72//1
f 26//1 23//1 1//1
f 47//1 60//1 1//1
f 40//1 50//1 1//1
f 68//1 66//1 1//1
f 72//1 69//1 1//1
f 59//2 56//1 1//1
f 67//1 63//1 1//1
f 22//1 71//1 1//1
f 70//1 51//1 1//1
f 73//1 1//1 74//1
f 74//1 75//1 73//1
f 49//1 74//1 1//1
f 76//9 77//9 78//9
f 78//9 79//9 76//9
f 80//10 81//11 82//12
f 80//10 83//11 84//13
f 85//11 86//10 87//14
f 85//11 88//11 89//11
f 85//11 90//11 91//11
f 82//12 92//15 80//10
f 80//10 93//11 83//11
f 85//11 94//10 95//10
f 87//14 96//13 85//11
f 85//11 97//11 98//11
f 85//11 99//11 100//11
f 85//11 101//11 102//11
f 85//11 103//11 104//11
f 85//11 105//11 88//11
f 85//11 106//11 107//11
f 91//11 108//11 85//11
f 85//11 109//11 110//11
f 93//11 80//10 111//15
f 84//13 81//11 80//10
f 96//13 94//10 85//11
f 85//11 112//11 113//11
f 98//11 114//11 85//11
f 85//11 115//11 99//11
f 102//11 116//11 85//11
f 85//11 117//11 118//11
f 85//11 119//11 120//11
f 85//11 121//11 122//11
f 85//11 123//11 124//11
f 85//11 125//11 126//11
f 89//11 103//11 85//11
f 108//11 106//11 85//11
f 85//11 127//11 109//11
f 92//15 128//16 80//10
f 113//11 86//10 85//11
f 85//11 129//11 130//14
f 85//11 131//11 132//10
f 85//11 133//11 134//11
f 114//11 135//11 85//11
f 85//11 136//11 115//11
f 116//11 137//11 85//11
f 85//11 138//11 139//11
f 120//11 117//11 85//11
f 122//11 140//11 85//11
f 126//11 123//11 85//11
f 107//11 105//11 85//11
f 85//11 141//11 127//11
f 95//10 93//11 85//11
f 132//10 129//11 85//11
f 135//11 133//11 85//11
f 137//11 136//11 85//11
f 85//11 142//11 138//11
f 85//11 143//11 144//11
f 118//11 145//11 85//11
f 124//11 121//11 85//11
f 110//11 90//11 85//11
f 130//14 112//11 85//11
f 100//11 97//11 85//11
f 85//11 146//11 147//11
f 85//11 148//11 149//11
f 85//11 150//11 142//11
f 85//11 151//11 152//11
f 145//11 143//11 85//11
f 104//11 125//11 85//11
f 134//11 131//11 85//11
f 149//11 146//11 85//11
f 152//11 150//11 85//11
f 140//11 119//11 85//11
f 147//11 101//11 85//11
f 144//11 151//11 85//11
f 153//11 141//11 85//11
f 139//11 148//11 85//11
f 111//15 85//11 93//11
f 85//11 154//11 153//11
f 155//17 156//17 157//17
f 157//17 158//17 155//17
f 159//18 160//18 161//18
f 161//18 162//18 159//18
f 163//19 164//19 165//19
f 166//20 165//20 167//20
f 168//21 167//21 169//21
f 170//22 169//22 171//22
f 172//23 171//23 173//23
f 174//24 173//24 175//24
f 176//25 175//25 177//25
f 178//26 177//26 179//26
f 180//27 179//27 181//27
f 182//28 181//28 183//28
f 184//29 183//29 185//29
f 186//30 185//30 187//30
f 188//31 187//31 189//31
f 190//32 189//32 191//32
f 192//33 191//33 193//33
f 194//34 193//34 195//34
f 196//35 195//35 197//35
f 198//36 197//36 199//36
f 200//37 199//37 201//37
f 202//38 201//38 203//38
f 204//39 203//39 205//39
f 206//40 205//40 207//40
f 208//41 207//41 209//41
f 210//42 209//42 211//42
f 212//43 211//43 213//43
f 214//44 213//44 215//44
f 216//45 215//45 217//45
f 218//46 217//46 219//46
f 220//47 219//47 221//47
f 222//48 221//48 223//48
f 224//49 223//49 225//49
f 226//50 225//50 227//50
f 228//51 227//51 229//51
f 230//52 229//52 231//52
f 232//53 231//53 233//53
f 234//54 233//54 235//54
f 236//55 235//55 237//55
f 238//56 237//56 239//56
f 240//57 239//57 241//57
f 242//58 241//58 243//58
f 244//59 243//59 245//59
f 246//60 245//60 247//60
f 248//61 247//61 249//61
f 250//62 249//62 251//62
f 252//63 251//63 253//63
f 254//64 253//64 255//64
f 256//65 255//65 257//65
f 258//66 257//66 259//66
f 260//67 259//67 261//67
f 262//68 261//68 263//68
f 264//69 263//69 265//69
f 266//70 265//70 267//70
f 268//71 267//71 269//71
f 270//72 269//72 271//72
f 272//73 271//73 273//73
f 274//74 273//74 275//74
f 276//75 275//75 277//75
f 278//76 277//76 279//76
f 280//77 279//77 281//77
f 282//78 281//78 283//78
f 284//79 283//79 285//79
f 286//80 285//80 287//80
f 288//81 287//81 289//81
f 290//82 289//82 291//82
f 292//83 291//83 293//83
f 294//84 293//84 295//84
f 296//85 295//85 297//85
f 298//86 297//86 299//86
f 300//87 299//87 301//87
f 302//88 301//88 303//88
f 304//89 303//89 305//89
f 306//90 305//90 307//90
f 307//90 308//90 306//90
f 305//89 306//89 304//89
f 303//88 304//88 302//88
f 301//87 302//87 300//87
f 299//86 300//86 298//86
f 297//85 298//85 296//85
f 295//84 296//84 294//84
f 293//83 294//83 292//83
f 291//82 292//82 290//82
f 289//81 290//81 288//81
f 287//80 288//80 286//80
f 285//79 286//79 284//79
f 283//78 284//78 282//78
f 281//77 282//77 280//77
f 279//76 280//76 278//76
f 277//75 278//75 276//75
f 275//74 276//74 274//74
f 273//73 274//73 272//73
f 271//72 272//72 270//72
f 269//71 270//71 268//71
f 267//70 268//70 266//70
f 265//69 266//69 264//69
f 263//68 264//68 262//68
f 261//67 262//67 260//67
f 259//66 260//66 258//66
f 257//65 258//65 256//65
f 255//64 256//64 254//64
f 253//63 254//63 252//63
f 251//62 252//62 250//62
f 249//61 250//61 248//61
f 247//60 248//60 246//60
f 245//59 246//59 244//59
f 243//58 244//58 242//58
f 241//57 242//57 240//57
f 239//56 240//56 238//56
f 237//55 238//55 236//55
f 235//54 236//54 234//54
f 233//53 234//53 232//53
f 231//52 232//52 230//52
f 229//51 230//51 228//51
f 227//50 228//50 226//50
f 225//49 226//49 224//49
f 223//48 224//48 222//48
f 221//47 222//47 220//47
f 219//46 220//46 218//46
f 217//45 218//45 216//45
f 215//44 216//44 214//44
f 213//43 214//43 212//43
f 211//42 212//42 210//42
f 209//41 210//41 208//41
f 207//40 208//40 206//40
f 205//39 206//39 204//39
f 203//38 204//38 202//38
f 201//37 202//37 200//37
f 199//36 200//36 198//36
f 197//35 198//35 196//35
f 195//34 196//34 194//34
f 193//33 194//33 192//33
f 191//32 192//32 190//32
f 189//31 190//31 188//31
f 187//30 188//30 186//30
f 185//29 186//29 184//29
f 183//28 184//28 182//28
f 181//27 182//27 180//27
f 179//26 180//26 178//26
f 177//25 178//25 176//25
f 175//24 176//24 174//24
f 173//23 174//23 172//23
f 171//22 172//22 170//22
f 169//21 170//21 168//21
f 167//20 168//20 166//20
f 165//19 166//19 163//19
