# Blender 4.1.0
# www.blender.org
mtllib wallSegment.mtl
o mesh0.001
v 1.574800 -0.111669 1.282021
v 1.574800 -0.102556 1.307832
v 1.574800 0.096453 1.318763
v 1.574800 0.114111 1.265651
v 1.574800 0.107487 1.296381
v 1.574800 0.111669 1.282021
v 1.574800 -0.114111 1.265651
v 1.574800 -0.107487 1.296381
v 1.574800 -0.096453 1.318763
v 1.574800 0.012384 1.371065
v 1.574800 0.041449 1.363966
v 1.574800 0.057109 1.356398
v 1.574800 0.102556 1.307832
v 1.574800 -0.087589 1.330847
v 1.574800 -0.079035 1.339907
v 1.574800 -0.069624 1.348039
v 1.574800 -0.057109 1.356398
v 1.574800 0.027271 1.368330
v 1.574800 0.087589 1.330847
v 1.574800 -0.009946 1.371385
v 1.574800 0.067583 1.349514
v 1.574800 0.077229 1.341660
v 1.574800 -0.041449 1.363966
v 1.574800 -0.027270 1.368330
v 1.574800 0.114300 -0.000000
v 1.574800 -0.114300 0.000000
v -1.574800 0.114300 -0.000000
v -1.574800 0.114300 1.257300
v 1.574800 0.114300 1.257300
v 1.574800 0.114300 -0.000000
v -1.574800 0.114111 1.265651
v -1.574800 0.111669 1.282021
v -1.574800 0.107487 1.296381
v -1.574800 0.096453 1.318763
v -1.574800 -0.102556 1.307832
v -1.574800 -0.111669 1.282021
v -1.574800 0.102556 1.307832
v -1.574800 0.057109 1.356398
v -1.574800 0.041449 1.363966
v -1.574800 0.009946 1.371385
v -1.574800 -0.096453 1.318763
v -1.574800 -0.107487 1.296381
v -1.574800 -0.114111 1.265651
v -1.574800 0.087589 1.330847
v -1.574800 -0.057109 1.356398
v -1.574800 -0.069624 1.348039
v -1.574800 -0.079035 1.339907
v -1.574800 -0.087589 1.330847
v -1.574800 0.077229 1.341660
v -1.574800 0.067583 1.349514
v -1.574800 0.027271 1.368330
v -1.574800 -0.012384 1.371065
v -1.574800 -0.027270 1.368330
v -1.574800 -0.041449 1.363966
v -1.574800 -0.114300 0.000000
v -1.574800 0.114300 -0.000000
v -1.574800 -0.114300 0.000000
v 1.574800 -0.114300 0.000000
v 1.574800 -0.114300 1.257300
v -1.574800 -0.114300 1.257300
v -1.574800 -0.114300 0.000000
v -1.574800 0.114300 -0.000000
v 1.574800 0.114300 -0.000000
v 1.574800 -0.114300 0.000000
v -1.574800 -0.114387 1.257302
v 1.574800 -0.114486 1.257305
v -1.574800 -0.111387 1.285359
v 1.574800 -0.109938 1.291115
v -1.574800 -0.098803 1.315192
v 1.574800 -0.092876 1.324458
v -1.574800 -0.078849 1.340830
v 1.574800 -0.068547 1.349473
v -1.574800 -0.043251 1.363884
v 1.574800 -0.037498 1.365609
v 1.574800 -0.000797 1.372320
v -1.574800 0.000797 1.372320
v 1.574800 0.043251 1.363884
v -1.574800 0.037498 1.365609
v -1.574800 0.068549 1.349472
v 1.574800 0.078846 1.340834
v -1.574800 0.092876 1.324458
v 1.574800 0.098804 1.315192
v -1.574800 0.109939 1.291115
v 1.574800 0.111387 1.285359
v -1.574800 0.114486 1.257305
v 1.574800 0.114387 1.257302
vn 1.0000 -0.0000 -0.0000
vn 1.0000 0.0001 -0.0000
vn 1.0000 -0.0001 -0.0000
vn -0.0000 1.0000 -0.0000
vn -1.0000 -0.0000 -0.0000
vn -1.0000 -0.0001 -0.0000
vn -1.0000 0.0001 -0.0000
vn -0.0000 -1.0000 -0.0000
vn -0.0000 -0.0000 -1.0000
vn -0.0002 -0.9682 0.2501
vn 0.0002 -0.9911 0.1332
vn 0.0003 -0.9544 0.2987
vn -0.0003 -0.8627 0.5058
vn 0.0004 -0.8126 0.5828
vn -0.0004 -0.6759 0.7370
vn 0.0004 -0.5966 0.8025
vn -0.0003 -0.3726 0.9280
vn 0.0001 -0.3239 0.9461
vn -0.0001 0.0041 1.0000
vn 0.0001 -0.0041 1.0000
vn 0.0003 0.3726 0.9280
vn -0.0004 0.5966 0.8025
vn 0.0004 0.6758 0.7370
vn -0.0004 0.8126 0.5828
vn 0.0003 0.8627 0.5058
vn -0.0003 0.9544 0.2987
vn 0.0002 0.9682 0.2501
vn -0.0002 0.9911 0.1332
vn -0.0000 0.9943 0.1063
vn -0.0001 0.3239 0.9461
vn -0.0000 -0.9943 0.1063
s 1
usemtl 0.615686_0.811765_0.929412_0.000000_0.001
f 4//1 9//1 2//1
f 4//1 6//2 5//3
f 4//1 1//1 7//1
f 4//1 8//1 1//1
f 4//1 13//1 3//1
f 4//1 5//3 13//1
f 4//1 15//1 14//1
f 4//1 16//1 15//1
f 4//1 17//1 16//1
f 4//1 18//1 10//1
f 4//1 3//1 19//1
f 2//1 8//1 4//1
f 4//1 21//1 12//1
f 4//1 22//1 21//1
f 4//1 23//1 17//1
f 11//1 18//1 4//1
f 19//1 22//1 4//1
f 14//1 9//1 4//1
f 4//1 24//1 23//1
f 20//1 24//1 4//1
f 12//1 11//1 4//1
f 10//1 20//1 4//1
f 25//1 4//1 7//1
f 7//1 26//1 25//1
f 27//4 28//4 29//4
f 29//4 30//4 27//4
f 31//5 39//5 38//5
f 31//5 42//5 35//5
f 33//6 32//7 31//5
f 34//5 37//5 31//5
f 31//5 41//5 48//5
f 35//5 41//5 31//5
f 36//5 42//5 31//5
f 44//5 34//5 31//5
f 31//5 49//5 44//5
f 31//5 51//5 39//5
f 40//5 51//5 31//5
f 46//5 45//5 31//5
f 47//5 46//5 31//5
f 37//5 33//6 31//5
f 38//5 50//5 31//5
f 31//5 53//5 52//5
f 48//5 47//5 31//5
f 43//5 36//5 31//5
f 45//5 54//5 31//5
f 50//5 49//5 31//5
f 52//5 40//5 31//5
f 54//5 53//5 31//5
f 55//5 43//5 31//5
f 31//5 56//5 55//5
f 57//8 58//8 59//8
f 59//8 60//8 57//8
f 61//9 62//9 63//9
f 63//9 64//9 61//9
f 67//10 66//11 68//12
f 69//13 68//12 70//14
f 71//15 70//14 72//16
f 73//17 72//16 74//18
f 73//17 74//18 75//19
f 76//20 75//19 77//21
f 79//22 77//21 80//23
f 81//24 80//23 82//25
f 83//26 82//25 84//27
f 85//28 84//27 86//29
f 84//27 85//28 83//26
f 82//25 83//26 81//24
f 80//23 81//24 79//22
f 77//21 79//22 78//30
f 77//21 78//30 76//20
f 75//19 76//20 73//17
f 72//16 73//17 71//15
f 70//14 71//15 69//13
f 68//12 69//13 67//10
f 66//11 67//10 65//31
