# Blender 4.1.0
# www.blender.org
mtllib wallPostBall.mtl
o mesh0
v 0.014673 0.007684 1.688646
v 0.000392 -0.021499 1.688057
v -0.016586 0.009868 1.688165
v -0.031170 -0.009557 1.685171
v 0.028164 -0.023557 1.683966
v 0.005604 0.034842 1.684395
v 0.008339 -0.037137 1.683162
v -0.024904 0.037648 1.680536
v 0.033289 0.018611 1.683755
v 0.061202 -0.013402 1.672065
v -0.024937 -0.043648 1.678712
v -0.038251 0.014853 1.682108
v 0.007957 -0.064707 1.670031
v -0.064708 -0.007956 1.670032
v -0.007956 0.064708 1.670031
v 0.064708 0.007957 1.670031
v -0.057564 0.031366 1.669362
v 0.031364 0.057568 1.669360
v 0.058310 -0.045451 1.663367
v 0.034991 -0.056586 1.668851
v -0.045452 -0.058311 1.663366
v -0.056585 -0.034990 1.668851
v -0.034991 0.056586 1.668851
v 0.056586 0.034990 1.668851
v -0.010572 -0.072878 1.662825
v -0.072879 0.010570 1.662825
v -0.057412 0.062775 1.652854
v 0.010569 0.072885 1.662820
v 0.062776 0.057409 1.652855
v 0.088299 -0.002289 1.648759
v -0.002287 -0.088295 1.648763
v -0.088299 0.002289 1.648759
v 0.002290 0.088300 1.648758
v 0.081336 -0.037467 1.646841
v 0.034444 -0.085624 1.643762
v -0.037466 -0.081335 1.646842
v -0.085622 -0.034443 1.643765
v -0.081337 0.037467 1.646840
v -0.034442 0.085623 1.643764
v 0.037469 0.081337 1.646840
v 0.085623 0.034444 1.643764
v 0.056150 -0.071760 1.644599
v -0.071766 -0.056146 1.644596
v 0.077022 -0.059001 1.636263
v -0.059000 -0.077021 1.636265
v -0.077021 0.059002 1.636264
v 0.059000 0.077020 1.636266
v 0.096067 -0.035578 1.627023
v 0.010750 -0.101484 1.627545
v -0.035579 -0.096066 1.627024
v -0.101487 -0.010747 1.627542
v -0.096066 0.035581 1.627024
v -0.026842 0.101060 1.623247
v 0.035579 0.096066 1.627024
v 0.101487 0.010748 1.627541
v 0.106027 -0.016868 1.616197
v 0.069301 -0.082687 1.615848
v -0.016865 -0.106027 1.616198
v -0.081652 -0.066809 1.621014
v -0.106027 0.016868 1.616197
v -0.069303 0.082687 1.615846
v 0.005097 0.103154 1.625397
v 0.081653 0.066810 1.621014
v 0.029933 -0.104479 1.612790
v -0.104480 -0.029938 1.612785
v 0.104480 0.029939 1.612785
v 0.093260 -0.061004 1.603506
v -0.058729 -0.092456 1.609242
v -0.093260 0.061006 1.603504
v 0.058730 0.092455 1.609242
v 0.105284 -0.037075 1.601969
v -0.037079 -0.105283 1.601966
v -0.105285 0.037073 1.601968
v 0.037080 0.105282 1.601970
v 0.112427 0.014160 1.595770
v 0.055726 -0.098858 1.594139
v 0.014158 -0.112427 1.595769
v -0.099035 -0.054523 1.596056
v -0.112427 -0.014160 1.595770
v -0.055729 0.098857 1.594138
v 0.015580 0.112089 1.595532
v 0.099652 0.053158 1.596455
v -0.083793 -0.076395 1.593345
v -0.016106 0.111326 1.599761
v 0.083798 0.076389 1.593344
v 0.112612 -0.021871 1.583179
v -0.021871 -0.112612 1.583176
v -0.066291 -0.093134 1.586170
v -0.112612 0.021870 1.583178
v 0.066292 0.093133 1.586178
v 0.091536 0.069806 1.579838
v 0.079456 -0.083496 1.572943
v -0.079457 0.083495 1.572945
v 0.114564 0.002972 1.562474
v 0.104793 -0.046517 1.565408
v 0.094183 -0.065138 1.567015
v 0.033068 -0.109870 1.567929
v 0.002972 -0.114564 1.562474
v -0.046513 -0.104795 1.565411
v -0.095970 -0.062822 1.565537
v -0.107181 -0.040295 1.560824
v -0.114564 -0.002971 1.562474
v -0.104793 0.046516 1.565407
v -0.094186 0.065133 1.567014
v -0.033071 0.109869 1.567922
v -0.005187 0.114952 1.572842
v 0.041266 0.107398 1.574444
v 0.109871 0.033066 1.567922
v 0.054095 -0.099660 1.554265
v -0.079067 -0.082434 1.563886
v -0.054095 0.099660 1.554262
v 0.078014 0.083413 1.564280
v 0.099661 0.054094 1.554261
v 0.109724 -0.023377 1.550470
v -0.023373 -0.109724 1.550468
v -0.061228 -0.093595 1.548732
v -0.109724 0.023377 1.550469
v -0.006105 0.112419 1.552584
v 0.023379 0.109723 1.550468
v 0.052428 0.099755 1.550307
v 0.088813 -0.057843 1.530129
v 0.070745 -0.079156 1.530194
v 0.023939 -0.103240 1.530119
v -0.074758 -0.075155 1.530130
v -0.103240 -0.023938 1.530119
v -0.088812 0.057844 1.530129
v -0.070741 0.079162 1.530193
v -0.023941 0.103240 1.530118
v 0.079155 0.070748 1.530193
v 0.103240 0.023939 1.530119
v 0.105833 -0.003531 1.530306
v 0.099262 -0.036946 1.530233
v -0.003531 -0.105833 1.530306
v -0.036945 -0.099263 1.530233
v -0.092756 -0.051141 1.530294
v -0.105833 0.003532 1.530306
v -0.099263 0.036946 1.530233
v 0.003531 0.105833 1.530306
v 0.036948 0.099262 1.530233
v 0.044682 -0.095639 1.530321
v -0.044682 0.095639 1.530321
v 0.095638 0.044687 1.530321
v -0.058652 -0.087562 1.530359
v 0.058652 0.087562 1.530359
v 0.115102 0.115102 1.530350
v 0.033881 0.099787 1.530350
v 0.020536 0.103260 1.530350
v 0.104924 0.009167 1.530350
v 0.006883 0.105157 1.530350
v -0.115102 0.115102 1.530350
v -0.013771 0.104554 1.530350
v 0.102364 0.025040 1.530350
v 0.096459 0.042440 1.530350
v 0.086384 0.060490 1.530350
v 0.071244 0.077753 1.530350
v 0.052738 0.091323 1.530350
v -0.086384 0.060490 1.530350
v -0.096459 0.042440 1.530350
v -0.102364 0.025040 1.530350
v -0.104924 0.009167 1.530350
v -0.115102 -0.115102 1.530350
v -0.105157 -0.006883 1.530350
v -0.083547 -0.064133 1.530350
v -0.103260 -0.020538 1.530350
v -0.099785 -0.033887 1.530350
v -0.072867 -0.076130 1.530350
v -0.006883 -0.105157 1.530350
v -0.020536 -0.103260 1.530350
v 0.115102 -0.115102 1.530350
v -0.033881 0.099787 1.530350
v -0.060401 -0.086283 1.530350
v -0.033881 -0.099786 1.530350
v 0.013771 -0.104554 1.530350
v 0.033881 -0.099786 1.530350
v 0.048624 -0.093427 1.530350
v 0.060401 -0.086283 1.530350
v -0.052738 0.091323 1.530350
v -0.071244 0.077753 1.530350
v -0.092389 -0.050692 1.530350
v -0.048624 -0.093427 1.530350
v 0.099785 -0.033887 1.530350
v 0.105157 -0.006883 1.530350
v 0.083547 -0.064133 1.530350
v 0.092389 -0.050692 1.530350
v 0.103260 -0.020538 1.530350
v 0.072867 -0.076130 1.530350
v 0.115102 0.115102 1.530350
v 0.115102 0.115102 1.441450
v -0.115102 0.115102 1.441450
v -0.115102 0.115102 1.530350
v -0.115102 0.115102 1.530350
v -0.115102 0.115102 1.441450
v -0.115102 -0.115102 1.441450
v -0.115102 -0.115102 1.530350
v -0.115102 -0.115102 1.530350
v -0.115102 -0.115102 1.441450
v 0.115102 -0.115102 1.441450
v 0.115102 -0.115102 1.530350
v -0.152400 0.152400 1.397000
v -0.152400 -0.152400 1.397000
v -0.115102 -0.115102 1.441450
v -0.115102 0.115102 1.441450
v 0.115102 -0.115102 1.530350
v 0.115102 -0.115102 1.441450
v 0.115102 0.115102 1.441450
v 0.115102 0.115102 1.530350
v 0.152400 0.152400 1.397000
v -0.152400 0.152400 1.397000
v -0.115102 0.115102 1.441450
v 0.115102 0.115102 1.441450
v -0.152400 -0.152400 1.397000
v 0.152400 -0.152400 1.397000
v 0.115102 -0.115102 1.441450
v -0.115102 -0.115102 1.441450
v -0.152400 0.152400 1.397000
v -0.152400 0.152400 -0.000000
v -0.152400 -0.152400 0.000000
v -0.152400 -0.152400 1.397000
v 0.152400 0.152400 1.397000
v 0.152400 0.152400 -0.000000
v -0.152400 0.152400 -0.000000
v -0.152400 0.152400 1.397000
v -0.152400 -0.152400 1.397000
v -0.152400 -0.152400 0.000000
v 0.152400 -0.152400 0.000000
v 0.152400 -0.152400 1.397000
v 0.152400 -0.152400 1.397000
v 0.152400 -0.152400 0.000000
v 0.152400 0.152400 -0.000000
v 0.152400 0.152400 1.397000
v -0.152400 -0.152400 0.000000
v -0.152400 0.152400 -0.000000
v 0.152400 0.152400 -0.000000
v 0.152400 -0.152400 0.000000
v 0.152400 0.152400 1.397000
v 0.115102 0.115102 1.441450
v 0.115102 -0.115102 1.441450
v 0.152400 -0.152400 1.397000
vn 0.2668 -0.1999 0.9428
vn 0.1152 0.0529 0.9919
vn -0.0100 -0.1678 0.9858
vn 0.2971 0.1607 0.9412
vn -0.2126 0.3228 0.9223
vn -0.1293 0.0859 0.9879
vn 0.0495 0.3165 0.9473
vn 0.0759 -0.3529 0.9326
vn -0.2097 -0.3764 0.9024
vn -0.2795 -0.1029 0.9546
vn 0.5201 -0.1306 0.8440
vn -0.0700 0.5600 0.8255
vn -0.5019 0.2722 0.8210
vn -0.3523 0.1329 0.9264
vn 0.2684 0.4928 0.8277
vn 0.0751 -0.5608 0.8245
vn 0.3021 -0.4933 0.8157
vn -0.5566 -0.0746 0.8274
vn -0.4984 -0.2948 0.8153
vn -0.3068 0.4980 0.8111
vn 0.5669 0.0886 0.8190
vn 0.4913 0.3055 0.8157
vn -0.1251 -0.6265 0.7693
vn -0.6295 0.1169 0.7682
vn -0.4986 0.5510 0.6691
vn 0.1169 0.6296 0.7681
vn 0.5466 0.4973 0.6737
vn -0.0201 -0.7735 0.6334
vn -0.7736 0.0201 0.6334
vn 0.0145 0.7723 0.6350
vn 0.7677 -0.0259 0.6403
vn 0.4862 -0.6285 0.6070
vn 0.5048 -0.3913 0.7695
vn 0.3003 -0.7453 0.5953
vn -0.6226 -0.4842 0.6147
vn -0.3913 -0.5172 0.7612
vn -0.7450 -0.2970 0.5973
vn -0.7050 0.3134 0.6363
vn -0.3048 0.7406 0.5988
vn 0.3134 0.7049 0.6362
vn 0.7448 0.3015 0.5953
vn 0.6751 -0.5174 0.5259
vn -0.5157 -0.6735 0.5296
vn 0.8303 -0.3114 0.4622
vn 0.7087 -0.3078 0.6348
vn 0.0850 -0.8829 0.4617
vn -0.3060 -0.8308 0.4648
vn -0.3110 -0.7082 0.6338
vn -0.8830 -0.0850 0.4617
vn -0.8303 0.3114 0.4622
vn -0.2499 0.8735 0.4178
vn 0.2983 0.8396 0.4539
vn 0.8830 0.0850 0.4617
vn 0.9238 -0.1258 0.3617
vn -0.1258 -0.9238 0.3617
vn -0.9238 0.1258 0.3617
vn 0.0519 0.8980 0.4368
vn 0.5955 -0.7214 0.3535
vn -0.7164 -0.5721 0.3994
vn -0.5933 0.7204 0.3591
vn 0.7149 0.5697 0.4055
vn 0.2871 -0.8986 0.3319
vn -0.8992 -0.2846 0.3322
vn 0.8988 0.2832 0.3347
vn 0.9779 0.1160 0.1737
vn 0.4785 -0.8629 0.1625
vn 0.1178 -0.9777 0.1737
vn -0.8701 -0.4569 0.1850
vn -0.9785 -0.1230 0.1655
vn -0.4739 0.8643 0.1687
vn 0.1353 0.9757 0.1723
vn 0.8747 0.4457 0.1902
vn -0.5674 -0.8185 0.0904
vn -0.5189 -0.7982 0.3059
vn -0.7270 -0.6673 0.1621
vn 0.5703 0.8164 0.0907
vn 0.5189 0.7982 0.3059
vn 0.7144 0.6756 0.1825
vn 0.8021 0.5967 0.0236
vn 0.6878 -0.7257 -0.0188
vn -0.6878 0.7256 -0.0188
vn 0.9933 0.0327 -0.1107
vn 0.9805 -0.1826 0.0729
vn 0.9098 -0.4073 -0.0792
vn 0.9153 -0.3375 0.2199
vn 0.8075 -0.5383 0.2410
vn 0.2872 -0.9562 -0.0573
vn 0.0327 -0.9933 -0.1107
vn -0.1826 -0.9805 0.0729
vn -0.4066 -0.9106 -0.0738
vn -0.3361 -0.9159 0.2195
vn -0.9358 -0.3342 -0.1123
vn -0.9936 -0.0390 -0.1065
vn -0.9805 0.1826 0.0729
vn -0.9099 0.4073 -0.0792
vn -0.9153 0.3375 0.2199
vn -0.8076 0.5383 0.2410
vn -0.2921 0.9548 -0.0558
vn -0.1534 0.9649 0.2130
vn -0.0254 0.9996 -0.0144
vn 0.3469 0.9379 0.0003
vn 0.3220 0.9155 0.2412
vn 0.9555 0.2893 -0.0579
vn 0.4754 -0.8624 -0.1740
vn -0.6887 -0.7175 -0.1043
vn -0.8278 -0.5535 -0.0916
vn -0.4755 0.8623 -0.1741
vn 0.6746 0.7289 -0.1168
vn 0.8637 0.4721 -0.1766
vn 0.9557 -0.2049 -0.2113
vn -0.2049 -0.9557 -0.2113
vn -0.5344 -0.8165 -0.2185
vn -0.9557 0.2049 -0.2113
vn 0.1929 0.9619 -0.1936
vn 0.4731 0.8567 -0.2055
vn -0.0583 0.9778 -0.2013
vn 0.7697 -0.5956 -0.2298
vn 0.8162 -0.5724 -0.0779
vn 0.6126 -0.7486 -0.2536
vn 0.2142 -0.9431 -0.2542
vn -0.6966 -0.6665 -0.2658
vn -0.9397 -0.2129 -0.2675
vn -0.7697 0.5956 -0.2298
vn -0.8163 0.5724 -0.0779
vn -0.6126 0.7486 -0.2536
vn -0.2239 0.9379 -0.2650
vn 0.7129 0.6506 -0.2619
vn 0.9431 0.2142 -0.2543
vn 0.9561 -0.0284 -0.2915
vn 0.8987 -0.3368 -0.2808
vn 0.8657 -0.4316 -0.2535
vn -0.0284 -0.9561 -0.2916
vn -0.3320 -0.8955 -0.2966
vn -0.8370 -0.4758 -0.2702
vn -0.9561 0.0284 -0.2915
vn -0.8987 0.3368 -0.2808
vn -0.8657 0.4316 -0.2536
vn 0.0405 0.9510 -0.3065
vn 0.4061 -0.8617 -0.3044
vn -0.4061 0.8617 -0.3044
vn 0.8616 0.4061 -0.3044
vn -0.5738 -0.7509 -0.3270
vn 0.6100 0.7464 -0.2659
vn 0.4439 0.8195 -0.3624
vn 0.3165 0.8918 -0.3233
vn -0.4486 -0.8286 -0.3349
vn -0.7416 0.6293 -0.2324
vn 0.7416 -0.6293 -0.2324
vn 0.5177 0.6782 0.5215
vn -0.6776 0.5219 0.5181
vn -0.0000 -0.0000 1.0000
vn 0.0002 -0.0002 1.0000
vn -0.0002 0.0002 1.0000
vn -0.0000 1.0000 -0.0000
vn -1.0000 -0.0000 -0.0000
vn -0.0000 -1.0000 -0.0000
vn -0.7660 -0.0000 0.6428
vn 1.0000 -0.0000 -0.0000
vn -0.0000 0.7660 0.6428
vn -0.0000 -0.7660 0.6428
vn -0.0000 -0.0000 -1.0000
vn 0.7660 -0.0000 0.6428
s 1
usemtl 0.615686_0.811765_0.929412_0.000000_0.000000
f 5//1 1//2 2//3
f 9//4 1//2 5//1
f 8//5 3//6 6//7
f 5//1 2//3 7//8
f 11//9 2//3 4//10
f 9//4 6//7 1//2
f 10//11 9//4 5//1
f 11//9 7//8 2//3
f 15//12 8//5 6//7
f 17//13 12//14 8//5
f 18//15 6//7 9//4
f 13//16 20//17 7//8
f 14//18 22//19 4//10
f 15//12 23//20 8//5
f 16//21 24//22 9//4
f 25//23 13//16 11//9
f 26//24 14//18 17//13
f 27//25 17//13 23//20
f 28//26 15//12 18//15
f 29//27 18//15 24//22
f 31//28 13//16 25//23
f 32//29 14//18 26//24
f 33//30 15//12 28//26
f 30//31 16//21 10//11
f 42//32 19//33 20//17
f 35//34 13//16 31//28
f 43//35 21//36 22//19
f 37//37 14//18 32//29
f 38//38 17//13 27//25
f 39//39 15//12 33//30
f 40//40 18//15 29//27
f 41//41 16//21 30//31
f 42//32 20//17 35//34
f 43//35 22//19 37//37
f 27//25 23//20 39//39
f 29//27 24//22 41//41
f 44//42 19//33 42//32
f 45//43 21//36 43//35
f 48//44 30//31 34//45
f 49//46 35//34 31//28
f 50//47 31//28 36//48
f 51//49 37//37 32//29
f 52//50 32//29 38//38
f 53//51 39//39 33//30
f 54//52 33//30 40//40
f 55//53 41//41 30//31
f 56//54 30//31 48//44
f 58//55 31//28 50//47
f 60//56 32//29 52//50
f 62//57 33//30 54//52
f 57//58 42//32 35//34
f 59//59 43//35 37//37
f 61//60 27//25 39//39
f 63//61 29//27 41//41
f 64//62 35//34 49//46
f 65//63 37//37 51//49
f 66//64 41//41 55//53
f 75//65 55//53 56//54
f 76//66 57//58 64//62
f 77//67 49//46 58//55
f 78//68 59//59 65//63
f 79//69 51//49 60//56
f 80//70 61//60 53//51
f 81//71 62//57 54//52
f 82//72 63//61 66//64
f 88//73 68//74 83//75
f 90//76 70//77 85//78
f 91//79 85//78 82//72
f 92//80 57//58 76//66
f 93//81 61//60 80//70
f 94//82 75//65 86//83
f 95//84 71//85 67//86
f 97//87 76//66 77//67
f 98//88 77//67 87//89
f 99//90 72//91 88//73
f 101//92 78//68 79//69
f 102//93 79//69 89//94
f 103//95 73//96 69//97
f 105//98 80//70 84//99
f 106//100 84//99 81//71
f 107//101 81//71 74//102
f 107//101 74//102 90//76
f 108//103 82//72 75//65
f 109//104 76//66 97//87
f 110//105 88//73 83//75
f 100//106 78//68 101//92
f 111//107 80//70 105//98
f 112//108 90//76 85//78
f 113//109 91//79 82//72
f 113//109 82//72 108//103
f 114//110 94//82 86//83
f 115//111 98//88 87//89
f 116//112 99//90 88//73
f 116//112 88//73 110//105
f 117//113 102//93 89//94
f 119//114 106//100 107//101
f 120//115 107//101 90//76
f 120//115 90//76 112//108
f 118//116 106//100 119//114
f 121//117 95//84 96//118
f 122//119 96//118 92//80
f 122//119 92//80 109//104
f 123//120 97//87 98//88
f 124//121 116//112 110//105
f 124//121 110//105 100//106
f 125//122 101//92 102//93
f 126//123 103//95 104//124
f 127//125 104//124 93//81
f 127//125 93//81 111//107
f 128//126 105//98 118//116
f 129//127 120//115 112//108
f 129//127 112//108 113//109
f 130//128 108//103 94//82
f 131//129 94//82 114//110
f 132//130 95//84 121//131
f 133//132 98//88 115//111
f 134//133 99//90 116//112
f 135//134 100//106 101//92
f 136//135 102//93 117//113
f 137//136 103//95 126//137
f 138//138 118//116 119//114
f 140//139 109//104 123//120
f 135//134 101//92 125//122
f 141//140 111//107 128//126
f 142//141 113//109 130//128
f 133//132 123//120 98//88
f 136//135 125//122 102//93
f 138//138 128//126 118//116
f 131//129 130//128 94//82
f 143//142 116//112 124//121
f 144//143 120//115 129//127
f 113//109 142//141 129//127
f 120//115 144//144 139//145
f 119//114 139//145 138//138
f 111//107 141//140 127//125
f 117//113 137//136 136//135
f 116//112 143//146 134//133
f 115//111 134//133 133//132
f 109//104 140//139 122//119
f 114//110 132//130 131//129
f 120//115 139//145 119//114
f 103//95 137//136 117//113
f 100//106 135//134 124//121
f 99//90 134//133 115//111
f 95//84 132//130 114//110
f 108//103 130//128 113//109
f 105//98 128//126 111//107
f 104//124 127//147 126//123
f 97//87 123//120 109//104
f 96//118 122//148 121//117
f 91//79 113//109 112//108
f 107//101 120//115 119//114
f 106//100 118//116 105//98
f 89//94 103//95 117//113
f 87//89 99//90 115//111
f 86//83 95//84 114//110
f 75//65 94//82 108//103
f 85//78 91//79 112//108
f 81//71 107//101 106//100
f 80//70 111//107 93//81
f 79//69 102//93 101//92
f 83//75 100//106 110//105
f 77//67 98//88 97//87
f 76//66 109//104 92//80
f 84//99 106//100 105//98
f 69//97 93//81 104//124
f 69//97 104//124 103//95
f 73//96 103//95 89//94
f 78//68 100//106 83//75
f 72//91 99//90 87//89
f 67//86 92//80 96//118
f 67//86 96//118 95//84
f 71//85 95//84 86//83
f 66//64 75//65 82//72
f 70//77 90//76 74//102
f 61//60 93//81 69//97
f 65//63 79//69 78//68
f 68//74 88//73 72//91
f 64//62 77//67 76//66
f 57//58 92//80 67//86
f 73//96 89//94 60//56
f 60//56 89//94 79//69
f 72//91 87//89 58//55
f 58//55 87//89 77//67
f 71//85 86//83 56//54
f 56//54 86//83 75//65
f 53//51 84//99 80//70
f 63//61 82//72 85//78
f 63//61 85//78 70//77
f 59//59 78//68 83//75
f 59//59 83//75 68//74
f 55//53 75//65 66//64
f 54//52 70//77 74//102
f 54//52 74//102 81//71
f 62//57 81//71 84//99
f 62//57 84//99 53//51
f 52//50 69//97 73//96
f 52//50 73//96 60//56
f 51//49 79//69 65//63
f 50//47 68//74 72//91
f 50//47 72//91 58//55
f 49//46 77//67 64//62
f 48//44 67//86 71//85
f 48//44 71//85 56//54
f 47//149 63//61 70//77
f 47//149 70//77 54//52
f 46//150 61//60 69//97
f 46//150 69//97 52//50
f 45//43 59//59 68//74
f 45//43 68//74 50//47
f 44//42 57//58 67//86
f 44//42 67//86 48//44
f 41//41 66//64 63//61
f 39//39 53//51 61//60
f 37//37 65//63 59//59
f 35//34 64//62 57//58
f 32//29 60//56 51//49
f 31//28 58//55 49//46
f 30//31 56//54 55//53
f 29//27 63//61 47//149
f 40//40 47//149 54//52
f 33//30 62//57 53//51
f 27//25 61//60 46//150
f 38//38 46//150 52//50
f 43//35 59//59 45//43
f 36//48 45//43 50//47
f 42//32 57//58 44//42
f 34//45 44//42 48//44
f 29//27 47//149 40//40
f 27//25 46//150 38//38
f 21//36 45//43 36//48
f 19//33 44//42 34//45
f 28//26 40//40 33//30
f 26//24 38//38 32//29
f 25//23 36//48 31//28
f 10//11 34//45 30//31
f 16//21 41//41 24//22
f 18//15 40//40 28//26
f 15//12 39//39 23//20
f 17//13 38//38 26//24
f 14//18 37//37 22//19
f 21//36 36//48 25//23
f 13//16 35//34 20//17
f 19//33 34//45 10//11
f 11//9 21//36 25//23
f 9//4 24//22 18//15
f 6//7 18//15 15//12
f 8//5 23//20 17//13
f 12//14 17//13 14//18
f 11//9 22//19 21//36
f 5//1 20//17 19//33
f 5//1 19//33 10//11
f 4//10 12//14 14//18
f 4//10 22//19 11//9
f 7//8 11//9 13//16
f 7//8 20//17 5//1
f 9//4 10//11 16//21
f 3//6 8//5 12//14
f 3//6 12//14 4//10
f 1//2 6//7 3//6
f 3//6 4//10 2//3
f 3//6 2//3 1//2
f 145//151 147//151 146//151
f 150//151 151//151 149//151
f 145//151 152//151 148//152
f 145//151 153//151 152//151
f 145//151 154//151 153//151
f 149//151 147//151 145//151
f 149//151 145//151 150//151
f 145//151 156//151 155//151
f 146//151 156//151 145//151
f 150//151 158//151 157//151
f 159//151 158//151 150//151
f 155//151 154//151 145//151
f 162//151 150//151 161//151
f 162//151 160//153 150//151
f 161//151 164//151 162//151
f 161//151 165//151 164//151
f 161//151 167//151 168//151
f 161//151 169//151 167//151
f 160//153 159//151 150//151
f 166//151 163//151 161//151
f 161//151 171//151 166//151
f 161//151 168//151 172//151
f 169//151 174//151 173//151
f 169//151 175//151 174//151
f 150//151 177//151 170//151
f 178//151 177//151 150//151
f 173//151 167//151 169//151
f 176//151 175//151 169//151
f 150//151 157//151 178//151
f 169//151 183//151 186//151
f 169//151 185//151 181//151
f 182//151 185//151 169//151
f 169//151 145//151 182//151
f 170//151 151//151 150//151
f 163//151 179//151 161//151
f 161//151 172//151 180//151
f 184//151 183//151 169//151
f 181//151 184//151 169//151
f 180//151 171//151 161//151
f 186//151 176//151 169//151
f 179//151 165//151 161//151
f 148//152 182//151 145//151
f 187//154 188//154 189//154
f 189//154 190//154 187//154
f 191//155 192//155 193//155
f 193//155 194//155 191//155
f 195//156 196//156 197//156
f 197//156 198//156 195//156
f 199//157 200//157 201//157
f 201//157 202//157 199//157
f 203//158 204//158 205//158
f 205//158 206//158 203//158
f 207//159 208//159 209//159
f 209//159 210//159 207//159
f 211//160 212//160 213//160
f 213//160 214//160 211//160
f 215//155 216//155 217//155
f 217//155 218//155 215//155
f 219//154 220//154 221//154
f 221//154 222//154 219//154
f 223//156 224//156 225//156
f 225//156 226//156 223//156
f 227//158 228//158 229//158
f 229//158 230//158 227//158
f 231//161 232//161 233//161
f 233//161 234//161 231//161
f 235//162 236//162 237//162
f 237//162 238//162 235//162
