# Blender 4.1.0
# www.blender.org
mtllib podium_processed.mtl
o mesh44
v -0.357434 0.357434 1.286370
v 0.357434 0.357434 1.286370
v 0.357434 -0.357434 1.318630
v -0.357434 -0.357434 1.318630
v 0.443771 0.443771 0.265904
v 0.443771 0.443771 0.149638
v -0.443771 0.443771 0.149638
v -0.443771 0.443771 0.265904
v -0.443771 0.443771 0.149638
v -0.443771 0.443771 0.265904
v -0.443771 -0.443771 0.149638
v -0.443771 -0.443771 0.265904
v 0.443771 0.443771 0.265904
v -0.443771 0.443771 0.265904
v -0.443771 -0.443771 0.265904
v 0.443771 -0.443771 0.265904
v -0.412767 -0.412767 0.265904
v -0.412767 0.412767 0.265904
v 0.412767 -0.412767 0.265904
v 0.412767 0.412767 0.265904
v -0.412767 0.412767 0.265904
v 0.412767 0.412767 0.265904
v -0.405965 0.405965 0.293688
v 0.405965 0.405965 0.293688
v -0.412767 -0.412767 0.265904
v -0.412767 0.412767 0.265904
v -0.405965 0.405965 0.293688
v -0.405965 -0.405965 0.293688
v 0.412767 -0.412767 0.265904
v 0.412767 0.412767 0.265904
v 0.405965 0.405965 0.293688
v 0.405965 -0.405965 0.293688
v -0.412767 -0.412767 0.265904
v 0.412767 -0.412767 0.265904
v -0.405965 -0.405965 0.293688
v 0.405965 -0.405965 0.293688
v -0.405965 0.405965 0.293688
v 0.405965 0.405965 0.293688
v -0.405965 -0.405965 0.293688
v 0.405965 -0.405965 0.293688
v -0.392401 -0.392401 0.293688
v -0.392401 0.392401 0.293688
v 0.392401 -0.392401 0.293688
v 0.392401 0.392401 0.293688
v -0.392401 0.392401 0.293688
v 0.392401 0.392401 0.293688
v 0.392401 0.392401 1.146350
v -0.392401 0.392401 1.146350
v -0.392401 -0.392401 0.293688
v -0.392401 0.392401 0.293688
v -0.392401 0.392401 1.146350
v -0.392401 -0.392401 1.146350
v 0.392401 -0.392401 0.293688
v 0.392401 0.392401 0.293688
v 0.392401 0.392401 1.146350
v 0.392401 -0.392401 1.146350
v -0.392401 -0.392401 0.293688
v 0.392401 -0.392401 0.293688
v -0.392401 -0.392401 1.146350
v 0.392401 -0.392401 1.146350
v 0.443771 0.443771 0.265904
v 0.443771 0.443771 0.149638
v 0.443771 -0.443771 0.265904
v 0.443771 -0.443771 0.149638
v 0.392401 0.392401 1.146350
v -0.392401 0.392401 1.146350
v -0.392401 -0.392401 1.146350
v 0.392401 -0.392401 1.146350
v -0.405965 0.405965 1.146350
v 0.405965 0.405965 1.146350
v 0.405965 -0.405965 1.146350
v -0.405965 -0.405965 1.146350
v -0.405965 0.405965 1.146350
v 0.405965 0.405965 1.146350
v 0.412767 0.412767 1.157940
v -0.412767 0.412767 1.157940
v -0.405965 0.405965 1.146350
v -0.405965 -0.405965 1.146350
v -0.412767 0.412767 1.157940
v -0.412767 -0.412767 1.157940
v 0.405965 0.405965 1.146350
v 0.405965 -0.405965 1.146350
v 0.412767 0.412767 1.157940
v 0.412767 -0.412767 1.157940
v 0.412762 0.412763 1.157930
v -0.412762 0.412766 1.157937
v 0.435749 0.435749 1.176610
v -0.435749 0.435749 1.176610
v -0.435624 0.435624 1.177120
v 0.435624 0.435624 1.177120
v -0.435896 0.435897 1.175894
v 0.435896 0.435896 1.175894
v 0.436024 0.436024 1.175076
v -0.436024 0.436025 1.175075
v 0.436105 0.436105 1.174300
v -0.436105 0.436105 1.174300
v -0.436151 0.436152 1.173558
v 0.436151 0.436151 1.173557
v 0.436159 0.436159 1.172708
v -0.436159 0.436159 1.172708
v 0.436123 0.436122 1.171810
v -0.436123 0.436124 1.171810
v 0.436029 0.436029 1.170861
v -0.436029 0.436029 1.170860
v 0.435911 0.435911 1.170079
v -0.435911 0.435911 1.170078
v 0.435736 0.435737 1.169225
v -0.435736 0.435736 1.169226
v 0.435566 0.435566 1.168556
v -0.435566 0.435566 1.168556
v 0.435300 0.435300 1.167678
v -0.435300 0.435300 1.167677
v 0.434921 0.434921 1.166665
v -0.434921 0.434920 1.166666
v 0.434401 0.434400 1.165520
v -0.434401 0.434401 1.165521
v 0.433930 0.433930 1.164656
v -0.433930 0.433930 1.164656
v 0.433460 0.433460 1.163893
v -0.433459 0.433459 1.163892
v 0.432806 0.432806 1.162967
v -0.432805 0.432805 1.162966
v 0.432008 0.432008 1.161991
v -0.432006 0.432005 1.161988
v 0.430999 0.430999 1.160951
v -0.431001 0.430999 1.160954
v 0.429965 0.429965 1.160050
v -0.429971 0.429970 1.160055
v 0.428800 0.428800 1.159202
v -0.428808 0.428808 1.159207
v 0.427565 0.427565 1.158456
v -0.427561 0.427561 1.158451
v 0.426087 0.426087 1.157729
v -0.426370 0.426370 1.157859
v -0.424516 0.424516 1.157151
v 0.423794 0.423793 1.156949
v -0.422022 0.422023 1.156588
v 0.421217 0.421217 1.156495
v -0.419731 0.419731 1.156428
v 0.418782 0.418782 1.156446
v 0.417006 0.417007 1.156645
v -0.417363 0.417363 1.156585
v 0.415094 0.415094 1.157054
v -0.415053 0.415054 1.157068
v -0.412763 0.412762 1.157930
v -0.412766 -0.412762 1.157937
v -0.435749 0.435749 1.176610
v -0.435624 0.435624 1.177120
v -0.435896 0.435896 1.175894
v -0.436025 0.436024 1.175075
v -0.436105 0.436105 1.174300
v -0.436151 0.436151 1.173558
v -0.436159 0.436159 1.172709
v -0.436124 0.436123 1.171810
v -0.436029 0.436029 1.170860
v -0.435910 0.435911 1.170079
v -0.435737 0.435736 1.169225
v -0.435566 0.435566 1.168556
v -0.435300 0.435301 1.167678
v -0.434921 0.434921 1.166665
v -0.434400 0.434401 1.165520
v -0.433930 0.433930 1.164656
v -0.433459 0.433459 1.163892
v -0.432805 0.432805 1.162966
v -0.432005 0.432006 1.161988
v -0.430999 0.431001 1.160954
v -0.429967 0.429966 1.160050
v -0.428800 0.428800 1.159202
v -0.427564 0.427565 1.158456
v -0.426066 0.426066 1.157717
v -0.424332 0.424332 1.157109
v -0.422321 0.422321 1.156632
v -0.419930 0.419930 1.156429
v -0.418066 0.418067 1.156507
v -0.415968 0.415968 1.156839
v -0.414477 0.414476 1.157265
v -0.435749 -0.435749 1.176611
v -0.435624 -0.435624 1.177120
v -0.435896 -0.435896 1.175894
v -0.436024 -0.436024 1.175075
v -0.436105 -0.436105 1.174300
v -0.436151 -0.436151 1.173557
v -0.436159 -0.436159 1.172708
v -0.436122 -0.436123 1.171810
v -0.436029 -0.436029 1.170861
v -0.435911 -0.435911 1.170079
v -0.435736 -0.435736 1.169226
v -0.435566 -0.435566 1.168556
v -0.435300 -0.435300 1.167677
v -0.434920 -0.434921 1.166666
v -0.434401 -0.434401 1.165521
v -0.433930 -0.433930 1.164656
v -0.433459 -0.433459 1.163893
v -0.432806 -0.432806 1.162967
v -0.432008 -0.432008 1.161991
v -0.430999 -0.430999 1.160951
v -0.429968 -0.429969 1.160055
v -0.428808 -0.428808 1.159207
v -0.427561 -0.427561 1.158451
v -0.426357 -0.426357 1.157852
v -0.424501 -0.424502 1.157149
v -0.422022 -0.422022 1.156588
v -0.419730 -0.419730 1.156428
v -0.417363 -0.417363 1.156585
v -0.415054 -0.415053 1.157068
v 0.412766 0.412762 1.157937
v 0.412763 -0.412762 1.157930
v 0.435749 0.435749 1.176610
v 0.435624 0.435624 1.177120
v 0.435896 0.435896 1.175894
v 0.436024 0.436024 1.175076
v 0.436105 0.436105 1.174300
v 0.436151 0.436151 1.173558
v 0.436159 0.436159 1.172708
v 0.436123 0.436123 1.171809
v 0.436029 0.436029 1.170860
v 0.435911 0.435911 1.170078
v 0.435736 0.435736 1.169226
v 0.435566 0.435566 1.168556
v 0.435300 0.435300 1.167678
v 0.434921 0.434921 1.166667
v 0.434401 0.434401 1.165521
v 0.433930 0.433930 1.164656
v 0.433459 0.433459 1.163892
v 0.432805 0.432805 1.162966
v 0.432007 0.432008 1.161991
v 0.431001 0.431001 1.160954
v 0.429970 0.429971 1.160055
v 0.428803 0.428803 1.159202
v 0.427557 0.427557 1.158450
v 0.426357 0.426357 1.157852
v 0.425021 0.425021 1.157328
v 0.423243 0.423243 1.156822
v 0.421067 0.421067 1.156480
v 0.418001 0.418002 1.156486
v 0.415054 0.415054 1.157068
v 0.435749 -0.435749 1.176610
v 0.435624 -0.435624 1.177120
v 0.435896 -0.435896 1.175893
v 0.436024 -0.436024 1.175075
v 0.436105 -0.436105 1.174300
v 0.436151 -0.436151 1.173557
v 0.436159 -0.436159 1.172708
v 0.436123 -0.436123 1.171811
v 0.436029 -0.436029 1.170861
v 0.435911 -0.435911 1.170079
v 0.435737 -0.435736 1.169225
v 0.435566 -0.435566 1.168556
v 0.435301 -0.435300 1.167678
v 0.434920 -0.434920 1.166665
v 0.434400 -0.434400 1.165520
v 0.433930 -0.433930 1.164656
v 0.433460 -0.433460 1.163893
v 0.432806 -0.432806 1.162967
v 0.432007 -0.432006 1.161988
v 0.430997 -0.430997 1.160950
v 0.429965 -0.429965 1.160050
v 0.428805 -0.428806 1.159207
v 0.427568 -0.427568 1.158456
v 0.426375 -0.426375 1.157860
v 0.424516 -0.424516 1.157151
v 0.421746 -0.421745 1.156542
v 0.418591 -0.418591 1.156451
v 0.416660 -0.416659 1.156704
v 0.414876 -0.414876 1.157127
v 0.405965 -0.405965 1.146350
v -0.405965 -0.405965 1.146350
v -0.412767 -0.412767 1.157940
v 0.412767 -0.412767 1.157940
v -0.412762 -0.412766 1.157937
v 0.412762 -0.412763 1.157930
v -0.435749 -0.435749 1.176610
v -0.435624 -0.435624 1.177120
v -0.435896 -0.435896 1.175894
v -0.436024 -0.436025 1.175075
v -0.436105 -0.436105 1.174300
v -0.436151 -0.436151 1.173558
v -0.436159 -0.436159 1.172709
v -0.436123 -0.436124 1.171810
v -0.436029 -0.436029 1.170860
v -0.435911 -0.435911 1.170079
v -0.435736 -0.435736 1.169226
v -0.435566 -0.435566 1.168556
v -0.435300 -0.435300 1.167678
v -0.434921 -0.434921 1.166665
v -0.434401 -0.434400 1.165520
v -0.433930 -0.433930 1.164656
v -0.433460 -0.433459 1.163893
v -0.432806 -0.432806 1.162967
v -0.432006 -0.432007 1.161988
v -0.431001 -0.430999 1.160954
v -0.429966 -0.429967 1.160050
v -0.428806 -0.428805 1.159207
v -0.427568 -0.427568 1.158456
v -0.426087 -0.426087 1.157729
v -0.424342 -0.424342 1.157111
v -0.422321 -0.422321 1.156632
v -0.419930 -0.419930 1.156429
v -0.418066 -0.418066 1.156507
v -0.415968 -0.415968 1.156839
v -0.414467 -0.414467 1.157267
v 0.435749 -0.435749 1.176611
v 0.435624 -0.435624 1.177120
v 0.435896 -0.435896 1.175894
v 0.436024 -0.436024 1.175075
v 0.436105 -0.436105 1.174300
v 0.436151 -0.436151 1.173557
v 0.436159 -0.436159 1.172708
v 0.436123 -0.436122 1.171810
v 0.436029 -0.436029 1.170860
v 0.435911 -0.435910 1.170079
v 0.435736 -0.435736 1.169225
v 0.435566 -0.435566 1.168556
v 0.435300 -0.435300 1.167678
v 0.434921 -0.434920 1.166666
v 0.434401 -0.434401 1.165521
v 0.433930 -0.433930 1.164656
v 0.433459 -0.433459 1.163892
v 0.432805 -0.432805 1.162966
v 0.432008 -0.432007 1.161991
v 0.430999 -0.430999 1.160951
v 0.429969 -0.429968 1.160055
v 0.428802 -0.428803 1.159202
v 0.427557 -0.427557 1.158450
v 0.426370 -0.426369 1.157859
v 0.424516 -0.424516 1.157151
v 0.422022 -0.422022 1.156588
v 0.419731 -0.419730 1.156428
v 0.417363 -0.417363 1.156585
v 0.415065 -0.415066 1.157066
v -0.435624 0.435624 1.177120
v 0.435624 0.435624 1.177120
v -0.435624 -0.435624 1.177120
v 0.435624 -0.435624 1.177120
v -0.449695 0.449695 1.177120
v 0.449695 0.449695 1.177120
v 0.449695 -0.449695 1.177120
v -0.449695 -0.449695 1.177120
v -0.443771 -0.443771 0.149638
v -0.443771 -0.443771 0.265904
v 0.443771 -0.443771 0.265904
v 0.443771 -0.443771 0.149638
v -0.449695 0.449695 1.177120
v 0.449695 0.449695 1.177120
v 0.449695 0.449695 1.222790
v -0.449695 0.449695 1.222790
v -0.449695 0.449695 1.177120
v -0.449695 -0.449695 1.177120
v -0.449695 0.449695 1.222790
v -0.449695 -0.449695 1.222790
v 0.449695 0.449695 1.177120
v 0.449695 -0.449695 1.177120
v 0.449695 0.449695 1.222790
v 0.449695 -0.449695 1.222790
v 0.449695 -0.449695 1.177120
v -0.449695 -0.449695 1.177120
v -0.449695 -0.449695 1.222790
v 0.449695 -0.449695 1.222790
v 0.449695 0.449695 1.222790
v -0.449695 0.449695 1.222790
v -0.449695 -0.449695 1.222790
v 0.449695 -0.449695 1.222790
v 0.464310 0.464310 1.222790
v 0.464310 -0.464310 1.222790
v -0.464310 -0.464310 1.222790
v -0.464310 0.464310 1.222790
v 0.464310 0.464310 1.222790
v -0.464310 0.464310 1.222790
v 0.464310 0.464310 1.254760
v -0.464310 0.464310 1.254760
v -0.464310 -0.464310 1.222790
v -0.464310 0.464310 1.222790
v -0.464310 0.464310 1.254760
v -0.464310 -0.464310 1.254760
v 0.464310 0.464310 1.222790
v 0.464310 -0.464310 1.222790
v 0.464310 0.464310 1.254760
v 0.464310 -0.464310 1.254760
v 0.464310 -0.464310 1.222790
v -0.464310 -0.464310 1.222790
v -0.464310 -0.464310 1.254760
v 0.464310 -0.464310 1.254760
v 0.464310 0.464310 1.254760
v -0.464310 0.464310 1.254760
v -0.464310 -0.464310 1.254760
v 0.464310 -0.464310 1.254760
v -0.357434 -0.357434 1.254760
v -0.357434 0.357434 1.254760
v 0.357434 -0.357434 1.254760
v 0.357434 0.357434 1.254760
v 0.443771 0.443771 0.149638
v -0.443771 0.443771 0.149638
v -0.443771 -0.443771 0.149638
v 0.443771 -0.443771 0.149638
v -0.472192 -0.472192 0.149638
v 0.472192 -0.472192 0.149638
v 0.472192 0.472192 0.149638
v -0.472192 0.472192 0.149638
v -0.357434 0.357434 1.254760
v 0.357434 0.357434 1.254760
v -0.357434 0.357434 1.286370
v 0.357434 0.357434 1.286370
v 0.357434 -0.357434 1.254760
v 0.357434 0.357434 1.254760
v 0.357434 0.357434 1.286370
v 0.357434 -0.357434 1.318630
v -0.357434 -0.357434 1.254760
v 0.357434 -0.357434 1.254760
v 0.357434 -0.357434 1.318630
v -0.357434 -0.357434 1.318630
v -0.357434 -0.357434 1.254760
v -0.357434 0.357434 1.254760
v -0.357434 0.357434 1.286370
v -0.357434 -0.357434 1.318630
v 0.472192 0.472192 0.149638
v -0.472192 0.472192 0.149638
v 0.472192 0.472192 -0.000000
v -0.472192 0.472192 -0.000000
v -0.472192 -0.472192 0.149638
v -0.472192 0.472192 0.149638
v -0.472192 0.472192 -0.000000
v -0.472192 -0.472192 0.000000
v 0.472192 -0.472192 0.149638
v 0.472192 0.472192 0.149638
v 0.472192 0.472192 -0.000000
v 0.472192 -0.472192 0.000000
v 0.472192 0.472192 -0.000000
v -0.472192 0.472192 -0.000000
v -0.472192 -0.472192 0.000000
v 0.472192 -0.472192 0.000000
v -0.472192 -0.472192 0.149638
v 0.472192 -0.472192 0.149638
v -0.472192 -0.472192 0.000000
v 0.472192 -0.472192 0.000000
vn -0.0000 0.0451 0.9990
vn -0.0000 1.0000 -0.0000
vn -1.0000 -0.0000 -0.0000
vn -0.0000 -0.0000 1.0000
vn -0.0000 0.9713 0.2378
vn -0.9713 -0.0000 0.2378
vn 0.9713 -0.0000 0.2378
vn -0.0000 -0.9713 0.2378
vn 1.0000 -0.0000 -0.0000
vn -0.0000 -1.0000 -0.0000
vn -0.0000 -0.0000 -1.0000
vn -0.0000 0.8624 -0.5062
vn -0.8624 -0.0000 -0.5062
vn 0.8624 -0.0000 -0.5061
vn 0.8624 -0.0000 -0.5062
vn -0.0000 0.9737 0.2279
vn -0.0000 0.9685 0.2489
vn -0.0000 0.9683 0.2499
vn -0.0000 0.9735 0.2289
vn -0.0000 0.9818 0.1898
vn -0.0000 0.9775 0.2110
vn -0.0000 0.9778 0.2094
vn -0.0000 0.9821 0.1882
vn -0.0000 0.9898 0.1425
vn -0.0000 0.9865 0.1640
vn -0.0000 0.9862 0.1654
vn -0.0000 0.9896 0.1440
vn -0.0000 0.9961 0.0887
vn -0.0000 0.9939 0.1102
vn -0.0000 0.9986 0.0538
vn -0.0000 0.9972 0.0754
vn -0.0000 0.9973 0.0739
vn -0.0000 0.9986 0.0523
vn -0.0000 1.0000 -0.0020
vn -0.0000 0.9998 0.0197
vn -0.0000 0.9995 -0.0318
vn -0.0000 0.9986 -0.0534
vn -0.0000 0.9987 -0.0510
vn -0.0000 0.9996 -0.0293
vn -0.0000 0.9962 -0.0870
vn -0.0000 0.9941 -0.1086
vn -0.0000 0.9905 -0.1375
vn -0.0000 0.9873 -0.1590
vn -0.0000 0.9808 -0.1949
vn -0.0000 0.9764 -0.2161
vn -0.0000 0.9762 -0.2168
vn -0.0000 0.9807 -0.1956
vn -0.0000 0.9708 -0.2398
vn -0.0000 0.9654 -0.2608
vn -0.0000 0.9659 -0.2590
vn -0.0000 0.9713 -0.2380
vn -0.0000 0.9586 -0.2846
vn -0.0000 0.9522 -0.3053
vn -0.0000 0.9520 -0.3062
vn -0.0000 0.9584 -0.2855
vn -0.0000 0.9383 -0.3458
vn -0.0000 0.9306 -0.3661
vn -0.0000 0.9133 -0.4074
vn -0.0000 0.9042 -0.4271
vn -0.0000 0.9048 -0.4258
vn -0.0000 0.9138 -0.4061
vn -0.0000 0.8776 -0.4794
vn -0.0000 0.8670 -0.4983
vn -0.0000 0.8670 -0.4984
vn -0.0000 0.8526 -0.5225
vn -0.0000 0.8411 -0.5409
vn -0.0000 0.8411 -0.5408
vn -0.0000 0.8282 -0.5604
vn -0.0000 0.8159 -0.5782
vn -0.0000 0.8161 -0.5779
vn -0.0000 0.8284 -0.5601
vn -0.0000 0.7781 -0.6281
vn -0.0000 0.7644 -0.6448
vn -0.0000 0.7641 -0.6451
vn -0.0000 0.7779 -0.6283
vn -0.0000 0.7371 -0.6758
vn -0.0000 0.7071 -0.7071
vn -0.0000 0.6741 -0.7386
vn -0.0000 0.6415 -0.7671
vn -0.0000 0.6094 -0.7929
vn -0.0000 0.5744 -0.8186
vn -0.0000 0.5374 -0.8433
vn -0.0000 0.5003 -0.8658
vn -0.0000 0.4584 -0.8888
vn -0.0000 0.4194 -0.9078
vn -0.0000 0.3447 -0.9387
vn -0.0000 0.3037 -0.9528
vn -0.0000 0.1963 -0.9805
vn 0.0001 0.1536 -0.9881
vn -0.0000 0.0535 -0.9986
vn -0.0000 0.0101 -0.9999
vn -0.0000 -0.0821 -0.9966
vn -0.0000 -0.1252 -0.9921
vn -0.0000 -0.1828 -0.9831
vn -0.0000 -0.2253 -0.9743
vn -0.0000 -0.3379 -0.9412
vn -0.0000 -0.3784 -0.9256
vn -0.0000 -0.3820 -0.9242
vn -0.0000 -0.3416 -0.9399
vn -0.0000 -0.2206 -0.9754
vn -0.0000 -0.1781 -0.9840
vn -0.0000 -0.0929 -0.9957
vn -0.0000 -0.0496 -0.9988
vn -0.0000 0.0474 -0.9989
vn -0.0000 0.0907 -0.9959
vn -0.0000 0.1881 -0.9821
vn -0.0000 0.2306 -0.9731
vn -0.0001 0.2306 -0.9731
vn -0.0000 0.3375 -0.9413
vn -0.0000 0.3780 -0.9258
vn -0.0001 0.3780 -0.9258
vn -0.0000 0.4227 -0.9063
vn -0.0000 0.4616 -0.8871
vn -0.0000 0.5022 -0.8648
vn -0.0000 0.5392 -0.8422
vn -0.0000 0.5748 -0.8183
vn -0.0000 0.6097 -0.7927
vn -0.0000 0.6430 -0.7659
vn -0.0000 0.6756 -0.7373
vn -0.0000 0.7058 -0.7085
vn -0.0000 0.7358 -0.6772
vn -0.0000 0.9302 -0.3670
vn -0.0000 0.9380 -0.3468
vn -0.0000 0.9873 -0.1587
vn -0.0000 0.9905 -0.1373
vn -0.0000 0.9939 -0.1099
vn -0.0000 0.9961 -0.0883
vn -0.0000 0.9998 0.0213
vn -0.0000 1.0000 -0.0004
vn -0.0000 0.9939 0.1101
vn -0.0000 0.9961 0.0885
vn -0.9736 -0.0000 0.2284
vn -0.9684 -0.0000 0.2494
vn -0.9684 -0.0000 0.2496
vn -0.9735 -0.0000 0.2285
vn -0.9819 -0.0000 0.1895
vn -0.9776 -0.0000 0.2107
vn -0.9778 -0.0000 0.2096
vn -0.9821 -0.0000 0.1883
vn -0.9899 -0.0000 0.1420
vn -0.9866 -0.0000 0.1634
vn -0.9862 -0.0000 0.1658
vn -0.9895 -0.0000 0.1443
vn -0.9938 -0.0000 0.1109
vn -0.9960 -0.0000 0.0894
vn -0.9986 -0.0000 0.0531
vn -0.9972 -0.0000 0.0748
vn -0.9986 -0.0000 0.0532
vn -1.0000 -0.0000 -0.0011
vn -0.9998 -0.0000 0.0205
vn -0.9996 -0.0000 -0.0299
vn -0.9987 -0.0000 -0.0516
vn -0.9986 -0.0000 -0.0531
vn -0.9995 -0.0000 -0.0314
vn -0.9939 -0.0000 -0.1099
vn -0.9961 -0.0000 -0.0884
vn -0.9872 -0.0000 -0.1595
vn -0.9904 -0.0000 -0.1381
vn -0.9809 -0.0000 -0.1943
vn -0.9765 -0.0000 -0.2155
vn -0.9761 -0.0000 -0.2172
vn -0.9806 -0.0000 -0.1960
vn -0.9709 -0.0000 -0.2396
vn -0.9655 -0.0000 -0.2606
vn -0.9658 -0.0000 -0.2593
vn -0.9712 -0.0000 -0.2382
vn -0.9586 -0.0000 -0.2848
vn -0.9522 -0.0000 -0.3056
vn -0.9520 -0.0000 -0.3061
vn -0.9584 -0.0000 -0.2853
vn -0.9383 -0.0000 -0.3457
vn -0.9306 -0.0000 -0.3660
vn -0.9132 -0.0000 -0.4076
vn -0.9041 -0.0000 -0.4273
vn -0.9048 -0.0000 -0.4258
vn -0.9139 -0.0000 -0.4060
vn -0.8779 -0.0000 -0.4788
vn -0.8673 -0.0000 -0.4977
vn -0.8669 -0.0000 -0.4985
vn -0.8775 -0.0000 -0.4796
vn -0.8530 -0.0000 -0.5218
vn -0.8531 -0.0000 -0.5218
vn -0.8415 -0.0000 -0.5402
vn -0.8405 -0.0000 -0.5418
vn -0.8521 -0.0000 -0.5235
vn -0.8280 -0.0000 -0.5607
vn -0.8157 -0.0000 -0.5784
vn -0.8163 -0.0000 -0.5776
vn -0.8286 -0.0000 -0.5598
vn -0.7777 -0.0000 -0.6286
vn -0.7639 -0.0000 -0.6453
vn -0.7643 -0.0000 -0.6448
vn -0.7781 -0.0000 -0.6281
vn -0.7360 -0.0000 -0.6770
vn -0.7059 -0.0000 -0.7083
vn -0.6761 -0.0000 -0.7368
vn -0.6435 -0.0000 -0.7654
vn -0.6086 -0.0000 -0.7935
vn -0.5736 -0.0000 -0.8191
vn -0.5377 -0.0000 -0.8432
vn -0.5006 -0.0000 -0.8657
vn -0.4590 -0.0000 -0.8884
vn -0.4201 -0.0000 -0.9075
vn -0.3531 -0.0000 -0.9356
vn -0.3122 -0.0000 -0.9500
vn -0.2547 -0.0000 -0.9670
vn -0.2126 -0.0000 -0.9771
vn -0.1059 -0.0000 -0.9944
vn -0.0627 -0.0000 -0.9980
vn 0.0253 -0.0000 -0.9997
vn 0.0686 -0.0000 -0.9976
vn 0.1430 -0.0000 -0.9897
vn 0.1858 -0.0000 -0.9826
vn 0.2487 -0.0000 -0.9686
vn 0.2905 -0.0000 -0.9569
vn 0.3477 -0.0000 -0.9376
vn 0.3880 -0.0000 -0.9216
vn 0.3822 -0.0000 -0.9241
vn 0.3418 -0.0000 -0.9398
vn 0.2205 -0.0000 -0.9754
vn 0.1780 -0.0000 -0.9840
vn 0.0929 -0.0000 -0.9957
vn 0.0496 -0.0000 -0.9988
vn -0.0472 -0.0000 -0.9989
vn -0.0905 -0.0000 -0.9959
vn -0.1884 -0.0001 -0.9821
vn -0.2308 -0.0000 -0.9730
vn -0.3351 -0.0000 -0.9422
vn -0.3756 -0.0000 -0.9268
vn -0.4236 -0.0000 -0.9058
vn -0.4625 -0.0000 -0.8866
vn -0.5020 -0.0000 -0.8649
vn -0.5390 -0.0000 -0.8423
vn -0.5391 -0.0000 -0.8423
vn -0.5759 -0.0000 -0.8175
vn -0.6108 -0.0000 -0.7918
vn -0.6404 -0.0000 -0.7680
vn -0.6731 -0.0000 -0.7395
vn -0.7068 -0.0000 -0.7074
vn -0.7368 -0.0000 -0.6761
vn -0.9302 -0.0000 -0.3670
vn -0.9380 -0.0000 -0.3467
vn -0.9874 -0.0000 -0.1582
vn -0.9906 -0.0000 -0.1367
vn -0.9941 -0.0000 -0.1085
vn -0.9962 -0.0000 -0.0869
vn -0.9940 -0.0000 0.1096
vn -0.9961 -0.0000 0.0880
vn 0.9737 -0.0000 0.2279
vn 0.9685 -0.0000 0.2490
vn 0.9683 -0.0000 0.2498
vn 0.9735 -0.0000 0.2288
vn 0.9819 -0.0000 0.1895
vn 0.9775 -0.0000 0.2107
vn 0.9777 -0.0000 0.2099
vn 0.9820 -0.0000 0.1887
vn 0.9897 -0.0000 0.1431
vn 0.9864 -0.0000 0.1645
vn 0.9897 -0.0000 0.1430
vn 0.9939 -0.0000 0.1102
vn 0.9961 -0.0000 0.0887
vn 0.9986 -0.0000 0.0532
vn 0.9972 -0.0000 0.0748
vn 0.9986 -0.0000 0.0531
vn 0.9998 -0.0000 0.0208
vn 1.0000 -0.0000 -0.0008
vn 0.9995 -0.0000 -0.0302
vn 0.9987 -0.0000 -0.0518
vn 0.9986 -0.0000 -0.0526
vn 0.9995 -0.0000 -0.0309
vn 0.9962 -0.0000 -0.0876
vn 0.9940 -0.0000 -0.1092
vn 0.9905 -0.0000 -0.1373
vn 0.9873 -0.0000 -0.1588
vn 0.9808 -0.0000 -0.1948
vn 0.9764 -0.0000 -0.2160
vn 0.9762 -0.0000 -0.2167
vn 0.9807 -0.0000 -0.1955
vn 0.9709 -0.0000 -0.2396
vn 0.9655 -0.0000 -0.2606
vn 0.9658 -0.0000 -0.2593
vn 0.9712 -0.0000 -0.2382
vn 0.9587 -0.0000 -0.2845
vn 0.9523 -0.0000 -0.3052
vn 0.9519 -0.0000 -0.3065
vn 0.9583 -0.0000 -0.2858
vn 0.9304 -0.0000 -0.3665
vn 0.9381 -0.0000 -0.3463
vn 0.9134 -0.0000 -0.4072
vn 0.9043 -0.0000 -0.4269
vn 0.9046 -0.0000 -0.4263
vn 0.9136 -0.0000 -0.4065
vn 0.8779 -0.0000 -0.4788
vn 0.8673 -0.0000 -0.4977
vn 0.8669 -0.0000 -0.4985
vn 0.8775 -0.0000 -0.4796
vn 0.8528 -0.0000 -0.5223
vn 0.8528 -0.0000 -0.5222
vn 0.8413 -0.0000 -0.5406
vn 0.8410 -0.0000 -0.5411
vn 0.8525 -0.0000 -0.5227
vn 0.8282 -0.0000 -0.5604
vn 0.8160 -0.0000 -0.5781
vn 0.8161 -0.0000 -0.5780
vn 0.8284 -0.0000 -0.5601
vn 0.7787 -0.0000 -0.6274
vn 0.7648 -0.0000 -0.6442
vn 0.7633 -0.0000 -0.6460
vn 0.7771 -0.0000 -0.6294
vn 0.7359 -0.0000 -0.6770
vn 0.7059 -0.0000 -0.7083
vn 0.6747 -0.0000 -0.7381
vn 0.6420 -0.0000 -0.7667
vn 0.6085 -0.0000 -0.7936
vn 0.5735 -0.0000 -0.8192
vn 0.5393 -0.0000 -0.8421
vn 0.5023 -0.0000 -0.8647
vn 0.4635 -0.0000 -0.8861
vn 0.4246 -0.0000 -0.9054
vn 0.3775 -0.0000 -0.9260
vn 0.3370 -0.0000 -0.9415
vn 0.2249 -0.0000 -0.9744
vn 0.1824 -0.0000 -0.9832
vn 0.0622 -0.0000 -0.9981
vn 0.0188 -0.0000 -0.9998
vn -0.1157 -0.0000 -0.9933
vn -0.1587 -0.0000 -0.9873
vn -0.2186 -0.0000 -0.9758
vn -0.2608 -0.0000 -0.9654
vn -0.3412 -0.0000 -0.9400
vn -0.3816 -0.0000 -0.9243
vn -0.3822 -0.0000 -0.9241
vn -0.3418 -0.0000 -0.9398
vn -0.2096 -0.0000 -0.9778
vn -0.1670 -0.0000 -0.9860
vn -0.0117 -0.0000 -0.9999
vn 0.0317 -0.0000 -0.9995
vn 0.1349 -0.0000 -0.9909
vn 0.1778 -0.0000 -0.9841
vn 0.2554 -0.0000 -0.9668
vn 0.2971 -0.0000 -0.9549
vn 0.3461 -0.0000 -0.9382
vn 0.3864 -0.0001 -0.9223
vn 0.4242 -0.0000 -0.9056
vn 0.4631 -0.0000 -0.8863
vn 0.5007 -0.0000 -0.8656
vn 0.5378 -0.0000 -0.8431
vn 0.5754 -0.0000 -0.8178
vn 0.6104 -0.0000 -0.7921
vn 0.6423 -0.0000 -0.7665
vn 0.6749 -0.0000 -0.7379
vn 0.7073 -0.0000 -0.7069
vn 0.7373 -0.0000 -0.6756
vn 0.9305 -0.0000 -0.3663
vn 0.9382 -0.0000 -0.3460
vn 0.9905 -0.0000 -0.1374
vn 0.9940 -0.0000 -0.1094
vn 0.9961 -0.0000 -0.0878
vn 0.9998 -0.0000 0.0201
vn 1.0000 -0.0000 -0.0016
vn 0.9939 -0.0000 0.1101
vn 0.9961 -0.0000 0.0886
vn -0.0000 -0.8624 -0.5061
vn -0.0000 -0.8624 -0.5062
vn -0.0000 0.3527 -0.9357
vn -0.0000 0.3930 -0.9196
vn -0.0000 0.2483 -0.9687
vn -0.0000 0.2901 -0.9570
vn -0.0000 0.1428 -0.9898
vn -0.0000 0.1856 -0.9826
vn -0.0000 0.0253 -0.9997
vn -0.0000 0.0686 -0.9976
vn -0.0000 -0.1056 -0.9944
vn -0.0000 -0.0624 -0.9981
vn -0.0000 -0.2544 -0.9671
vn -0.0000 -0.2122 -0.9772
vn -0.0000 -0.3562 -0.9344
vn -0.0000 -0.3154 -0.9490
vn -0.0000 -0.4577 -0.8891
vn -0.0000 -0.4187 -0.9081
vn -0.0000 -0.5395 -0.8420
vn -0.0000 -0.5025 -0.8646
vn -0.0000 -0.6081 -0.7939
vn -0.0000 -0.5731 -0.8195
vn -0.0000 -0.6762 -0.7367
vn -0.0000 -0.6436 -0.7653
vn -0.0000 -0.7353 -0.6777
vn -0.0000 -0.7052 -0.7090
vn -0.0000 -0.7786 -0.6275
vn -0.0000 -0.7648 -0.6442
vn -0.0000 -0.7635 -0.6458
vn -0.0000 -0.7773 -0.6291
vn -0.0000 -0.8282 -0.5604
vn -0.0000 -0.8159 -0.5782
vn -0.0000 -0.8161 -0.5779
vn -0.0000 -0.8284 -0.5601
vn -0.0000 -0.8526 -0.5225
vn -0.0000 -0.8411 -0.5409
vn -0.0000 -0.8411 -0.5408
vn -0.0000 -0.8776 -0.4794
vn -0.0000 -0.8670 -0.4983
vn -0.0000 -0.8670 -0.4984
vn -0.0000 -0.9133 -0.4074
vn -0.0000 -0.9042 -0.4271
vn -0.0000 -0.9048 -0.4258
vn -0.0000 -0.9138 -0.4061
vn -0.0000 -0.9385 -0.3454
vn -0.0000 -0.9308 -0.3656
vn -0.0000 -0.9582 -0.2860
vn -0.0000 -0.9518 -0.3066
vn -0.0000 -0.9524 -0.3050
vn -0.0000 -0.9587 -0.2843
vn -0.0000 -0.9713 -0.2380
vn -0.0000 -0.9659 -0.2590
vn -0.0000 -0.9654 -0.2606
vn -0.0000 -0.9709 -0.2396
vn -0.0000 -0.9806 -0.1959
vn -0.0000 -0.9761 -0.2172
vn -0.0000 -0.9765 -0.2155
vn -0.0000 -0.9809 -0.1943
vn -0.0000 -0.9907 -0.1364
vn -0.0000 -0.9875 -0.1578
vn -0.0000 -0.9939 -0.1103
vn -0.0000 -0.9961 -0.0887
vn -0.0000 -0.9996 -0.0298
vn -0.0000 -0.9987 -0.0514
vn -0.0000 -0.9986 -0.0532
vn -0.0000 -0.9995 -0.0316
vn -0.0000 -1.0000 -0.0008
vn -0.0000 -0.9998 0.0209
vn -0.0000 -0.9986 0.0533
vn -0.0000 -0.9972 0.0749
vn -0.0000 -0.9972 0.0748
vn -0.0000 -0.9986 0.0532
vn -0.0000 -0.9939 0.1107
vn -0.0000 -0.9960 0.0891
vn -0.0000 -0.9899 0.1419
vn -0.0000 -0.9866 0.1633
vn -0.0000 -0.9861 0.1659
vn -0.0000 -0.9895 0.1445
vn -0.0000 -0.9819 0.1893
vn -0.0000 -0.9776 0.2106
vn -0.0000 -0.9778 0.2097
vn -0.0000 -0.9821 0.1885
vn -0.0000 -0.9736 0.2283
vn -0.0000 -0.9684 0.2494
vn -0.0000 -0.9684 0.2496
vn -0.0000 -0.9735 0.2286
vn -0.0000 -0.9735 0.2285
vn -0.0000 -0.9940 0.1096
vn -0.0000 -0.9961 0.0881
vn -0.0000 -0.9998 0.0201
vn -0.0000 -1.0000 -0.0016
vn -0.0000 -0.9941 -0.1083
vn -0.0000 -0.9962 -0.0867
vn -0.0000 -0.9872 -0.1598
vn -0.0000 -0.9904 -0.1383
vn -0.0000 -0.9301 -0.3672
vn -0.0000 -0.9379 -0.3470
vn -0.0000 -0.7078 -0.7064
vn -0.0000 -0.7378 -0.6751
vn -0.0000 -0.6406 -0.7679
vn -0.0000 -0.6733 -0.7394
vn -0.0000 -0.5761 -0.8174
vn -0.0000 -0.6110 -0.7916
vn -0.0000 -0.5005 -0.8658
vn -0.0000 -0.5375 -0.8432
vn -0.0000 -0.4233 -0.9060
vn -0.0000 -0.4622 -0.8868
vn -0.0000 -0.3374 -0.9413
vn -0.0000 -0.3780 -0.9258
vn 0.0001 -0.3780 -0.9258
vn 0.0001 -0.1882 -0.9821
vn -0.0000 -0.2306 -0.9730
vn -0.0000 -0.0474 -0.9989
vn -0.0000 -0.0907 -0.9959
vn -0.0000 0.0929 -0.9957
vn -0.0000 0.0496 -0.9988
vn -0.0000 0.2210 -0.9753
vn -0.0000 0.1785 -0.9839
vn -0.0000 0.3782 -0.9257
vn -0.0000 0.3377 -0.9413
s 0
usemtl 0.615686_0.811765_0.929412_0.000000_0.000000
f 3//1 2//1 1//1
f 1//1 4//1 3//1
f 5//2 6//2 7//2
f 7//2 8//2 5//2
f 9//3 11//3 12//3
f 12//3 10//3 9//3
f 15//4 17//4 18//4
f 16//4 19//4 17//4
f 17//4 15//4 16//4
f 13//4 20//4 19//4
f 13//4 14//4 18//4
f 19//4 16//4 13//4
f 18//4 14//4 15//4
f 18//4 20//4 13//4
f 22//5 21//5 23//5
f 23//5 24//5 22//5
f 25//6 28//6 27//6
f 27//6 26//6 25//6
f 29//7 30//7 31//7
f 31//7 32//7 29//7
f 33//8 34//8 36//8
f 36//8 35//8 33//8
f 39//4 41//4 42//4
f 40//4 43//4 41//4
f 41//4 39//4 40//4
f 38//4 44//4 43//4
f 37//4 42//4 44//4
f 43//4 40//4 38//4
f 42//4 37//4 39//4
f 44//4 38//4 37//4
f 47//2 46//2 45//2
f 45//2 48//2 47//2
f 51//3 50//3 49//3
f 49//3 52//3 51//3
f 56//9 53//9 54//9
f 54//9 55//9 56//9
f 60//10 59//10 57//10
f 57//10 58//10 60//10
f 62//9 61//9 63//9
f 63//9 64//9 62//9
f 69//11 70//11 65//11
f 71//11 68//11 65//11
f 65//11 70//11 71//11
f 72//11 67//11 68//11
f 68//11 71//11 72//11
f 72//11 69//11 66//11
f 66//11 67//11 72//11
f 65//11 66//11 69//11
f 75//12 74//12 73//12
f 73//12 76//12 75//12
f 80//13 79//13 77//13
f 77//13 78//13 80//13
f 84//14 82//14 81//14
f 81//15 83//15 84//15
f 87//16 88//16 89//17
f 89//18 90//18 87//19
f 91//20 88//21 87//21
f 87//22 92//23 91//23
f 93//24 94//24 91//25
f 91//26 92//26 93//27
f 95//28 96//28 94//29
f 97//30 96//31 95//31
f 95//32 98//33 97//33
f 99//34 100//34 97//35
f 99//36 101//37 102//37
f 102//38 100//39 99//39
f 102//40 101//40 103//41
f 104//42 103//42 105//43
f 106//44 105//44 107//45
f 107//46 108//46 106//47
f 107//48 109//49 110//49
f 110//50 108//51 107//51
f 110//52 109//52 111//53
f 111//54 112//54 110//55
f 112//56 111//56 113//57
f 113//58 115//59 116//59
f 116//60 114//61 113//61
f 115//62 117//63 118//63
f 118//64 116//62 115//62
f 118//65 117//65 119//66
f 119//67 120//67 118//65
f 120//68 119//68 121//69
f 121//70 122//70 120//71
f 122//72 121//72 123//73
f 123//74 124//74 122//75
f 124//76 123//76 125//77
f 125//78 127//79 128//79
f 127//80 129//81 130//81
f 129//82 131//83 132//83
f 132//84 131//84 133//85
f 135//86 133//86 136//87
f 137//88 136//88 138//89
f 139//90 138//90 140//91
f 140//92 141//93 142//93
f 142//94 141//94 143//95
f 144//96 143//96 85//97
f 85//98 86//98 144//99
f 143//100 144//100 142//101
f 140//102 142//102 139//103
f 138//104 139//104 137//105
f 137//106 135//107 136//108
f 135//109 134//110 133//111
f 133//112 134//112 132//113
f 132//114 130//115 129//115
f 130//116 128//117 127//117
f 128//118 126//119 125//119
f 125//120 126//120 124//121
f 114//122 112//123 113//122
f 106//124 104//125 105//124
f 104//126 102//127 103//126
f 98//128 99//129 97//128
f 93//130 95//131 94//130
f 177//132 178//133 148//133
f 148//134 147//135 177//135
f 179//136 177//137 147//137
f 147//138 149//139 179//139
f 150//140 180//140 179//141
f 179//142 149//142 150//143
f 150//144 181//145 180//144
f 152//146 182//146 181//147
f 181//147 151//147 152//148
f 153//149 183//149 182//150
f 183//151 153//151 154//152
f 154//153 184//153 183//154
f 185//155 154//156 155//155
f 186//157 155//158 156//157
f 186//159 156//159 157//160
f 157//161 187//161 186//162
f 157//163 158//164 188//164
f 188//165 187//166 157//166
f 188//167 158//167 159//168
f 159//169 189//169 188//170
f 189//171 159//171 160//172
f 160//173 161//174 191//174
f 191//175 190//176 160//176
f 161//177 162//178 192//178
f 192//179 191//180 161//180
f 192//181 162//182 163//183
f 163//184 193//184 192//185
f 163//186 164//187 194//187
f 194//188 193//189 163//189
f 164//190 165//191 195//191
f 195//192 194//193 164//193
f 165//194 166//195 196//195
f 196//196 166//196 167//197
f 167//198 168//199 198//199
f 168//200 169//201 199//201
f 199//202 169//202 170//203
f 170//204 171//205 201//205
f 171//206 172//207 201//207
f 202//208 172//208 173//209
f 203//210 173//210 174//211
f 174//212 175//213 204//213
f 175//214 176//215 205//215
f 205//216 176//216 145//217
f 145//218 146//218 205//219
f 175//220 205//220 204//221
f 174//222 204//222 203//223
f 173//224 203//224 202//225
f 202//226 201//227 172//227
f 170//228 201//228 200//229
f 170//230 200//230 199//231
f 199//232 198//233 168//234
f 198//235 197//236 167//236
f 167//237 197//237 196//238
f 196//239 195//240 165//240
f 190//241 189//242 160//241
f 186//243 185//244 155//244
f 185//245 184//246 154//246
f 152//150 153//149 182//150
f 150//247 151//248 181//248
f 237//249 208//249 209//250
f 209//251 238//251 237//252
f 210//253 208//254 237//254
f 237//255 239//256 210//256
f 211//257 210//258 239//258
f 239//258 240//259 211//259
f 240//260 212//261 211//260
f 213//262 212//263 241//263
f 241//263 242//264 213//264
f 242//265 214//266 213//265
f 214//267 243//267 244//268
f 244//269 215//269 214//270
f 215//271 244//271 245//272
f 216//273 245//273 246//274
f 217//275 246//275 247//276
f 247//277 218//277 217//278
f 247//279 248//280 219//280
f 219//281 218//282 247//282
f 219//283 248//283 249//284
f 249//285 220//285 219//286
f 221//287 249//288 250//287
f 250//289 251//290 222//290
f 222//291 221//292 250//292
f 251//293 252//294 223//294
f 223//295 222//296 251//296
f 223//297 252//298 253//299
f 253//300 224//300 223//301
f 224//302 253//302 254//303
f 254//304 225//304 224//305
f 225//306 254//306 255//307
f 255//308 226//308 225//309
f 255//310 256//311 227//311
f 256//312 257//313 228//313
f 257//314 258//315 229//315
f 229//316 258//316 259//317
f 230//318 259//318 260//319
f 231//320 260//320 261//321
f 233//322 261//322 262//323
f 234//324 262//324 263//325
f 235//326 263//326 264//327
f 236//328 264//328 265//329
f 236//330 265//330 207//331
f 207//332 206//332 236//333
f 264//334 236//334 235//335
f 263//336 235//336 234//337
f 262//338 234//338 233//339
f 261//340 233//340 232//341
f 261//342 232//342 231//343
f 260//344 231//344 230//345
f 259//346 230//346 229//347
f 229//348 228//349 257//349
f 228//350 227//351 256//351
f 227//352 226//353 255//353
f 221//354 220//355 249//355
f 217//274 216//356 246//274
f 216//357 215//358 245//357
f 242//359 243//360 214//360
f 240//361 241//362 212//362
f 269//363 268//363 267//363
f 267//364 266//364 269//364
f 301//365 270//366 271//366
f 300//367 301//368 330//368
f 299//369 300//370 329//370
f 328//371 298//371 299//372
f 327//373 297//373 298//374
f 296//375 297//376 326//376
f 326//377 295//377 296//378
f 324//379 294//379 295//380
f 323//381 293//381 294//382
f 292//383 293//384 323//384
f 321//385 291//385 292//386
f 290//387 291//388 321//388
f 319//389 289//389 290//390
f 290//391 320//391 319//392
f 318//393 288//393 289//394
f 289//395 319//395 318//396
f 317//397 287//397 288//398
f 288//399 318//399 317//397
f 286//400 287//401 317//401
f 317//402 316//400 286//400
f 285//403 286//404 316//404
f 316//405 315//406 285//406
f 314//407 284//407 285//408
f 283//409 284//410 314//410
f 314//411 313//412 283//412
f 312//413 282//413 283//414
f 283//415 313//415 312//416
f 281//417 282//418 312//418
f 312//419 311//420 281//420
f 310//421 280//421 281//422
f 310//423 279//424 280//423
f 308//425 278//425 279//426
f 279//427 309//427 308//428
f 278//429 308//429 307//430
f 277//431 307//431 306//432
f 306//433 276//433 277//434
f 275//435 306//436 305//435
f 275//437 305//437 304//438
f 304//439 274//439 275//440
f 304//441 302//442 272//442
f 272//443 274//444 304//444
f 302//445 303//446 273//446
f 273//447 272//448 302//449
f 275//450 276//451 306//451
f 277//452 278//453 307//452
f 310//454 309//455 279//455
f 311//456 310//457 281//456
f 315//458 314//459 285//458
f 321//460 320//461 290//461
f 292//462 322//462 321//463
f 323//464 322//465 292//465
f 294//466 324//466 323//467
f 295//468 325//468 324//469
f 326//470 325//471 295//472
f 327//473 326//474 297//474
f 298//475 328//475 327//476
f 299//477 329//477 328//478
f 300//479 330//479 329//480
f 271//481 330//482 301//482
f 335//11 336//11 332//11
f 336//11 337//11 334//11
f 337//11 338//11 333//11
f 338//11 335//11 331//11
f 334//11 332//11 336//11
f 331//11 333//11 338//11
f 333//11 334//11 337//11
f 332//11 331//11 335//11
f 339//10 342//10 341//10
f 341//10 340//10 339//10
f 345//2 344//2 343//2
f 343//2 346//2 345//2
f 349//3 347//3 348//3
f 348//3 350//3 349//3
f 354//9 352//9 351//9
f 351//9 353//9 354//9
f 358//10 357//10 356//10
f 356//10 355//10 358//10
f 363//11 359//11 360//11
f 364//11 362//11 359//11
f 359//11 363//11 364//11
f 364//11 365//11 361//11
f 361//11 362//11 364//11
f 365//11 366//11 360//11
f 360//11 361//11 365//11
f 360//11 366//11 363//11
f 369//2 367//2 368//2
f 368//2 370//2 369//2
f 373//3 372//3 371//3
f 371//3 374//3 373//3
f 378//9 376//9 375//9
f 375//9 377//9 378//9
f 382//10 381//10 380//10
f 380//10 379//10 382//10
f 385//4 387//4 388//4
f 386//4 389//4 387//4
f 387//4 385//4 386//4
f 386//4 383//4 390//4
f 383//4 384//4 388//4
f 390//4 389//4 386//4
f 388//4 384//4 385//4
f 388//4 390//4 383//4
f 395//4 393//4 392//4
f 395//4 396//4 394//4
f 394//4 393//4 395//4
f 397//4 391//4 394//4
f 398//4 392//4 391//4
f 394//4 396//4 397//4
f 392//4 398//4 395//4
f 391//4 397//4 398//4
f 401//2 402//2 400//2
f 400//2 399//2 401//2
f 403//9 404//9 405//9
f 405//9 406//9 403//9
f 410//10 407//10 408//10
f 408//10 409//10 410//10
f 411//3 414//3 413//3
f 413//3 412//3 411//3
f 415//2 417//2 418//2
f 418//2 416//2 415//2
f 420//3 421//3 422//3
f 422//3 419//3 420//3
f 423//9 426//9 425//9
f 425//9 424//9 423//9
f 429//11 428//11 427//11
f 427//11 430//11 429//11
f 432//10 431//10 433//10
f 433//10 434//10 432//10
