# Blender v4.1.0 OBJ File: ''
# www.blender.org
mtllib stage_processed.mtl
o mesh0.002
v 0.463819 -1.168400 0.609600
v 0.463819 -1.168400 0.000000
v 0.463819 -0.762000 0.000000
v 0.463819 -0.762000 0.609600
v 0.463819 -0.762000 0.609600
v 0.463819 -0.762000 0.000000
v 1.524000 -0.762000 0.000000
v 1.524000 -0.762000 0.609600
v -0.463819 -1.168400 0.609600
v -0.463819 -1.168400 0.000000
v 0.463819 -1.168400 0.000000
v 0.463819 -1.168400 0.609600
v -0.463819 -0.762000 0.609600
v -0.463819 -0.762000 0.000000
v -0.463819 -1.168400 0.000000
v -0.463819 -1.168400 0.609600
v -1.524000 -0.762000 0.609600
v -1.524000 -0.762000 0.000000
v -0.463819 -0.762000 0.000000
v -0.463819 -0.762000 0.609600
v -1.524000 0.000000 0.000000
v -1.524000 -0.762000 0.000000
v -1.524000 -0.025400 0.457200
v -1.524000 -0.762000 0.609600
v -1.524000 -0.025400 0.609600
v -1.524000 0.000000 0.457200
v -1.707890 -0.025400 0.457200
v -1.707890 0.000000 0.457200
v -1.524000 0.000000 0.457200
v -1.524000 -0.025400 0.457200
v -1.707890 -0.025400 0.304800
v -1.707890 0.000000 0.304800
v -1.707890 0.000000 0.457200
v -1.707890 -0.025400 0.457200
v -1.967970 -0.025400 0.304800
v -1.967970 0.000000 0.304800
v -1.707890 0.000000 0.304800
v -1.707890 -0.025400 0.304800
v -1.967970 -0.025400 0.152400
v -1.967970 0.000000 0.152400
v -1.967970 0.000000 0.304800
v -1.967970 -0.025400 0.304800
v -2.228060 0.000000 0.000000
v -1.524000 0.000000 0.000000
v -1.967970 0.000000 0.152400
v -1.707890 0.000000 0.304800
v -1.967970 0.000000 0.304800
v -1.524000 0.000000 0.457200
v -1.707890 0.000000 0.457200
v -2.228060 0.000000 0.152400
v -2.228060 -0.025400 0.000000
v -2.228060 0.000000 0.000000
v -2.228060 0.000000 0.152400
v -2.228060 -0.025400 0.152400
v -2.228060 -0.025400 0.152400
v -2.228060 0.000000 0.152400
v -1.967970 0.000000 0.152400
v -1.967970 -0.025400 0.152400
v 1.524000 -0.762000 0.609600
v 1.524000 -0.762000 0.000000
v 1.524000 -0.025400 0.457200
v 1.524000 0.000000 0.000000
v 1.524000 0.000000 0.457200
v 1.524000 -0.025400 0.609600
v 1.707890 -0.025400 0.457200
v 1.524000 -0.025400 0.457200
v 1.524000 0.000000 0.457200
v 1.707890 0.000000 0.457200
v 1.707890 -0.025400 0.304800
v 1.707890 -0.025400 0.457200
v 1.707890 0.000000 0.457200
v 1.707890 0.000000 0.304800
v 1.967970 -0.025400 0.304800
v 1.707890 -0.025400 0.304800
v 1.707890 0.000000 0.304800
v 1.967970 0.000000 0.304800
v 1.967970 -0.025400 0.152400
v 1.967970 -0.025400 0.304800
v 1.967970 0.000000 0.304800
v 1.967970 0.000000 0.152400
v 1.524000 0.000000 0.457200
v 1.524000 0.000000 0.000000
v 1.707890 0.000000 0.304800
v 1.967970 0.000000 0.152400
v 1.967970 0.000000 0.304800
v 2.228060 0.000000 0.000000
v 2.228060 0.000000 0.152400
v 1.707890 0.000000 0.457200
v 2.228060 -0.025400 0.000000
v 2.228060 -0.025400 0.152400
v 2.228060 0.000000 0.152400
v 2.228060 0.000000 0.000000
v 2.228060 -0.025400 0.152400
v 1.967970 -0.025400 0.152400
v 1.967970 0.000000 0.152400
v 2.228060 0.000000 0.152400
v -0.463819 -1.168400 0.000000
v -0.463819 -0.762000 0.000000
v 0.463819 -0.762000 0.000000
v 1.524000 0.000000 0.000000
v 1.524000 -0.762000 0.000000
v -2.589750 -0.025400 0.000000
v -2.589750 0.762000 -0.000000
v -2.228060 0.000000 0.000000
v 2.589750 0.762000 -0.000000
v -1.524000 0.000000 0.000000
v 2.228060 0.000000 0.000000
v 2.589750 -0.025400 0.000000
v 2.228060 -0.025400 0.000000
v -1.524000 -0.762000 0.000000
v 0.463819 -1.168400 0.000000
v -2.228060 -0.025400 0.000000
v -2.589750 -0.025400 0.152400
v -2.589750 0.762000 0.152400
v -2.589750 0.762000 -0.000000
v -2.589750 -0.025400 0.000000
v -2.329660 -0.025400 0.152400
v -2.329660 0.762000 0.152400
v -2.589750 0.762000 0.152400
v -2.589750 -0.025400 0.152400
v -2.329660 -0.025400 0.304800
v -2.329660 0.762000 0.304800
v -2.329660 0.762000 0.152400
v -2.329660 -0.025400 0.152400
v -2.069570 -0.025400 0.304800
v -2.069570 0.762000 0.304800
v -2.329660 0.762000 0.304800
v -2.329660 -0.025400 0.304800
v -2.069570 -0.025400 0.457200
v -2.069570 0.762000 0.457200
v -2.069570 0.762000 0.304800
v -2.069570 -0.025400 0.304800
v -1.809490 -0.025400 0.457200
v -1.809490 0.762000 0.457200
v -2.069570 0.762000 0.457200
v -2.069570 -0.025400 0.457200
v -2.069570 -0.025400 0.304800
v -2.329660 -0.025400 0.304800
v -2.228060 -0.025400 0.152400
v -2.329660 -0.025400 0.152400
v -2.589750 -0.025400 0.000000
v -2.228060 -0.025400 0.000000
v -1.809490 -0.025400 0.457200
v -2.069570 -0.025400 0.457200
v -1.967970 -0.025400 0.304800
v -1.967970 -0.025400 0.152400
v -1.549400 -0.025400 0.609600
v -1.809490 -0.025400 0.609600
v -1.707890 -0.025400 0.457200
v -1.524000 -0.025400 0.457200
v -1.524000 -0.025400 0.609600
v -1.707890 -0.025400 0.304800
v -2.589750 -0.025400 0.152400
v -1.809490 -0.025400 0.609600
v -1.809490 0.762000 0.609600
v -1.809490 0.762000 0.457200
v -1.809490 -0.025400 0.457200
v -1.809490 -0.025400 0.609600
v -1.549400 -0.025400 0.609600
v -1.549400 0.762000 0.609600
v -1.809490 0.762000 0.609600
v 2.589750 -0.025400 0.000000
v 2.589750 0.762000 -0.000000
v 2.589750 0.762000 0.152400
v 2.589750 -0.025400 0.152400
v 2.589750 -0.025400 0.152400
v 2.589750 0.762000 0.152400
v 2.329660 0.762000 0.152400
v 2.329660 -0.025400 0.152400
v 2.329660 -0.025400 0.152400
v 2.329660 0.762000 0.152400
v 2.329660 0.762000 0.304800
v 2.329660 -0.025400 0.304800
v 2.329660 -0.025400 0.304800
v 2.329660 0.762000 0.304800
v 2.069570 0.762000 0.304800
v 2.069570 -0.025400 0.304800
v 2.069570 -0.025400 0.304800
v 2.069570 0.762000 0.304800
v 2.069570 0.762000 0.457200
v 2.069570 -0.025400 0.457200
v 2.069570 -0.025400 0.457200
v 2.069570 0.762000 0.457200
v 1.809490 0.762000 0.457200
v 1.809490 -0.025400 0.457200
v 2.228060 -0.025400 0.152400
v 2.228060 -0.025400 0.000000
v 2.329660 -0.025400 0.152400
v 2.589750 -0.025400 0.000000
v 2.589750 -0.025400 0.152400
v 2.069570 -0.025400 0.304800
v 2.069570 -0.025400 0.457200
v 1.967970 -0.025400 0.304800
v 1.967970 -0.025400 0.152400
v 2.329660 -0.025400 0.304800
v 1.707890 -0.025400 0.457200
v 1.707890 -0.025400 0.304800
v 1.809490 -0.025400 0.457200
v 1.549400 -0.025400 0.609600
v 1.524000 -0.025400 0.457200
v 1.809490 -0.025400 0.609600
v 1.524000 -0.025400 0.609600
v 1.809490 -0.025400 0.457200
v 1.809490 0.762000 0.457200
v 1.809490 0.762000 0.609600
v 1.809490 -0.025400 0.609600
v 1.809490 0.762000 0.609600
v 1.549400 0.762000 0.609600
v 1.549400 -0.025400 0.609600
v 1.809490 -0.025400 0.609600
v 2.589750 0.762000 -0.000000
v -1.549400 0.762000 0.609600
v 2.329660 0.762000 0.152400
v 2.069570 0.762000 0.304800
v 2.329660 0.762000 0.304800
v 1.809490 0.762000 0.457200
v 2.069570 0.762000 0.457200
v 1.549400 0.762000 0.609600
v 1.809490 0.762000 0.609600
v 1.549400 0.762000 0.762000
v -1.549400 0.762000 0.762000
v -1.809490 0.762000 0.457200
v -1.809490 0.762000 0.609600
v -2.069570 0.762000 0.304800
v -2.069570 0.762000 0.457200
v -2.329660 0.762000 0.152400
v -2.329660 0.762000 0.304800
v -2.589750 0.762000 -0.000000
v -2.589750 0.762000 0.152400
v 2.589750 0.762000 0.152400
v 1.549400 0.762000 0.762000
v 1.549400 -0.787400 0.762000
v 1.549400 -0.025400 0.609600
v 1.549400 -0.787400 0.609600
v 1.549400 0.762000 0.609600
v -1.549400 0.762000 0.762000
v -1.549400 0.762000 0.609600
v -1.549400 -0.025400 0.609600
v -1.549400 -0.787400 0.762000
v -1.549400 -0.787400 0.609600
v -1.549400 -0.787400 0.762000
v -1.549400 -0.787400 0.609600
v -0.489219 -0.787400 0.609600
v -0.489219 -0.787400 0.762000
v -0.489219 -0.787400 0.762000
v -0.489219 -0.787400 0.609600
v -0.489219 -1.193800 0.609600
v -0.489219 -1.193800 0.762000
v 0.463819 -1.168400 0.609600
v 0.463819 -0.762000 0.609600
v 0.489219 -0.787400 0.609600
v 0.489219 -1.193800 0.609600
v -0.489219 -1.193800 0.609600
v -0.463819 -1.168400 0.609600
v -0.489219 -0.787400 0.609600
v -1.549400 -0.787400 0.609600
v -1.524000 -0.762000 0.609600
v -1.549400 -0.025400 0.609600
v -1.524000 -0.025400 0.609600
v -0.463819 -0.762000 0.609600
v 1.549400 -0.025400 0.609600
v 1.549400 -0.787400 0.609600
v 1.524000 -0.762000 0.609600
v 1.524000 -0.025400 0.609600
v 1.549400 0.762000 0.762000
v -0.489219 -0.787400 0.762000
v 0.489219 -0.787400 0.762000
v 0.489219 -1.193800 0.762000
v -0.489219 -1.193800 0.762000
v -1.549400 0.762000 0.762000
v -1.549400 -0.787400 0.762000
v 1.549400 -0.787400 0.762000
v -0.489219 -1.193800 0.762000
v -0.489219 -1.193800 0.609600
v 0.489219 -1.193800 0.609600
v 0.489219 -1.193800 0.762000
v 0.489219 -1.193800 0.762000
v 0.489219 -1.193800 0.609600
v 0.489219 -0.787400 0.609600
v 0.489219 -0.787400 0.762000
v 0.489219 -0.787400 0.762000
v 0.489219 -0.787400 0.609600
v 1.549400 -0.787400 0.609600
v 1.549400 -0.787400 0.762000
vn 1.0000 0.0000 0.0000
vn 0.0000 -1.0000 0.0000
vn -1.0000 0.0000 0.0000
vn 0.0000 0.0000 -1.0000
vn 0.0000 0.0000 1.0000
vn 0.0000 1.0000 -0.0000
usemtl 0.615686_0.811765_0.929412_0.000000_0.001
s 1
f 1//1 2//1 3//1
f 3//1 4//1 1//1
f 5//2 6//2 7//2
f 7//2 8//2 5//2
f 9//2 10//2 11//2
f 11//2 12//2 9//2
f 13//3 14//3 15//3
f 15//3 16//3 13//3
f 17//2 18//2 19//2
f 19//2 20//2 17//2
f 21//3 22//3 23//3
f 24//3 25//3 23//3
f 23//3 22//3 24//3
f 23//3 26//3 21//3
f 27//4 28//4 29//4
f 29//4 30//4 27//4
f 31//1 32//1 33//1
f 33//1 34//1 31//1
f 35//4 36//4 37//4
f 37//4 38//4 35//4
f 39//1 40//1 41//1
f 41//1 42//1 39//1
f 43//2 44//2 45//2
f 45//2 44//2 46//2
f 46//2 47//2 45//2
f 48//2 49//2 46//2
f 46//2 44//2 48//2
f 45//2 50//2 43//2
f 51//1 52//1 53//1
f 53//1 54//1 51//1
f 55//4 56//4 57//4
f 57//4 58//4 55//4
f 59//1 60//1 61//1
f 62//1 63//1 61//1
f 61//1 60//1 62//1
f 61//1 64//1 59//1
f 65//4 66//4 67//4
f 67//4 68//4 65//4
f 69//3 70//3 71//3
f 71//3 72//3 69//3
f 73//4 74//4 75//4
f 75//4 76//4 73//4
f 77//3 78//3 79//3
f 79//3 80//3 77//3
f 81//2 82//2 83//2
f 84//2 85//2 83//2
f 83//2 82//2 84//2
f 86//2 87//2 84//2
f 84//2 82//2 86//2
f 83//2 88//2 81//2
f 89//3 90//3 91//3
f 91//3 92//3 89//3
f 93//4 94//4 95//4
f 95//4 96//4 93//4
f 97//4 98//4 99//4
f 100//4 101//4 99//4
f 102//4 103//4 104//4
f 103//4 105//4 106//4
f 99//4 98//4 100//4
f 105//4 107//4 100//4
f 106//4 104//4 103//4
f 106//4 105//4 98//4
f 100//4 98//4 105//4
f 108//4 109//4 107//4
f 98//4 110//4 106//4
f 107//4 105//4 108//4
f 99//4 111//4 97//4
f 104//4 112//4 102//4
f 113//3 114//3 115//3
f 115//3 116//3 113//3
f 117//5 118//5 119//5
f 119//5 120//5 117//5
f 121//3 122//3 123//3
f 123//3 124//3 121//3
f 125//5 126//5 127//5
f 127//5 128//5 125//5
f 129//3 130//3 131//3
f 131//3 132//3 129//3
f 133//5 134//5 135//5
f 135//5 136//5 133//5
f 137//2 138//2 139//2
f 139//2 138//2 140//2
f 141//2 142//2 140//2
f 140//2 142//2 139//2
f 143//2 144//2 145//2
f 137//2 146//2 145//2
f 147//2 148//2 149//2
f 139//2 146//2 137//2
f 145//2 144//2 137//2
f 150//2 151//2 147//2
f 149//2 148//2 143//2
f 145//2 152//2 143//2
f 143//2 152//2 149//2
f 149//2 150//2 147//2
f 140//2 153//2 141//2
f 154//3 155//3 156//3
f 156//3 157//3 154//3
f 158//5 159//5 160//5
f 160//5 161//5 158//5
f 162//1 163//1 164//1
f 164//1 165//1 162//1
f 166//5 167//5 168//5
f 168//5 169//5 166//5
f 170//1 171//1 172//1
f 172//1 173//1 170//1
f 174//5 175//5 176//5
f 176//5 177//5 174//5
f 178//1 179//1 180//1
f 180//1 181//1 178//1
f 182//5 183//5 184//5
f 184//5 185//5 182//5
f 186//2 187//2 188//2
f 189//2 190//2 188//2
f 191//2 192//2 193//2
f 191//2 194//2 186//2
f 188//2 187//2 189//2
f 186//2 195//2 191//2
f 196//2 197//2 198//2
f 198//2 197//2 193//2
f 193//2 194//2 191//2
f 193//2 192//2 198//2
f 199//2 200//2 196//2
f 198//2 201//2 196//2
f 196//2 201//2 199//2
f 199//2 202//2 200//2
f 188//2 195//2 186//2
f 203//1 204//1 205//1
f 205//1 206//1 203//1
f 207//5 208//5 209//5
f 209//5 210//5 207//5
f 211//6 212//6 213//6
f 213//6 212//6 214//6
f 214//6 215//6 213//6
f 214//6 212//6 216//6
f 216//6 217//6 214//6
f 216//6 212//6 218//6
f 218//6 219//6 216//6
f 220//6 218//6 212//6
f 212//6 221//6 220//6
f 222//6 223//6 212//6
f 212//6 211//6 222//6
f 224//6 225//6 222//6
f 222//6 211//6 224//6
f 226//6 227//6 224//6
f 224//6 211//6 226//6
f 228//6 229//6 226//6
f 226//6 211//6 228//6
f 213//6 230//6 211//6
f 231//1 232//1 233//1
f 232//1 234//1 233//1
f 233//1 235//1 231//1
f 236//3 237//3 238//3
f 238//3 239//3 236//3
f 238//3 240//3 239//3
f 241//2 242//2 243//2
f 243//2 244//2 241//2
f 245//3 246//3 247//3
f 247//3 248//3 245//3
f 249//4 250//4 251//4
f 252//4 253//4 254//4
f 255//4 256//4 257//4
f 258//4 259//4 257//4
f 254//4 249//4 252//4
f 254//4 253//4 255//4
f 257//4 256//4 258//4
f 255//4 260//4 254//4
f 261//4 262//4 263//4
f 251//4 250//4 263//4
f 251//4 252//4 249//4
f 263//4 262//4 251//4
f 263//4 264//4 261//4
f 257//4 260//4 255//4
f 265//5 266//5 267//5
f 268//5 267//5 266//5
f 266//5 269//5 268//5
f 270//5 271//5 266//5
f 266//5 265//5 270//5
f 267//5 272//5 265//5
f 273//2 274//2 275//2
f 275//2 276//2 273//2
f 277//1 278//1 279//1
f 279//1 280//1 277//1
f 281//2 282//2 283//2
f 283//2 284//2 281//2
